<svg width="158" height="168" viewBox="0 0 158 168" fill="none" xmlns="http://www.w3.org/2000/svg">
<g filter="url(#filter0_d_168_770)">
<path d="M32 52.9951H74V105.995C74 108.204 72.2091 109.995 70 109.995H28V82.9951V56.9951C28 54.786 29.7909 52.9951 32 52.9951Z" fill="white" stroke="#03BFFE" stroke-width="2"/>
<line x1="45" y1="57.9951" x2="53" y2="57.9951" stroke="#03BFFE" stroke-width="2"/>
<line x1="45" y1="89.9951" x2="53" y2="89.9951" stroke="#03BFFE" stroke-width="2"/>
<line x1="45" y1="97.9951" x2="53" y2="97.9951" stroke="#03BFFE" stroke-width="2"/>
<line x1="31" y1="57.9951" x2="43" y2="57.9951" stroke="#03BFFE" stroke-width="2"/>
<line x1="31" y1="89.9951" x2="43" y2="89.9951" stroke="#03BFFE" stroke-width="2"/>
<line x1="31" y1="97.9951" x2="43" y2="97.9951" stroke="#03BFFE" stroke-width="2"/>
<line x1="55" y1="57.9951" x2="71" y2="57.9951" stroke="#03BFFE" stroke-width="2"/>
<line x1="55" y1="89.9951" x2="71" y2="89.9951" stroke="#03BFFE" stroke-width="2"/>
<line x1="55" y1="97.9951" x2="71" y2="97.9951" stroke="#03BFFE" stroke-width="2"/>
<line x1="45" y1="61.9951" x2="53" y2="61.9951" stroke="#03BFFE" stroke-width="2"/>
<line x1="45" y1="73.9951" x2="53" y2="73.9951" stroke="#03BFFE" stroke-width="2"/>
<line x1="45" y1="81.9951" x2="53" y2="81.9951" stroke="#03BFFE" stroke-width="2"/>
<line x1="45" y1="101.995" x2="53" y2="101.995" stroke="#03BFFE" stroke-width="2"/>
<line x1="31" y1="61.9951" x2="43" y2="61.9951" stroke="#03BFFE" stroke-width="2"/>
<line x1="31" y1="73.9951" x2="43" y2="73.9951" stroke="#03BFFE" stroke-width="2"/>
<line x1="31" y1="81.9951" x2="43" y2="81.9951" stroke="#03BFFE" stroke-width="2"/>
<line x1="31" y1="101.995" x2="43" y2="101.995" stroke="#03BFFE" stroke-width="2"/>
<line x1="55" y1="61.9951" x2="71" y2="61.9951" stroke="#03BFFE" stroke-width="2"/>
<line x1="45" y1="65.9951" x2="53" y2="65.9951" stroke="#03BFFE" stroke-width="2"/>
<line x1="31" y1="65.9951" x2="43" y2="65.9951" stroke="#03BFFE" stroke-width="2"/>
<line x1="55" y1="65.9951" x2="71" y2="65.9951" stroke="#03BFFE" stroke-width="2"/>
<line x1="45" y1="77.9951" x2="53" y2="77.9951" stroke="#03BFFE" stroke-width="2"/>
<line x1="31" y1="77.9951" x2="43" y2="77.9951" stroke="#03BFFE" stroke-width="2"/>
<line x1="55" y1="77.9951" x2="71" y2="77.9951" stroke="#03BFFE" stroke-width="2"/>
<line x1="45" y1="85.9951" x2="53" y2="85.9951" stroke="#03BFFE" stroke-width="2"/>
<line x1="31" y1="85.9951" x2="43" y2="85.9951" stroke="#03BFFE" stroke-width="2"/>
<line x1="55" y1="85.9951" x2="71" y2="85.9951" stroke="#03BFFE" stroke-width="2"/>
<line x1="45" y1="105.995" x2="53" y2="105.995" stroke="#03BFFE" stroke-width="2"/>
<line x1="31" y1="105.995" x2="43" y2="105.995" stroke="#03BFFE" stroke-width="2"/>
<line x1="55" y1="105.995" x2="71" y2="105.995" stroke="#03BFFE" stroke-width="2"/>
<line x1="55" y1="73.9951" x2="71" y2="73.9951" stroke="#03BFFE" stroke-width="2"/>
<line x1="55" y1="81.9951" x2="71" y2="81.9951" stroke="#03BFFE" stroke-width="2"/>
<line x1="55" y1="101.995" x2="71" y2="101.995" stroke="#03BFFE" stroke-width="2"/>
<line x1="45" y1="69.9951" x2="53" y2="69.9951" stroke="#03BFFE" stroke-width="2"/>
<line x1="45" y1="93.9951" x2="53" y2="93.9951" stroke="#03BFFE" stroke-width="2"/>
<line x1="31" y1="69.9951" x2="43" y2="69.9951" stroke="#03BFFE" stroke-width="2"/>
<line x1="31" y1="93.9951" x2="43" y2="93.9951" stroke="#03BFFE" stroke-width="2"/>
<line x1="55" y1="69.9951" x2="71" y2="69.9951" stroke="#03BFFE" stroke-width="2"/>
<line x1="55" y1="93.9951" x2="71" y2="93.9951" stroke="#03BFFE" stroke-width="2"/>
</g>
<g filter="url(#filter1_d_168_770)">
<path d="M88 52.9951H130V105.995C130 108.204 128.209 109.995 126 109.995H84V82.9951V56.9951C84 54.786 85.7909 52.9951 88 52.9951Z" fill="white" stroke="#FF00E1" stroke-width="2"/>
<line x1="101" y1="57.9951" x2="109" y2="57.9951" stroke="#FF00E1" stroke-width="2"/>
<line x1="101" y1="89.9951" x2="109" y2="89.9951" stroke="#FF00E1" stroke-width="2"/>
<line x1="101" y1="97.9951" x2="109" y2="97.9951" stroke="#FF00E1" stroke-width="2"/>
<line x1="87" y1="57.9951" x2="99" y2="57.9951" stroke="#FF00E1" stroke-width="2"/>
<line x1="87" y1="89.9951" x2="99" y2="89.9951" stroke="#FF00E1" stroke-width="2"/>
<line x1="87" y1="97.9951" x2="99" y2="97.9951" stroke="#FF00E1" stroke-width="2"/>
<line x1="111" y1="57.9951" x2="127" y2="57.9951" stroke="#FF00E1" stroke-width="2"/>
<line x1="111" y1="89.9951" x2="127" y2="89.9951" stroke="#FF00E1" stroke-width="2"/>
<line x1="111" y1="97.9951" x2="127" y2="97.9951" stroke="#FF00E1" stroke-width="2"/>
<line x1="101" y1="61.9951" x2="109" y2="61.9951" stroke="#FF00E1" stroke-width="2"/>
<line x1="101" y1="73.9951" x2="109" y2="73.9951" stroke="#FF00E1" stroke-width="2"/>
<line x1="101" y1="81.9951" x2="109" y2="81.9951" stroke="#FF00E1" stroke-width="2"/>
<line x1="101" y1="101.995" x2="109" y2="101.995" stroke="#FF00E1" stroke-width="2"/>
<line x1="87" y1="61.9951" x2="99" y2="61.9951" stroke="#FF00E1" stroke-width="2"/>
<line x1="87" y1="73.9951" x2="99" y2="73.9951" stroke="#FF00E1" stroke-width="2"/>
<line x1="87" y1="81.9951" x2="99" y2="81.9951" stroke="#FF00E1" stroke-width="2"/>
<line x1="87" y1="101.995" x2="99" y2="101.995" stroke="#FF00E1" stroke-width="2"/>
<line x1="111" y1="61.9951" x2="127" y2="61.9951" stroke="#FF00E1" stroke-width="2"/>
<line x1="101" y1="65.9951" x2="109" y2="65.9951" stroke="#FF00E1" stroke-width="2"/>
<line x1="87" y1="65.9951" x2="99" y2="65.9951" stroke="#FF00E1" stroke-width="2"/>
<line x1="111" y1="65.9951" x2="127" y2="65.9951" stroke="#FF00E1" stroke-width="2"/>
<line x1="101" y1="77.9951" x2="109" y2="77.9951" stroke="#FF00E1" stroke-width="2"/>
<line x1="87" y1="77.9951" x2="99" y2="77.9951" stroke="#FF00E1" stroke-width="2"/>
<line x1="111" y1="77.9951" x2="127" y2="77.9951" stroke="#FF00E1" stroke-width="2"/>
<line x1="101" y1="85.9951" x2="109" y2="85.9951" stroke="#FF00E1" stroke-width="2"/>
<line x1="87" y1="85.9951" x2="99" y2="85.9951" stroke="#FF00E1" stroke-width="2"/>
<line x1="111" y1="85.9951" x2="127" y2="85.9951" stroke="#FF00E1" stroke-width="2"/>
<line x1="101" y1="105.995" x2="109" y2="105.995" stroke="#FF00E1" stroke-width="2"/>
<line x1="87" y1="105.995" x2="99" y2="105.995" stroke="#FF00E1" stroke-width="2"/>
<line x1="111" y1="105.995" x2="127" y2="105.995" stroke="#FF00E1" stroke-width="2"/>
<line x1="111" y1="73.9951" x2="127" y2="73.9951" stroke="#FF00E1" stroke-width="2"/>
<line x1="111" y1="81.9951" x2="127" y2="81.9951" stroke="#FF00E1" stroke-width="2"/>
<line x1="111" y1="101.995" x2="127" y2="101.995" stroke="#FF00E1" stroke-width="2"/>
<line x1="101" y1="69.9951" x2="109" y2="69.9951" stroke="#FF00E1" stroke-width="2"/>
<line x1="101" y1="93.9951" x2="109" y2="93.9951" stroke="#FF00E1" stroke-width="2"/>
<line x1="87" y1="69.9951" x2="99" y2="69.9951" stroke="#FF00E1" stroke-width="2"/>
<line x1="87" y1="93.9951" x2="99" y2="93.9951" stroke="#FF00E1" stroke-width="2"/>
<line x1="111" y1="69.9951" x2="127" y2="69.9951" stroke="#FF00E1" stroke-width="2"/>
<line x1="111" y1="93.9951" x2="127" y2="93.9951" stroke="#FF00E1" stroke-width="2"/>
</g>
<g filter="url(#filter2_d_168_770)">
<path fill-rule="evenodd" clip-rule="evenodd" d="M124.506 160L154 135.408V128.223L124.506 146.223H79.9057H78.0943H33.4939L4 128.223V135.408L33.4939 160H78.0943H79.9057H124.506ZM33.4939 144.591L4 127.406V120.073L33.4939 130.813H78.0943V130.813H124.506L154 120.073V127.406L124.506 144.591H79.9057V144.591H33.4939ZM154 119.259L124.506 129.481H78.0943V129.481H33.4939L4 119.259V112L33.4939 115.288H79.9057V115.288H124.506L154 112V119.259Z" fill="url(#paint0_linear_168_770)"/>
</g>
<g filter="url(#filter3_d_168_770)">
<path d="M111 0.995117H153V53.9951C153 56.2043 151.209 57.9951 149 57.9951H103.302L106.966 44.2528L107 44.1262V43.9951V30.9951V4.99512C107 2.78598 108.791 0.995117 111 0.995117Z" fill="white" stroke="#1D4CB3" stroke-width="2"/>
<path d="M98.5 44.4951H106.967L106.657 54.1241C106.587 56.2819 104.818 57.9951 102.659 57.9951H102.5C100.291 57.9951 98.5 56.2043 98.5 53.9951V44.4951Z" fill="white" stroke="#1D4CB3" stroke-width="2"/>
<line x1="124" y1="5.99512" x2="132" y2="5.99512" stroke="#1D4CB3" stroke-width="2"/>
<line x1="124" y1="37.9951" x2="132" y2="37.9951" stroke="#1D4CB3" stroke-width="2"/>
<line x1="124" y1="45.9951" x2="132" y2="45.9951" stroke="#1D4CB3" stroke-width="2"/>
<line x1="110" y1="5.99512" x2="122" y2="5.99512" stroke="#1D4CB3" stroke-width="2"/>
<line x1="110" y1="37.9951" x2="122" y2="37.9951" stroke="#1D4CB3" stroke-width="2"/>
<line x1="110" y1="45.9951" x2="122" y2="45.9951" stroke="#1D4CB3" stroke-width="2"/>
<line x1="134" y1="5.99512" x2="150" y2="5.99512" stroke="#1D4CB3" stroke-width="2"/>
<line x1="134" y1="37.9951" x2="150" y2="37.9951" stroke="#1D4CB3" stroke-width="2"/>
<line x1="134" y1="45.9951" x2="150" y2="45.9951" stroke="#1D4CB3" stroke-width="2"/>
<line x1="124" y1="9.99512" x2="132" y2="9.99512" stroke="#1D4CB3" stroke-width="2"/>
<line x1="124" y1="21.9951" x2="132" y2="21.9951" stroke="#1D4CB3" stroke-width="2"/>
<line x1="124" y1="29.9951" x2="132" y2="29.9951" stroke="#1D4CB3" stroke-width="2"/>
<line x1="124" y1="49.9951" x2="132" y2="49.9951" stroke="#F25022" stroke-width="2"/>
<line x1="110" y1="9.99512" x2="122" y2="9.99512" stroke="#1D4CB3" stroke-width="2"/>
<line x1="110" y1="21.9951" x2="122" y2="21.9951" stroke="#1D4CB3" stroke-width="2"/>
<line x1="110" y1="29.9951" x2="122" y2="29.9951" stroke="#1D4CB3" stroke-width="2"/>
<line x1="110" y1="49.9951" x2="122" y2="49.9951" stroke="#F25022" stroke-width="2"/>
<line x1="134" y1="9.99512" x2="150" y2="9.99512" stroke="#1D4CB3" stroke-width="2"/>
<line x1="124" y1="13.9951" x2="132" y2="13.9951" stroke="#1D4CB3" stroke-width="2"/>
<line x1="110" y1="13.9951" x2="122" y2="13.9951" stroke="#1D4CB3" stroke-width="2"/>
<line x1="134" y1="13.9951" x2="150" y2="13.9951" stroke="#1D4CB3" stroke-width="2"/>
<line x1="124" y1="25.9951" x2="132" y2="25.9951" stroke="#1D4CB3" stroke-width="2"/>
<line x1="110" y1="25.9951" x2="122" y2="25.9951" stroke="#1D4CB3" stroke-width="2"/>
<line x1="134" y1="25.9951" x2="150" y2="25.9951" stroke="#1D4CB3" stroke-width="2"/>
<line x1="124" y1="33.9951" x2="132" y2="33.9951" stroke="#F25022" stroke-width="2"/>
<line x1="110" y1="33.9951" x2="122" y2="33.9951" stroke="#F25022" stroke-width="2"/>
<line x1="134" y1="33.9951" x2="150" y2="33.9951" stroke="#F25022" stroke-width="2"/>
<line x1="124" y1="53.9951" x2="132" y2="53.9951" stroke="#1D4CB3" stroke-width="2"/>
<line x1="110" y1="53.9951" x2="122" y2="53.9951" stroke="#1D4CB3" stroke-width="2"/>
<line x1="134" y1="53.9951" x2="150" y2="53.9951" stroke="#1D4CB3" stroke-width="2"/>
<line x1="134" y1="21.9951" x2="150" y2="21.9951" stroke="#1D4CB3" stroke-width="2"/>
<line x1="134" y1="29.9951" x2="150" y2="29.9951" stroke="#1D4CB3" stroke-width="2"/>
<line x1="134" y1="49.9951" x2="150" y2="49.9951" stroke="#F25022" stroke-width="2"/>
<line x1="124" y1="17.9951" x2="132" y2="17.9951" stroke="#F25022" stroke-width="2"/>
<line x1="124" y1="41.9951" x2="132" y2="41.9951" stroke="#1D4CB3" stroke-width="2"/>
<line x1="110" y1="17.9951" x2="122" y2="17.9951" stroke="#F25022" stroke-width="2"/>
<line x1="110" y1="41.9951" x2="122" y2="41.9951" stroke="#1D4CB3" stroke-width="2"/>
<line x1="134" y1="17.9951" x2="150" y2="17.9951" stroke="#F25022" stroke-width="2"/>
<line x1="134" y1="41.9951" x2="150" y2="41.9951" stroke="#1D4CB3" stroke-width="2"/>
</g>
<g filter="url(#filter4_d_168_770)">
<path d="M9 0.995117H51V53.9951C51 56.2043 49.2091 57.9951 47 57.9951H5V30.9951V4.99512C5 2.78598 6.79086 0.995117 9 0.995117Z" fill="white" stroke="#F25022" stroke-width="2"/>
<line x1="22" y1="5.99512" x2="30" y2="5.99512" stroke="#F25022" stroke-width="2"/>
<line x1="22" y1="37.9951" x2="30" y2="37.9951" stroke="#F25022" stroke-width="2"/>
<line x1="22" y1="45.9951" x2="30" y2="45.9951" stroke="#F25022" stroke-width="2"/>
<line x1="8" y1="5.99512" x2="20" y2="5.99512" stroke="#F25022" stroke-width="2"/>
<line x1="8" y1="37.9951" x2="20" y2="37.9951" stroke="#F25022" stroke-width="2"/>
<line x1="8" y1="45.9951" x2="20" y2="45.9951" stroke="#F25022" stroke-width="2"/>
<line x1="32" y1="5.99512" x2="48" y2="5.99512" stroke="#F25022" stroke-width="2"/>
<line x1="32" y1="37.9951" x2="48" y2="37.9951" stroke="#F25022" stroke-width="2"/>
<line x1="32" y1="45.9951" x2="48" y2="45.9951" stroke="#F25022" stroke-width="2"/>
<line x1="22" y1="9.99512" x2="30" y2="9.99512" stroke="#F25022" stroke-width="2"/>
<line x1="22" y1="21.9951" x2="30" y2="21.9951" stroke="#F25022" stroke-width="2"/>
<line x1="22" y1="29.9951" x2="30" y2="29.9951" stroke="#F25022" stroke-width="2"/>
<line x1="22" y1="49.9951" x2="30" y2="49.9951" stroke="#F25022" stroke-width="2"/>
<line x1="8" y1="9.99512" x2="20" y2="9.99512" stroke="#F25022" stroke-width="2"/>
<line x1="8" y1="21.9951" x2="20" y2="21.9951" stroke="#F25022" stroke-width="2"/>
<line x1="8" y1="29.9951" x2="20" y2="29.9951" stroke="#F25022" stroke-width="2"/>
<line x1="8" y1="49.9951" x2="20" y2="49.9951" stroke="#F25022" stroke-width="2"/>
<line x1="32" y1="9.99512" x2="48" y2="9.99512" stroke="#F25022" stroke-width="2"/>
<line x1="22" y1="13.9951" x2="30" y2="13.9951" stroke="#F25022" stroke-width="2"/>
<line x1="8" y1="13.9951" x2="20" y2="13.9951" stroke="#F25022" stroke-width="2"/>
<line x1="32" y1="13.9951" x2="48" y2="13.9951" stroke="#F25022" stroke-width="2"/>
<line x1="22" y1="25.9951" x2="30" y2="25.9951" stroke="#F25022" stroke-width="2"/>
<line x1="8" y1="25.9951" x2="20" y2="25.9951" stroke="#F25022" stroke-width="2"/>
<line x1="32" y1="25.9951" x2="48" y2="25.9951" stroke="#F25022" stroke-width="2"/>
<line x1="22" y1="33.9951" x2="30" y2="33.9951" stroke="#F25022" stroke-width="2"/>
<line x1="8" y1="33.9951" x2="20" y2="33.9951" stroke="#F25022" stroke-width="2"/>
<line x1="32" y1="33.9951" x2="48" y2="33.9951" stroke="#F25022" stroke-width="2"/>
<line x1="22" y1="53.9951" x2="30" y2="53.9951" stroke="#F25022" stroke-width="2"/>
<line x1="8" y1="53.9951" x2="20" y2="53.9951" stroke="#F25022" stroke-width="2"/>
<line x1="32" y1="53.9951" x2="48" y2="53.9951" stroke="#F25022" stroke-width="2"/>
<line x1="32" y1="21.9951" x2="48" y2="21.9951" stroke="#F25022" stroke-width="2"/>
<line x1="32" y1="29.9951" x2="48" y2="29.9951" stroke="#F25022" stroke-width="2"/>
<line x1="32" y1="49.9951" x2="48" y2="49.9951" stroke="#F25022" stroke-width="2"/>
<line x1="22" y1="17.9951" x2="30" y2="17.9951" stroke="#F25022" stroke-width="2"/>
<line x1="22" y1="41.9951" x2="30" y2="41.9951" stroke="#F25022" stroke-width="2"/>
<line x1="8" y1="17.9951" x2="20" y2="17.9951" stroke="#F25022" stroke-width="2"/>
<line x1="8" y1="41.9951" x2="20" y2="41.9951" stroke="#F25022" stroke-width="2"/>
<line x1="32" y1="17.9951" x2="48" y2="17.9951" stroke="#F25022" stroke-width="2"/>
<line x1="32" y1="41.9951" x2="48" y2="41.9951" stroke="#F25022" stroke-width="2"/>
<path d="M22.6041 26.9951C16.0715 32.5096 10.8781 41.8595 16.2024 48.4644C20.0999 52.0952 25.975 51.3297 28.1624 46.6305C32.1326 37.9419 20.5894 35.3846 22.6044 26.9952L22.6041 26.9951Z" fill="url(#paint1_radial_168_770)"/>
<g filter="url(#filter5_f_168_770)">
<path d="M23.5009 56.1441C27.1346 55.3565 28.1302 52.7911 29.0927 50.2034C29.1953 47.7752 32.2308 47.9614 31.4226 50.756C30.174 53.9807 27.9676 56.2225 23.5009 56.1441Z" fill="url(#paint2_radial_168_770)"/>
</g>
<g opacity="0.88496" filter="url(#filter6_f_168_770)">
<path d="M16.4712 45.0456C15.8836 47.5474 16.6768 49.8737 18.2431 50.2416C19.8093 50.6095 21.5553 48.8796 22.143 46.3778C22.7306 43.876 21.9374 41.5497 20.3712 41.1818C18.8049 40.814 17.0589 42.5438 16.4712 45.0456Z" fill="white"/>
</g>
</g>
<g filter="url(#filter7_d_168_770)">
<mask id="path-166-inside-1_168_770" fill="white">
<path fill-rule="evenodd" clip-rule="evenodd" d="M83 5.99512H75V11.1885C73.7113 11.5358 72.4898 12.0468 71.3592 12.6979L67.6855 9.0242L62.0287 14.6811L65.7025 18.3549C65.0516 19.4854 64.5407 20.7067 64.1935 21.9951H59V29.9951H64.1936C64.5409 31.2835 65.0518 32.5047 65.7027 33.6351L62.0287 37.3092L67.6855 42.966L71.3595 39.292C72.4901 39.943 73.7115 40.454 75 40.8012V45.9951H83V40.8012C84.2881 40.4541 85.5091 39.9433 86.6394 39.2926L90.3129 42.966L95.9697 37.3092L92.2966 33.6361C92.9478 32.5054 93.4589 31.2838 93.8062 29.9951H99V21.9951H93.8064C93.4591 20.7063 92.948 19.4847 92.2968 18.354L95.9697 14.6811L90.3129 9.0242L86.6397 12.6973C85.5094 12.0465 84.2883 11.5357 83 11.1885V5.99512ZM79.0001 34.662C83.7865 34.662 87.6667 30.7818 87.6667 25.9954C87.6667 21.2089 83.7865 17.3287 79.0001 17.3287C74.2136 17.3287 70.3334 21.2089 70.3334 25.9954C70.3334 30.7818 74.2136 34.662 79.0001 34.662Z"/>
</mask>
<path fill-rule="evenodd" clip-rule="evenodd" d="M83 5.99512H75V11.1885C73.7113 11.5358 72.4898 12.0468 71.3592 12.6979L67.6855 9.0242L62.0287 14.6811L65.7025 18.3549C65.0516 19.4854 64.5407 20.7067 64.1935 21.9951H59V29.9951H64.1936C64.5409 31.2835 65.0518 32.5047 65.7027 33.6351L62.0287 37.3092L67.6855 42.966L71.3595 39.292C72.4901 39.943 73.7115 40.454 75 40.8012V45.9951H83V40.8012C84.2881 40.4541 85.5091 39.9433 86.6394 39.2926L90.3129 42.966L95.9697 37.3092L92.2966 33.6361C92.9478 32.5054 93.4589 31.2838 93.8062 29.9951H99V21.9951H93.8064C93.4591 20.7063 92.948 19.4847 92.2968 18.354L95.9697 14.6811L90.3129 9.0242L86.6397 12.6973C85.5094 12.0465 84.2883 11.5357 83 11.1885V5.99512ZM79.0001 34.662C83.7865 34.662 87.6667 30.7818 87.6667 25.9954C87.6667 21.2089 83.7865 17.3287 79.0001 17.3287C74.2136 17.3287 70.3334 21.2089 70.3334 25.9954C70.3334 30.7818 74.2136 34.662 79.0001 34.662Z" fill="#FFB902"/>
<path d="M75 5.99512V3.99512H73V5.99512H75ZM83 5.99512H85V3.99512H83V5.99512ZM75 11.1885L75.5204 13.1196L77 12.7209V11.1885H75ZM71.3592 12.6979L69.945 14.1121L71.0289 15.196L72.3573 14.431L71.3592 12.6979ZM67.6855 9.0242L69.0997 7.60999L67.6855 6.19577L66.2713 7.60999L67.6855 9.0242ZM62.0287 14.6811L60.6144 13.2668L59.2002 14.6811L60.6144 16.0953L62.0287 14.6811ZM65.7025 18.3549L67.4357 19.3529L68.2006 18.0245L67.1167 16.9407L65.7025 18.3549ZM64.1935 21.9951V23.9951H65.7259L66.1246 22.5155L64.1935 21.9951ZM59 21.9951V19.9951H57V21.9951H59ZM59 29.9951H57V31.9951H59V29.9951ZM64.1936 29.9951L66.1247 29.4747L65.726 27.9951H64.1936V29.9951ZM65.7027 33.6351L67.1169 35.0494L68.2008 33.9655L67.4359 32.6371L65.7027 33.6351ZM62.0287 37.3092L60.6144 35.895L59.2002 37.3092L60.6144 38.7234L62.0287 37.3092ZM67.6855 42.966L66.2713 44.3802L67.6855 45.7945L69.0997 44.3802L67.6855 42.966ZM71.3595 39.292L72.3576 37.5588L71.0292 36.7939L69.9453 37.8778L71.3595 39.292ZM75 40.8012H77V39.2689L75.5204 38.8701L75 40.8012ZM75 45.9951H73V47.9951H75V45.9951ZM83 45.9951V47.9951H85V45.9951H83ZM83 40.8012L82.4796 38.8701L81 39.2688V40.8012H83ZM86.6394 39.2926L88.0536 37.8784L86.9698 36.7945L85.6415 37.5593L86.6394 39.2926ZM90.3129 42.966L88.8986 44.3802L90.3129 45.7945L91.7271 44.3802L90.3129 42.966ZM95.9697 37.3092L97.3839 38.7234L98.7981 37.3092L97.3839 35.895L95.9697 37.3092ZM92.2966 33.6361L90.5635 32.638L89.7985 33.9663L90.8824 35.0503L92.2966 33.6361ZM93.8062 29.9951V27.9951H92.2739L91.8751 29.4747L93.8062 29.9951ZM99 29.9951V31.9951H101V29.9951H99ZM99 21.9951H101V19.9951H99V21.9951ZM93.8064 21.9951L91.8753 22.5155L92.274 23.9951H93.8064V21.9951ZM92.2968 18.354L90.8826 16.9397L89.7987 18.0237L90.5637 19.352L92.2968 18.354ZM95.9697 14.6811L97.3839 16.0953L98.7981 14.6811L97.3839 13.2668L95.9697 14.6811ZM90.3129 9.0242L91.7271 7.60999L90.3129 6.19578L88.8986 7.60999L90.3129 9.0242ZM86.6397 12.6973L85.6418 14.4306L86.9701 15.1954L88.0539 14.1116L86.6397 12.6973ZM83 11.1885H81V12.7209L82.4796 13.1196L83 11.1885ZM75 7.99512H83V3.99512H75V7.99512ZM77 11.1885V5.99512H73V11.1885H77ZM72.3573 14.431C73.3402 13.865 74.4014 13.4212 75.5204 13.1196L74.4796 9.25737C73.0213 9.65036 71.6395 10.2286 70.3611 10.9647L72.3573 14.431ZM66.2713 10.4384L69.945 14.1121L72.7734 11.2837L69.0997 7.60999L66.2713 10.4384ZM63.4429 16.0953L69.0997 10.4384L66.2713 7.60999L60.6144 13.2668L63.4429 16.0953ZM67.1167 16.9407L63.4429 13.2668L60.6144 16.0953L64.2883 19.7691L67.1167 16.9407ZM66.1246 22.5155C66.4261 21.3966 66.8699 20.3356 67.4357 19.3529L63.9693 17.3569C63.2333 18.6351 62.6553 20.0167 62.2624 21.4747L66.1246 22.5155ZM59 23.9951H64.1935V19.9951H59V23.9951ZM61 29.9951V21.9951H57V29.9951H61ZM64.1936 27.9951H59V31.9951H64.1936V27.9951ZM67.4359 32.6371C66.87 31.6544 66.4263 30.5935 66.1247 29.4747L62.2625 30.5156C62.6555 31.9735 63.2335 33.355 63.9695 34.6331L67.4359 32.6371ZM63.4429 38.7234L67.1169 35.0494L64.2885 32.2209L60.6144 35.895L63.4429 38.7234ZM69.0997 41.5518L63.4429 35.895L60.6144 38.7234L66.2713 44.3802L69.0997 41.5518ZM69.9453 37.8778L66.2713 41.5518L69.0997 44.3802L72.7737 40.7062L69.9453 37.8778ZM75.5204 38.8701C74.4015 38.5686 73.3404 38.1248 72.3576 37.5588L70.3615 41.0252C71.6398 41.7613 73.0215 42.3394 74.4796 42.7323L75.5204 38.8701ZM77 45.9951V40.8012H73V45.9951H77ZM83 43.9951H75V47.9951H83V43.9951ZM81 40.8012V45.9951H85V40.8012H81ZM85.6415 37.5593C84.6589 38.125 83.5982 38.5686 82.4796 38.8701L83.5204 42.7323C84.9781 42.3395 86.3594 41.7616 87.6373 41.0258L85.6415 37.5593ZM91.7271 41.5518L88.0536 37.8784L85.2252 40.7068L88.8986 44.3802L91.7271 41.5518ZM94.5555 35.895L88.8986 41.5518L91.7271 44.3802L97.3839 38.7234L94.5555 35.895ZM90.8824 35.0503L94.5555 38.7234L97.3839 35.895L93.7108 32.2219L90.8824 35.0503ZM91.8751 29.4747C91.5735 30.5938 91.1296 31.655 90.5635 32.638L94.0298 34.6342C94.766 33.3558 95.3443 31.9739 95.7373 30.5156L91.8751 29.4747ZM99 27.9951H93.8062V31.9951H99V27.9951ZM97 21.9951V29.9951H101V21.9951H97ZM93.8064 23.9951H99V19.9951H93.8064V23.9951ZM90.5637 19.352C91.1297 20.335 91.5737 21.3963 91.8753 22.5155L95.7375 21.4747C95.3445 20.0163 94.7662 18.6344 94.03 17.3559L90.5637 19.352ZM94.5555 13.2668L90.8826 16.9397L93.711 19.7682L97.3839 16.0953L94.5555 13.2668ZM88.8986 10.4384L94.5555 16.0953L97.3839 13.2668L91.7271 7.60999L88.8986 10.4384ZM88.0539 14.1116L91.7271 10.4384L88.8986 7.60999L85.2255 11.2831L88.0539 14.1116ZM82.4796 13.1196C83.5983 13.4211 84.6591 13.8648 85.6418 14.4306L87.6377 10.9641C86.3596 10.2283 84.9782 9.65029 83.5204 9.25741L82.4796 13.1196ZM81 5.99512V11.1885H85V5.99512H81ZM85.6667 25.9954C85.6667 29.6773 82.682 32.662 79.0001 32.662V36.662C84.8911 36.662 89.6667 31.8864 89.6667 25.9954H85.6667ZM79.0001 19.3287C82.682 19.3287 85.6667 22.3135 85.6667 25.9954H89.6667C89.6667 20.1043 84.8911 15.3287 79.0001 15.3287V19.3287ZM72.3334 25.9954C72.3334 22.3135 75.3182 19.3287 79.0001 19.3287V15.3287C73.109 15.3287 68.3334 20.1043 68.3334 25.9954H72.3334ZM79.0001 32.662C75.3182 32.662 72.3334 29.6773 72.3334 25.9954H68.3334C68.3334 31.8864 73.109 36.662 79.0001 36.662V32.662Z" fill="#0F1742" mask="url(#path-166-inside-1_168_770)"/>
<path fill-rule="evenodd" clip-rule="evenodd" d="M78.9999 27.9956V18.6623L74.3333 27.9956H78.9999ZM78.9999 23.9956V33.3289L83.6666 23.9956H78.9999Z" fill="#FFB902"/>
</g>
<defs>
<filter id="filter0_d_168_770" x="23" y="51.9951" width="56" height="67" filterUnits="userSpaceOnUse" color-interpolation-filters="sRGB">
<feFlood flood-opacity="0" result="BackgroundImageFix"/>
<feColorMatrix in="SourceAlpha" type="matrix" values="0 0 0 0 0 0 0 0 0 0 0 0 0 0 0 0 0 0 127 0" result="hardAlpha"/>
<feOffset dy="4"/>
<feGaussianBlur stdDeviation="2"/>
<feComposite in2="hardAlpha" operator="out"/>
<feColorMatrix type="matrix" values="0 0 0 0 0 0 0 0 0 0 0 0 0 0 0 0 0 0 0.25 0"/>
<feBlend mode="normal" in2="BackgroundImageFix" result="effect1_dropShadow_168_770"/>
<feBlend mode="normal" in="SourceGraphic" in2="effect1_dropShadow_168_770" result="shape"/>
</filter>
<filter id="filter1_d_168_770" x="79" y="51.9951" width="56" height="67" filterUnits="userSpaceOnUse" color-interpolation-filters="sRGB">
<feFlood flood-opacity="0" result="BackgroundImageFix"/>
<feColorMatrix in="SourceAlpha" type="matrix" values="0 0 0 0 0 0 0 0 0 0 0 0 0 0 0 0 0 0 127 0" result="hardAlpha"/>
<feOffset dy="4"/>
<feGaussianBlur stdDeviation="2"/>
<feComposite in2="hardAlpha" operator="out"/>
<feColorMatrix type="matrix" values="0 0 0 0 0 0 0 0 0 0 0 0 0 0 0 0 0 0 0.25 0"/>
<feBlend mode="normal" in2="BackgroundImageFix" result="effect1_dropShadow_168_770"/>
<feBlend mode="normal" in="SourceGraphic" in2="effect1_dropShadow_168_770" result="shape"/>
</filter>
<filter id="filter2_d_168_770" x="0" y="112" width="158" height="55.9999" filterUnits="userSpaceOnUse" color-interpolation-filters="sRGB">
<feFlood flood-opacity="0" result="BackgroundImageFix"/>
<feColorMatrix in="SourceAlpha" type="matrix" values="0 0 0 0 0 0 0 0 0 0 0 0 0 0 0 0 0 0 127 0" result="hardAlpha"/>
<feOffset dy="4"/>
<feGaussianBlur stdDeviation="2"/>
<feComposite in2="hardAlpha" operator="out"/>
<feColorMatrix type="matrix" values="0 0 0 0 0 0 0 0 0 0 0 0 0 0 0 0 0 0 0.25 0"/>
<feBlend mode="normal" in2="BackgroundImageFix" result="effect1_dropShadow_168_770"/>
<feBlend mode="normal" in="SourceGraphic" in2="effect1_dropShadow_168_770" result="shape"/>
</filter>
<filter id="filter3_d_168_770" x="93.5" y="-0.00488281" width="64.5" height="67" filterUnits="userSpaceOnUse" color-interpolation-filters="sRGB">
<feFlood flood-opacity="0" result="BackgroundImageFix"/>
<feColorMatrix in="SourceAlpha" type="matrix" values="0 0 0 0 0 0 0 0 0 0 0 0 0 0 0 0 0 0 127 0" result="hardAlpha"/>
<feOffset dy="4"/>
<feGaussianBlur stdDeviation="2"/>
<feComposite in2="hardAlpha" operator="out"/>
<feColorMatrix type="matrix" values="0 0 0 0 0 0 0 0 0 0 0 0 0 0 0 0 0 0 0.25 0"/>
<feBlend mode="normal" in2="BackgroundImageFix" result="effect1_dropShadow_168_770"/>
<feBlend mode="normal" in="SourceGraphic" in2="effect1_dropShadow_168_770" result="shape"/>
</filter>
<filter id="filter4_d_168_770" x="0" y="-0.00488281" width="56" height="67" filterUnits="userSpaceOnUse" color-interpolation-filters="sRGB">
<feFlood flood-opacity="0" result="BackgroundImageFix"/>
<feColorMatrix in="SourceAlpha" type="matrix" values="0 0 0 0 0 0 0 0 0 0 0 0 0 0 0 0 0 0 127 0" result="hardAlpha"/>
<feOffset dy="4"/>
<feGaussianBlur stdDeviation="2"/>
<feComposite in2="hardAlpha" operator="out"/>
<feColorMatrix type="matrix" values="0 0 0 0 0 0 0 0 0 0 0 0 0 0 0 0 0 0 0.25 0"/>
<feBlend mode="normal" in2="BackgroundImageFix" result="effect1_dropShadow_168_770"/>
<feBlend mode="normal" in="SourceGraphic" in2="effect1_dropShadow_168_770" result="shape"/>
</filter>
<filter id="filter5_f_168_770" x="16.1189" y="41.1294" width="22.8223" height="22.3986" filterUnits="userSpaceOnUse" color-interpolation-filters="sRGB">
<feFlood flood-opacity="0" result="BackgroundImageFix"/>
<feBlend mode="normal" in="SourceGraphic" in2="BackgroundImageFix" result="shape"/>
<feGaussianBlur stdDeviation="3.69095" result="effect1_foregroundBlur_168_770"/>
</filter>
<filter id="filter6_f_168_770" x="5.77685" y="30.632" width="27.0606" height="30.1594" filterUnits="userSpaceOnUse" color-interpolation-filters="sRGB">
<feFlood flood-opacity="0" result="BackgroundImageFix"/>
<feBlend mode="normal" in="SourceGraphic" in2="BackgroundImageFix" result="shape"/>
<feGaussianBlur stdDeviation="5.25025" result="effect1_foregroundBlur_168_770"/>
</filter>
<filter id="filter7_d_168_770" x="55" y="5.99512" width="48" height="48" filterUnits="userSpaceOnUse" color-interpolation-filters="sRGB">
<feFlood flood-opacity="0" result="BackgroundImageFix"/>
<feColorMatrix in="SourceAlpha" type="matrix" values="0 0 0 0 0 0 0 0 0 0 0 0 0 0 0 0 0 0 127 0" result="hardAlpha"/>
<feOffset dy="4"/>
<feGaussianBlur stdDeviation="2"/>
<feComposite in2="hardAlpha" operator="out"/>
<feColorMatrix type="matrix" values="0 0 0 0 0 0 0 0 0 0 0 0 0 0 0 0 0 0 0.25 0"/>
<feBlend mode="normal" in2="BackgroundImageFix" result="effect1_dropShadow_168_770"/>
<feBlend mode="normal" in="SourceGraphic" in2="effect1_dropShadow_168_770" result="shape"/>
</filter>
<linearGradient id="paint0_linear_168_770" x1="79" y1="160" x2="79" y2="112" gradientUnits="userSpaceOnUse">
<stop offset="0.325" stop-color="#0F1742"/>
<stop offset="0.5" stop-color="#1D4CB3"/>
<stop offset="0.85" stop-color="#03BFFE"/>
</linearGradient>
<radialGradient id="paint1_radial_168_770" cx="0" cy="0" r="1" gradientUnits="userSpaceOnUse" gradientTransform="translate(19.6364 41.3233) rotate(2.02382) scale(8.2217 11.6584)">
<stop stop-color="#00F1FF"/>
<stop offset="0.333333" stop-color="#03BFFE"/>
<stop offset="0.666667" stop-color="#0066FF"/>
<stop offset="1" stop-color="#1D4CB3"/>
</radialGradient>
<radialGradient id="paint2_radial_168_770" cx="0" cy="0" r="1" gradientUnits="userSpaceOnUse" gradientTransform="translate(29.921 50.4841) rotate(9.8038) scale(6.13635 9.70895)">
<stop stop-color="#D5E5FF"/>
<stop offset="1" stop-color="#D5E5FF" stop-opacity="0"/>
</radialGradient>
</defs>
</svg>
