<svg width="158" height="168" viewBox="0 0 158 168" fill="none" xmlns="http://www.w3.org/2000/svg">
<g filter="url(#filter0_d_168_974)">
<path fill-rule="evenodd" clip-rule="evenodd" d="M30.3036 160L4 128.54L4 80.9661L4 79.0339L4 31.4602L30.3036 0H37.9887L18.7364 31.4602L18.7364 79.0339V80.9661L18.7364 128.54L37.9887 160H30.3036ZM38.862 0L20.4812 31.4602L20.4812 80.9661H20.4815L20.4815 128.54L38.8624 160H46.7059L35.2179 128.54L35.2179 79.0339H35.2175L35.2175 31.4602L46.7056 0H38.862Z" fill="url(#paint0_linear_168_974)"/>
</g>
<g filter="url(#filter1_d_168_974)">
<path fill-rule="evenodd" clip-rule="evenodd" d="M127.696 160L154 128.54L154 80.9661V79.0339V31.4602L127.696 0H120.011L139.264 31.4602L139.264 79.0339V80.9661V128.54L120.011 160H127.696ZM119.138 0L137.519 31.4602L137.519 80.9661H137.518V128.54L119.138 160H111.294L122.782 128.54L122.782 79.0339H122.782L122.782 31.4602L111.294 0H119.138Z" fill="url(#paint1_linear_168_974)"/>
</g>
<g filter="url(#filter2_d_168_974)">
<rect x="57.3333" y="15.0236" width="52.6667" height="64.9767" fill="#F25022" stroke="#1D4CB3" stroke-width="2"/>
<path d="M52.6667 10.8223H105.333V62.113L91.2607 75.799H52.6667V10.8223Z" fill="white" stroke="#1D4CB3" stroke-width="2"/>
<path d="M92 62.915H103.867L92 74.4344V62.915Z" fill="#03BFFE" stroke="#1D4CB3" stroke-width="2"/>
<rect x="53" y="11" width="37" height="45" fill="#FF00E1" stroke="#1D4CB3" stroke-width="2"/>
<rect x="48" y="6.34122" width="36.6667" height="33.969" fill="#FFB902" stroke="#1D4CB3" stroke-width="2"/>
<path d="M68.6666 5.10077C68.6666 3.24031 65.9999 2 62.9999 2C59.3333 2 56.3333 2.89527 56.3333 5.72093C56.3333 7.20775 56.3333 10.8705 56.3333 12.3876C56.3333 13.4874 56.3333 15.8564 56.3333 16.2636" stroke="#1D4CB3" stroke-width="2" stroke-linecap="square"/>
<path d="M69.3333 18.7442C69.3333 15.0165 69.8048 12.5427 65.9024 12.5427C62 12.5427 62 16.3333 62 19.5061" stroke="#1D4CB3" stroke-width="2" stroke-linecap="round"/>
<path d="M69.3333 19.3641C69.3333 22.684 65.9999 24.9455 62.9999 24.9455C59.3333 24.9455 56.3333 21.5696 56.3333 18.744C56.3333 17.2572 56.3333 16.075 56.3333 14.5579C56.3333 13.4581 56.3333 11.0891 56.3333 10.682" stroke="#1D4CB3" stroke-width="2" stroke-linecap="round"/>
<line x1="93" y1="16" x2="102" y2="16" stroke="#1D4CB3" stroke-width="2"/>
<line x1="93" y1="24" x2="102" y2="24" stroke="#1D4CB3" stroke-width="2"/>
<line x1="93" y1="20" x2="102" y2="20" stroke="#1D4CB3" stroke-width="2"/>
<line x1="93" y1="28" x2="102" y2="28" stroke="#1D4CB3" stroke-width="2"/>
<line x1="93" y1="36" x2="102" y2="36" stroke="#1D4CB3" stroke-width="2"/>
<line x1="93" y1="32" x2="102" y2="32" stroke="#1D4CB3" stroke-width="2"/>
<line x1="93" y1="40" x2="102" y2="40" stroke="#1D4CB3" stroke-width="2"/>
<line x1="93" y1="48" x2="102" y2="48" stroke="#1D4CB3" stroke-width="2"/>
<line x1="93" y1="44" x2="102" y2="44" stroke="#1D4CB3" stroke-width="2"/>
<line x1="93" y1="52" x2="102" y2="52" stroke="#1D4CB3" stroke-width="2"/>
<line x1="55.9945" y1="59.5" x2="102.005" y2="59.5" stroke="#1D4CB3" stroke-width="2"/>
<line x1="55.9946" y1="63.5" x2="88.9946" y2="63.5" stroke="#1D4CB3" stroke-width="2"/>
<line x1="55.9946" y1="67.5" x2="88.9946" y2="67.5" stroke="#1D4CB3" stroke-width="2"/>
<line x1="55.9946" y1="71.5" x2="88.9946" y2="71.5" stroke="#1D4CB3" stroke-width="2"/>
<line x1="93" y1="56" x2="102" y2="56" stroke="#1D4CB3" stroke-width="2"/>
</g>
<g filter="url(#filter3_d_168_974)">
<rect x="47" y="113" width="20" height="20" rx="5" fill="#1D4CB3"/>
<rect x="71" y="129" width="4" height="4" rx="1" fill="#1D4CB3"/>
<rect x="77" y="129" width="4" height="4" rx="1" fill="#1D4CB3"/>
<rect x="83" y="129" width="4" height="4" rx="1" fill="#1D4CB3"/>
<rect x="71" y="103" width="4" height="4" rx="1" fill="#1D4CB3"/>
<rect x="77" y="103" width="4" height="4" rx="1" fill="#1D4CB3"/>
<rect x="83" y="103" width="4" height="4" rx="1" fill="#1D4CB3"/>
<rect x="91" y="113" width="20" height="20" rx="5" fill="#1D4CB3"/>
<path d="M58.1209 127V125.74L58.0009 125.464V123.208C58.0009 122.808 57.8769 122.496 57.6289 122.272C57.3889 122.048 57.0169 121.936 56.5129 121.936C56.1689 121.936 55.8289 121.992 55.4929 122.104C55.1649 122.208 54.8849 122.352 54.6529 122.536L53.9809 121.228C54.3329 120.98 54.7569 120.788 55.2529 120.652C55.7489 120.516 56.2529 120.448 56.7649 120.448C57.7489 120.448 58.5129 120.68 59.0569 121.144C59.6009 121.608 59.8729 122.332 59.8729 123.316V127H58.1209ZM56.1529 127.096C55.6489 127.096 55.2169 127.012 54.8569 126.844C54.4969 126.668 54.2209 126.432 54.0289 126.136C53.8369 125.84 53.7409 125.508 53.7409 125.14C53.7409 124.756 53.8329 124.42 54.0169 124.132C54.2089 123.844 54.5089 123.62 54.9169 123.46C55.3249 123.292 55.8569 123.208 56.5129 123.208H58.2289V124.3H56.7169C56.2769 124.3 55.9729 124.372 55.8049 124.516C55.6449 124.66 55.5649 124.84 55.5649 125.056C55.5649 125.296 55.6569 125.488 55.8409 125.632C56.0329 125.768 56.2929 125.836 56.6209 125.836C56.9329 125.836 57.2129 125.764 57.4609 125.62C57.7089 125.468 57.8889 125.248 58.0009 124.96L58.2889 125.824C58.1529 126.24 57.9049 126.556 57.5449 126.772C57.1849 126.988 56.7209 127.096 56.1529 127.096Z" fill="white"/>
<path d="M98.1622 127V125.872L101.978 121.36L102.302 121.984H98.2462V120.544H103.814V121.672L99.9982 126.184L99.6622 125.56H103.922V127H98.1622Z" fill="white"/>
</g>
<g filter="url(#filter4_d_168_974)">
<rect x="47" y="138" width="20" height="20" rx="5" fill="#1D4CB3"/>
<rect x="71" y="154" width="4" height="4" rx="1" fill="#1D4CB3"/>
<rect x="77" y="154" width="4" height="4" rx="1" fill="#1D4CB3"/>
<rect x="83" y="154" width="4" height="4" rx="1" fill="#1D4CB3"/>
<rect x="91" y="138" width="20" height="20" rx="5" fill="#1D4CB3"/>
<path d="M52.9235 152.144C52.2355 152.144 51.6195 151.976 51.0755 151.64C50.5315 151.296 50.1035 150.8 49.7915 150.152C49.4795 149.504 49.3235 148.72 49.3235 147.8C49.3235 146.88 49.4795 146.096 49.7915 145.448C50.1035 144.8 50.5315 144.308 51.0755 143.972C51.6195 143.628 52.2355 143.456 52.9235 143.456C53.6195 143.456 54.2355 143.628 54.7715 143.972C55.3155 144.308 55.7435 144.8 56.0555 145.448C56.3675 146.096 56.5235 146.88 56.5235 147.8C56.5235 148.72 56.3675 149.504 56.0555 150.152C55.7435 150.8 55.3155 151.296 54.7715 151.64C54.2355 151.976 53.6195 152.144 52.9235 152.144ZM52.9235 150.5C53.2515 150.5 53.5355 150.408 53.7755 150.224C54.0235 150.04 54.2155 149.748 54.3515 149.348C54.4955 148.948 54.5675 148.432 54.5675 147.8C54.5675 147.168 54.4955 146.652 54.3515 146.252C54.2155 145.852 54.0235 145.56 53.7755 145.376C53.5355 145.192 53.2515 145.1 52.9235 145.1C52.6035 145.1 52.3195 145.192 52.0715 145.376C51.8315 145.56 51.6395 145.852 51.4955 146.252C51.3595 146.652 51.2915 147.168 51.2915 147.8C51.2915 148.432 51.3595 148.948 51.4955 149.348C51.6395 149.748 51.8315 150.04 52.0715 150.224C52.3195 150.408 52.6035 150.5 52.9235 150.5ZM61.068 152.144C60.38 152.144 59.764 151.976 59.22 151.64C58.676 151.296 58.248 150.8 57.936 150.152C57.624 149.504 57.468 148.72 57.468 147.8C57.468 146.88 57.624 146.096 57.936 145.448C58.248 144.8 58.676 144.308 59.22 143.972C59.764 143.628 60.38 143.456 61.068 143.456C61.764 143.456 62.38 143.628 62.916 143.972C63.46 144.308 63.888 144.8 64.2 145.448C64.512 146.096 64.668 146.88 64.668 147.8C64.668 148.72 64.512 149.504 64.2 150.152C63.888 150.8 63.46 151.296 62.916 151.64C62.38 151.976 61.764 152.144 61.068 152.144ZM61.068 150.5C61.396 150.5 61.68 150.408 61.92 150.224C62.168 150.04 62.36 149.748 62.496 149.348C62.64 148.948 62.712 148.432 62.712 147.8C62.712 147.168 62.64 146.652 62.496 146.252C62.36 145.852 62.168 145.56 61.92 145.376C61.68 145.192 61.396 145.1 61.068 145.1C60.748 145.1 60.464 145.192 60.216 145.376C59.976 145.56 59.784 145.852 59.64 146.252C59.504 146.652 59.436 147.168 59.436 147.8C59.436 148.432 59.504 148.948 59.64 149.348C59.784 149.748 59.976 150.04 60.216 150.224C60.464 150.408 60.748 150.5 61.068 150.5Z" fill="white"/>
<path d="M93.3656 152V144.32L94.2056 145.16H91.6856V143.6H95.3096V152H93.3656ZM98.0648 152V144.32L98.9048 145.16H96.3848V143.6H100.009V152H98.0648ZM102.764 152V144.32L103.604 145.16H101.084V143.6H104.708V152H102.764ZM107.463 152V144.32L108.303 145.16H105.783V143.6H109.407V152H107.463Z" fill="white"/>
</g>
<g filter="url(#filter5_d_168_974)">
<rect x="47" y="87" width="20" height="20" rx="5" fill="#1D4CB3"/>
<rect x="91" y="87" width="20" height="20" rx="5" fill="#1D4CB3"/>
<path d="M57.0135 101.144C56.3495 101.144 55.7335 101.036 55.1655 100.82C54.6055 100.604 54.1175 100.3 53.7015 99.908C53.2935 99.516 52.9735 99.056 52.7415 98.528C52.5175 98 52.4055 97.424 52.4055 96.8C52.4055 96.176 52.5175 95.6 52.7415 95.072C52.9735 94.544 53.2975 94.084 53.7135 93.692C54.1295 93.3 54.6175 92.996 55.1775 92.78C55.7375 92.564 56.3455 92.456 57.0015 92.456C57.6655 92.456 58.2735 92.564 58.8255 92.78C59.3855 92.996 59.8695 93.3 60.2775 93.692C60.6935 94.084 61.0175 94.544 61.2495 95.072C61.4815 95.592 61.5975 96.168 61.5975 96.8C61.5975 97.424 61.4815 98.004 61.2495 98.54C61.0175 99.068 60.6935 99.528 60.2775 99.92C59.8695 100.304 59.3855 100.604 58.8255 100.82C58.2735 101.036 57.6695 101.144 57.0135 101.144ZM57.0015 99.488C57.3775 99.488 57.7215 99.424 58.0335 99.296C58.3535 99.168 58.6335 98.984 58.8735 98.744C59.1135 98.504 59.2975 98.22 59.4255 97.892C59.5615 97.564 59.6295 97.2 59.6295 96.8C59.6295 96.4 59.5615 96.036 59.4255 95.708C59.2975 95.38 59.1135 95.096 58.8735 94.856C58.6415 94.616 58.3655 94.432 58.0455 94.304C57.7255 94.176 57.3775 94.112 57.0015 94.112C56.6255 94.112 56.2775 94.176 55.9575 94.304C55.6455 94.432 55.3695 94.616 55.1295 94.856C54.8895 95.096 54.7015 95.38 54.5655 95.708C54.4375 96.036 54.3735 96.4 54.3735 96.8C54.3735 97.192 54.4375 97.556 54.5655 97.892C54.7015 98.22 54.8855 98.504 55.1175 98.744C55.3575 98.984 55.6375 99.168 55.9575 99.296C56.2775 99.424 56.6255 99.488 57.0015 99.488ZM52.7895 101.84L59.9655 91.76H61.2255L54.0495 101.84H52.7895Z" fill="white"/>
<path d="M103.636 99.344C103.18 99.344 102.784 99.276 102.448 99.14C102.12 99.004 101.832 98.824 101.584 98.6C101.344 98.376 101.132 98.132 100.948 97.868C100.764 97.604 100.588 97.34 100.42 97.076C100.26 96.804 100.092 96.556 99.916 96.332C99.74 96.108 99.54 95.932 99.316 95.804C99.092 95.668 98.824 95.6 98.512 95.6C98.28 95.6 98.072 95.656 97.888 95.768C97.704 95.872 97.56 96.012 97.456 96.188C97.352 96.364 97.3 96.568 97.3 96.8C97.3 97.024 97.352 97.228 97.456 97.412C97.56 97.588 97.704 97.732 97.888 97.844C98.072 97.948 98.28 98 98.512 98C98.824 98 99.092 97.936 99.316 97.808C99.54 97.672 99.74 97.492 99.916 97.268C100.092 97.044 100.26 96.8 100.42 96.536C100.588 96.272 100.764 96.008 100.948 95.744C101.132 95.472 101.344 95.224 101.584 95C101.832 94.776 102.12 94.596 102.448 94.46C102.784 94.324 103.18 94.256 103.636 94.256C104.124 94.256 104.56 94.368 104.944 94.592C105.328 94.808 105.632 95.108 105.856 95.492C106.08 95.868 106.192 96.3 106.192 96.788C106.192 97.276 106.08 97.712 105.856 98.096C105.632 98.48 105.328 98.784 104.944 99.008C104.56 99.232 104.124 99.344 103.636 99.344ZM98.38 99.344C97.892 99.344 97.452 99.232 97.06 99.008C96.676 98.784 96.368 98.48 96.136 98.096C95.912 97.712 95.8 97.28 95.8 96.8C95.8 96.312 95.912 95.876 96.136 95.492C96.368 95.108 96.676 94.808 97.06 94.592C97.452 94.368 97.892 94.256 98.38 94.256C98.844 94.256 99.24 94.324 99.568 94.46C99.904 94.596 100.192 94.776 100.432 95C100.672 95.224 100.884 95.468 101.068 95.732C101.252 95.996 101.424 96.264 101.584 96.536C101.744 96.8 101.912 97.044 102.088 97.268C102.264 97.492 102.464 97.672 102.688 97.808C102.912 97.936 103.18 98 103.492 98C103.724 98 103.932 97.948 104.116 97.844C104.3 97.732 104.444 97.588 104.548 97.412C104.652 97.228 104.704 97.02 104.704 96.788C104.704 96.564 104.652 96.364 104.548 96.188C104.444 96.004 104.3 95.86 104.116 95.756C103.932 95.652 103.724 95.6 103.492 95.6C103.18 95.6 102.912 95.668 102.688 95.804C102.464 95.932 102.264 96.108 102.088 96.332C101.912 96.556 101.744 96.8 101.584 97.064C101.424 97.328 101.252 97.596 101.068 97.868C100.884 98.132 100.672 98.376 100.432 98.6C100.192 98.824 99.904 99.004 99.568 99.14C99.24 99.276 98.844 99.344 98.38 99.344Z" fill="white"/>
</g>
<defs>
<filter id="filter0_d_168_974" x="0" y="0" width="50.7059" height="168" filterUnits="userSpaceOnUse" color-interpolation-filters="sRGB">
<feFlood flood-opacity="0" result="BackgroundImageFix"/>
<feColorMatrix in="SourceAlpha" type="matrix" values="0 0 0 0 0 0 0 0 0 0 0 0 0 0 0 0 0 0 127 0" result="hardAlpha"/>
<feOffset dy="4"/>
<feGaussianBlur stdDeviation="2"/>
<feComposite in2="hardAlpha" operator="out"/>
<feColorMatrix type="matrix" values="0 0 0 0 0 0 0 0 0 0 0 0 0 0 0 0 0 0 0.25 0"/>
<feBlend mode="normal" in2="BackgroundImageFix" result="effect1_dropShadow_168_974"/>
<feBlend mode="normal" in="SourceGraphic" in2="effect1_dropShadow_168_974" result="shape"/>
</filter>
<filter id="filter1_d_168_974" x="107.294" y="0" width="50.7059" height="168" filterUnits="userSpaceOnUse" color-interpolation-filters="sRGB">
<feFlood flood-opacity="0" result="BackgroundImageFix"/>
<feColorMatrix in="SourceAlpha" type="matrix" values="0 0 0 0 0 0 0 0 0 0 0 0 0 0 0 0 0 0 127 0" result="hardAlpha"/>
<feOffset dy="4"/>
<feGaussianBlur stdDeviation="2"/>
<feComposite in2="hardAlpha" operator="out"/>
<feColorMatrix type="matrix" values="0 0 0 0 0 0 0 0 0 0 0 0 0 0 0 0 0 0 0.25 0"/>
<feBlend mode="normal" in2="BackgroundImageFix" result="effect1_dropShadow_168_974"/>
<feBlend mode="normal" in="SourceGraphic" in2="effect1_dropShadow_168_974" result="shape"/>
</filter>
<filter id="filter2_d_168_974" x="43" y="1" width="71.9999" height="88.0004" filterUnits="userSpaceOnUse" color-interpolation-filters="sRGB">
<feFlood flood-opacity="0" result="BackgroundImageFix"/>
<feColorMatrix in="SourceAlpha" type="matrix" values="0 0 0 0 0 0 0 0 0 0 0 0 0 0 0 0 0 0 127 0" result="hardAlpha"/>
<feOffset dy="4"/>
<feGaussianBlur stdDeviation="2"/>
<feComposite in2="hardAlpha" operator="out"/>
<feColorMatrix type="matrix" values="0 0 0 0 0 0 0 0 0 0 0 0 0 0 0 0 0 0 0.25 0"/>
<feBlend mode="normal" in2="BackgroundImageFix" result="effect1_dropShadow_168_974"/>
<feBlend mode="normal" in="SourceGraphic" in2="effect1_dropShadow_168_974" result="shape"/>
</filter>
<filter id="filter3_d_168_974" x="43" y="103" width="72" height="38" filterUnits="userSpaceOnUse" color-interpolation-filters="sRGB">
<feFlood flood-opacity="0" result="BackgroundImageFix"/>
<feColorMatrix in="SourceAlpha" type="matrix" values="0 0 0 0 0 0 0 0 0 0 0 0 0 0 0 0 0 0 127 0" result="hardAlpha"/>
<feOffset dy="4"/>
<feGaussianBlur stdDeviation="2"/>
<feComposite in2="hardAlpha" operator="out"/>
<feColorMatrix type="matrix" values="0 0 0 0 0 0 0 0 0 0 0 0 0 0 0 0 0 0 0.25 0"/>
<feBlend mode="normal" in2="BackgroundImageFix" result="effect1_dropShadow_168_974"/>
<feBlend mode="normal" in="SourceGraphic" in2="effect1_dropShadow_168_974" result="shape"/>
</filter>
<filter id="filter4_d_168_974" x="43" y="138" width="72" height="28" filterUnits="userSpaceOnUse" color-interpolation-filters="sRGB">
<feFlood flood-opacity="0" result="BackgroundImageFix"/>
<feColorMatrix in="SourceAlpha" type="matrix" values="0 0 0 0 0 0 0 0 0 0 0 0 0 0 0 0 0 0 127 0" result="hardAlpha"/>
<feOffset dy="4"/>
<feGaussianBlur stdDeviation="2"/>
<feComposite in2="hardAlpha" operator="out"/>
<feColorMatrix type="matrix" values="0 0 0 0 0 0 0 0 0 0 0 0 0 0 0 0 0 0 0.25 0"/>
<feBlend mode="normal" in2="BackgroundImageFix" result="effect1_dropShadow_168_974"/>
<feBlend mode="normal" in="SourceGraphic" in2="effect1_dropShadow_168_974" result="shape"/>
</filter>
<filter id="filter5_d_168_974" x="43" y="87" width="72" height="28" filterUnits="userSpaceOnUse" color-interpolation-filters="sRGB">
<feFlood flood-opacity="0" result="BackgroundImageFix"/>
<feColorMatrix in="SourceAlpha" type="matrix" values="0 0 0 0 0 0 0 0 0 0 0 0 0 0 0 0 0 0 127 0" result="hardAlpha"/>
<feOffset dy="4"/>
<feGaussianBlur stdDeviation="2"/>
<feComposite in2="hardAlpha" operator="out"/>
<feColorMatrix type="matrix" values="0 0 0 0 0 0 0 0 0 0 0 0 0 0 0 0 0 0 0.25 0"/>
<feBlend mode="normal" in2="BackgroundImageFix" result="effect1_dropShadow_168_974"/>
<feBlend mode="normal" in="SourceGraphic" in2="effect1_dropShadow_168_974" result="shape"/>
</filter>
<linearGradient id="paint0_linear_168_974" x1="4" y1="80" x2="46.706" y2="80" gradientUnits="userSpaceOnUse">
<stop offset="0.15" stop-color="#03BFFE"/>
<stop offset="0.5" stop-color="#1D4CB3"/>
<stop offset="0.675" stop-color="#0F1742"/>
</linearGradient>
<linearGradient id="paint1_linear_168_974" x1="154" y1="80" x2="111.294" y2="80" gradientUnits="userSpaceOnUse">
<stop offset="0.15" stop-color="#03BFFE"/>
<stop offset="0.5" stop-color="#1D4CB3"/>
<stop offset="0.675" stop-color="#0F1742"/>
</linearGradient>
</defs>
</svg>
