<svg width="202" height="70" viewBox="0 0 202 70" fill="none" xmlns="http://www.w3.org/2000/svg">
<g filter="url(#filter0_dd_202_2136)">
<rect x="11" y="7" width="180" height="48" rx="24" fill="#FFB902"/>
</g>
<path d="M27.4764 30.3H34.1964V32.9H27.4764V30.3ZM27.7164 38H24.4764V24H35.0564V26.6H27.7164V38ZM36.8345 38V27.24H39.8145V30.28L39.3945 29.4C39.7145 28.64 40.2279 28.0667 40.9345 27.68C41.6412 27.28 42.5012 27.08 43.5145 27.08V29.96C43.3812 29.9467 43.2612 29.94 43.1545 29.94C43.0479 29.9267 42.9345 29.92 42.8145 29.92C41.9612 29.92 41.2679 30.1667 40.7345 30.66C40.2145 31.14 39.9545 31.8933 39.9545 32.92V38H36.8345ZM50.6316 38.16C49.4049 38.16 48.3249 37.92 47.3916 37.44C46.4716 36.96 45.7582 36.3067 45.2516 35.48C44.7449 34.64 44.4916 33.6867 44.4916 32.62C44.4916 31.54 44.7382 30.5867 45.2316 29.76C45.7382 28.92 46.4249 28.2667 47.2916 27.8C48.1582 27.32 49.1382 27.08 50.2316 27.08C51.2849 27.08 52.2316 27.3067 53.0716 27.76C53.9249 28.2 54.5982 28.84 55.0916 29.68C55.5849 30.5067 55.8316 31.5 55.8316 32.66C55.8316 32.78 55.8249 32.92 55.8116 33.08C55.7982 33.2267 55.7849 33.3667 55.7716 33.5H47.0316V31.68H54.1316L52.9316 32.22C52.9316 31.66 52.8182 31.1733 52.5916 30.76C52.3649 30.3467 52.0516 30.0267 51.6516 29.8C51.2516 29.56 50.7849 29.44 50.2516 29.44C49.7182 29.44 49.2449 29.56 48.8316 29.8C48.4316 30.0267 48.1182 30.3533 47.8916 30.78C47.6649 31.1933 47.5516 31.6867 47.5516 32.26V32.74C47.5516 33.3267 47.6782 33.8467 47.9316 34.3C48.1982 34.74 48.5649 35.08 49.0316 35.32C49.5116 35.5467 50.0716 35.66 50.7116 35.66C51.2849 35.66 51.7849 35.5733 52.2116 35.4C52.6516 35.2267 53.0516 34.9667 53.4116 34.62L55.0716 36.42C54.5782 36.98 53.9582 37.4133 53.2116 37.72C52.4649 38.0133 51.6049 38.16 50.6316 38.16ZM63.2488 38.16C62.0221 38.16 60.9421 37.92 60.0088 37.44C59.0888 36.96 58.3754 36.3067 57.8688 35.48C57.3621 34.64 57.1088 33.6867 57.1088 32.62C57.1088 31.54 57.3554 30.5867 57.8488 29.76C58.3554 28.92 59.0421 28.2667 59.9088 27.8C60.7754 27.32 61.7554 27.08 62.8488 27.08C63.9021 27.08 64.8488 27.3067 65.6888 27.76C66.5421 28.2 67.2154 28.84 67.7088 29.68C68.2021 30.5067 68.4488 31.5 68.4488 32.66C68.4488 32.78 68.4421 32.92 68.4288 33.08C68.4154 33.2267 68.4021 33.3667 68.3888 33.5H59.6488V31.68H66.7487L65.5488 32.22C65.5488 31.66 65.4354 31.1733 65.2088 30.76C64.9821 30.3467 64.6688 30.0267 64.2688 29.8C63.8688 29.56 63.4021 29.44 62.8688 29.44C62.3354 29.44 61.8621 29.56 61.4488 29.8C61.0488 30.0267 60.7354 30.3533 60.5088 30.78C60.2821 31.1933 60.1688 31.6867 60.1688 32.26V32.74C60.1688 33.3267 60.2954 33.8467 60.5488 34.3C60.8154 34.74 61.1821 35.08 61.6488 35.32C62.1288 35.5467 62.6888 35.66 63.3288 35.66C63.9021 35.66 64.4021 35.5733 64.8288 35.4C65.2688 35.2267 65.6688 34.9667 66.0288 34.62L67.6888 36.42C67.1954 36.98 66.5754 37.4133 65.8288 37.72C65.0821 38.0133 64.2221 38.16 63.2488 38.16ZM80.81 38.16C79.7967 38.16 78.8833 37.9333 78.07 37.48C77.2567 37.0133 76.61 36.3667 76.13 35.54C75.6633 34.7133 75.43 33.74 75.43 32.62C75.43 31.4867 75.6633 30.5067 76.13 29.68C76.61 28.8533 77.2567 28.2133 78.07 27.76C78.8833 27.3067 79.7967 27.08 80.81 27.08C81.7167 27.08 82.51 27.28 83.19 27.68C83.87 28.08 84.3967 28.6867 84.77 29.5C85.1433 30.3133 85.33 31.3533 85.33 32.62C85.33 33.8733 85.15 34.9133 84.79 35.74C84.43 36.5533 83.91 37.16 83.23 37.56C82.5633 37.96 81.7567 38.16 80.81 38.16ZM81.35 35.6C81.8567 35.6 82.3167 35.48 82.73 35.24C83.1433 35 83.47 34.66 83.71 34.22C83.9633 33.7667 84.09 33.2333 84.09 32.62C84.09 31.9933 83.9633 31.46 83.71 31.02C83.47 30.58 83.1433 30.24 82.73 30C82.3167 29.76 81.8567 29.64 81.35 29.64C80.83 29.64 80.3633 29.76 79.95 30C79.5367 30.24 79.2033 30.58 78.95 31.02C78.71 31.46 78.59 31.9933 78.59 32.62C78.59 33.2333 78.71 33.7667 78.95 34.22C79.2033 34.66 79.5367 35 79.95 35.24C80.3633 35.48 80.83 35.6 81.35 35.6ZM84.17 38V35.8L84.23 32.6L84.03 29.42V23.16H87.15V38H84.17ZM95.1577 38.16C94.011 38.16 92.991 37.92 92.0977 37.44C91.2177 36.96 90.5177 36.3067 89.9977 35.48C89.491 34.64 89.2377 33.6867 89.2377 32.62C89.2377 31.54 89.491 30.5867 89.9977 29.76C90.5177 28.92 91.2177 28.2667 92.0977 27.8C92.991 27.32 94.011 27.08 95.1577 27.08C96.291 27.08 97.3043 27.32 98.1977 27.8C99.091 28.2667 99.791 28.9133 100.298 29.74C100.804 30.5667 101.058 31.5267 101.058 32.62C101.058 33.6867 100.804 34.64 100.298 35.48C99.791 36.3067 99.091 36.96 98.1977 37.44C97.3043 37.92 96.291 38.16 95.1577 38.16ZM95.1577 35.6C95.6777 35.6 96.1443 35.48 96.5577 35.24C96.971 35 97.2977 34.66 97.5377 34.22C97.7777 33.7667 97.8977 33.2333 97.8977 32.62C97.8977 31.9933 97.7777 31.46 97.5377 31.02C97.2977 30.58 96.971 30.24 96.5577 30C96.1443 29.76 95.6777 29.64 95.1577 29.64C94.6377 29.64 94.171 29.76 93.7577 30C93.3443 30.24 93.011 30.58 92.7577 31.02C92.5177 31.46 92.3977 31.9933 92.3977 32.62C92.3977 33.2333 92.5177 33.7667 92.7577 34.22C93.011 34.66 93.3443 35 93.7577 35.24C94.171 35.48 94.6377 35.6 95.1577 35.6ZM105.31 38L101.43 27.24H104.37L107.59 36.5H106.19L109.55 27.24H112.19L115.45 36.5H114.05L117.37 27.24H120.13L116.23 38H113.21L110.35 30.06H111.27L108.31 38H105.31ZM128.121 27.08C128.974 27.08 129.734 27.2533 130.401 27.6C131.081 27.9333 131.614 28.4533 132.001 29.16C132.387 29.8533 132.581 30.7467 132.581 31.84V38H129.461V32.32C129.461 31.4533 129.267 30.8133 128.881 30.4C128.507 29.9867 127.974 29.78 127.281 29.78C126.787 29.78 126.341 29.8867 125.941 30.1C125.554 30.3 125.247 30.6133 125.021 31.04C124.807 31.4667 124.701 32.0133 124.701 32.68V38H121.581V27.24H124.561V30.22L124.001 29.32C124.387 28.6 124.941 28.0467 125.661 27.66C126.381 27.2733 127.201 27.08 128.121 27.08ZM135.409 38V23.16H138.529V38H135.409ZM146.544 38.16C145.398 38.16 144.378 37.92 143.484 37.44C142.604 36.96 141.904 36.3067 141.384 35.48C140.878 34.64 140.624 33.6867 140.624 32.62C140.624 31.54 140.878 30.5867 141.384 29.76C141.904 28.92 142.604 28.2667 143.484 27.8C144.378 27.32 145.398 27.08 146.544 27.08C147.678 27.08 148.691 27.32 149.584 27.8C150.478 28.2667 151.178 28.9133 151.684 29.74C152.191 30.5667 152.444 31.5267 152.444 32.62C152.444 33.6867 152.191 34.64 151.684 35.48C151.178 36.3067 150.478 36.96 149.584 37.44C148.691 37.92 147.678 38.16 146.544 38.16ZM146.544 35.6C147.064 35.6 147.531 35.48 147.944 35.24C148.358 35 148.684 34.66 148.924 34.22C149.164 33.7667 149.284 33.2333 149.284 32.62C149.284 31.9933 149.164 31.46 148.924 31.02C148.684 30.58 148.358 30.24 147.944 30C147.531 29.76 147.064 29.64 146.544 29.64C146.024 29.64 145.558 29.76 145.144 30C144.731 30.24 144.398 30.58 144.144 31.02C143.904 31.46 143.784 31.9933 143.784 32.62C143.784 33.2333 143.904 33.7667 144.144 34.22C144.398 34.66 144.731 35 145.144 35.24C145.558 35.48 146.024 35.6 146.544 35.6ZM160.954 38V35.9L160.754 35.44V31.68C160.754 31.0133 160.547 30.4933 160.134 30.12C159.734 29.7467 159.114 29.56 158.274 29.56C157.701 29.56 157.134 29.6533 156.574 29.84C156.027 30.0133 155.561 30.2533 155.174 30.56L154.054 28.38C154.641 27.9667 155.347 27.6467 156.174 27.42C157.001 27.1933 157.841 27.08 158.694 27.08C160.334 27.08 161.607 27.4667 162.514 28.24C163.421 29.0133 163.874 30.22 163.874 31.86V38H160.954ZM157.674 38.16C156.834 38.16 156.114 38.02 155.514 37.74C154.914 37.4467 154.454 37.0533 154.134 36.56C153.814 36.0667 153.654 35.5133 153.654 34.9C153.654 34.26 153.807 33.7 154.114 33.22C154.434 32.74 154.934 32.3667 155.614 32.1C156.294 31.82 157.181 31.68 158.274 31.68H161.134V33.5H158.614C157.881 33.5 157.374 33.62 157.094 33.86C156.827 34.1 156.694 34.4 156.694 34.76C156.694 35.16 156.847 35.48 157.154 35.72C157.474 35.9467 157.907 36.06 158.454 36.06C158.974 36.06 159.441 35.94 159.854 35.7C160.267 35.4467 160.567 35.08 160.754 34.6L161.234 36.04C161.007 36.7333 160.594 37.26 159.994 37.62C159.394 37.98 158.621 38.16 157.674 38.16ZM171.396 38.16C170.383 38.16 169.469 37.9333 168.656 37.48C167.843 37.0133 167.196 36.3667 166.716 35.54C166.249 34.7133 166.016 33.74 166.016 32.62C166.016 31.4867 166.249 30.5067 166.716 29.68C167.196 28.8533 167.843 28.2133 168.656 27.76C169.469 27.3067 170.383 27.08 171.396 27.08C172.303 27.08 173.096 27.28 173.776 27.68C174.456 28.08 174.983 28.6867 175.356 29.5C175.729 30.3133 175.916 31.3533 175.916 32.62C175.916 33.8733 175.736 34.9133 175.376 35.74C175.016 36.5533 174.496 37.16 173.816 37.56C173.149 37.96 172.343 38.16 171.396 38.16ZM171.936 35.6C172.443 35.6 172.903 35.48 173.316 35.24C173.729 35 174.056 34.66 174.296 34.22C174.549 33.7667 174.676 33.2333 174.676 32.62C174.676 31.9933 174.549 31.46 174.296 31.02C174.056 30.58 173.729 30.24 173.316 30C172.903 29.76 172.443 29.64 171.936 29.64C171.416 29.64 170.949 29.76 170.536 30C170.123 30.24 169.789 30.58 169.536 31.02C169.296 31.46 169.176 31.9933 169.176 32.62C169.176 33.2333 169.296 33.7667 169.536 34.22C169.789 34.66 170.123 35 170.536 35.24C170.949 35.48 171.416 35.6 171.936 35.6ZM174.756 38V35.8L174.816 32.6L174.616 29.42V23.16H177.736V38H174.756Z" fill="black"/>
<defs>
<filter id="filter0_dd_202_2136" x="0" y="0" width="202" height="70" filterUnits="userSpaceOnUse" color-interpolation-filters="sRGB">
<feFlood flood-opacity="0" result="BackgroundImageFix"/>
<feColorMatrix in="SourceAlpha" type="matrix" values="0 0 0 0 0 0 0 0 0 0 0 0 0 0 0 0 0 0 127 0" result="hardAlpha"/>
<feOffset dy="1"/>
<feGaussianBlur stdDeviation="1.5"/>
<feColorMatrix type="matrix" values="0 0 0 0 0 0 0 0 0 0 0 0 0 0 0 0 0 0 0.3 0"/>
<feBlend mode="normal" in2="BackgroundImageFix" result="effect1_dropShadow_202_2136"/>
<feColorMatrix in="SourceAlpha" type="matrix" values="0 0 0 0 0 0 0 0 0 0 0 0 0 0 0 0 0 0 127 0" result="hardAlpha"/>
<feMorphology radius="3" operator="dilate" in="SourceAlpha" result="effect2_dropShadow_202_2136"/>
<feOffset dy="4"/>
<feGaussianBlur stdDeviation="4"/>
<feColorMatrix type="matrix" values="0 0 0 0 0 0 0 0 0 0 0 0 0 0 0 0 0 0 0.15 0"/>
<feBlend mode="normal" in2="effect1_dropShadow_202_2136" result="effect2_dropShadow_202_2136"/>
<feBlend mode="normal" in="SourceGraphic" in2="effect2_dropShadow_202_2136" result="shape"/>
</filter>
</defs>
</svg>
