<svg width="158" height="168" viewBox="0 0 158 168" fill="none" xmlns="http://www.w3.org/2000/svg">
<path d="M51 51H73V61" stroke="#FFB902" stroke-width="2"/>
<path d="M52 42H88" stroke="#FFB902" stroke-width="2"/>
<path d="M89 116L108.583 94.2998" stroke="#DC01C3" stroke-width="2"/>
<path d="M87 96L132.712 45.3465" stroke="#DC01C3" stroke-width="2"/>
<path d="M58 122L12.2883 71.3465" stroke="#0F1742" stroke-width="2"/>
<path d="M76 114L39 73" stroke="#0F1742" stroke-width="2"/>
<g filter="url(#filter0_d_168_666)">
<path fill-rule="evenodd" clip-rule="evenodd" d="M76.8957 96.6186H76V117.268V117.385H76.0092C76.217 118.711 79.939 119.768 84.5 119.768C89.061 119.768 92.783 118.711 92.9908 117.385H93V117.268V96.6186H92.1043C90.7088 97.4379 87.8277 98.0004 84.5 98.0004C81.1723 98.0004 78.2912 97.4379 76.8957 96.6186Z" fill="url(#paint0_linear_168_666)"/>
<ellipse cx="84.5" cy="96.5" rx="8.5" ry="2.5" fill="#FFB902"/>
</g>
<g filter="url(#filter1_d_168_666)">
<circle cx="93" cy="46" r="10" fill="#03BFFE"/>
<path d="M91.3448 45.312H96.7368V47.328H91.3448V45.312ZM91.5368 49.92H97.6328V52H88.9608V40.8H97.4248V42.88H91.5368V49.92Z" fill="white"/>
</g>
<g filter="url(#filter2_d_168_666)">
<circle cx="56" cy="92" r="10" fill="#FF00E1"/>
<path d="M54.7027 98V88.912H51.1187V86.8H60.8787V88.912H57.2947V98H54.7027Z" fill="white"/>
</g>
<g filter="url(#filter3_d_168_666)">
<circle cx="29" cy="92" r="10" fill="#FFB902"/>
<path d="M27.7137 96.62V87.38H30.2937V96.62H27.7137ZM24.2537 93.22V90.78H33.7737V93.22H24.2537Z" fill="white"/>
</g>
<g filter="url(#filter4_d_168_666)">
<path fill-rule="evenodd" clip-rule="evenodd" d="M12 39H52V79H36.5H12V73.3363V39ZM36 63H44V71H36V63ZM28 63H20V71H28V63ZM36 47H44V55H36V47ZM28 47H20V55H28V47Z" fill="url(#paint1_linear_168_666)"/>
</g>
<g filter="url(#filter5_d_168_666)">
<path fill-rule="evenodd" clip-rule="evenodd" d="M146 79H106V131H122V119H130V131H146V79ZM137.111 87H130V95H137.111V87ZM114 87H121.111V95H114V87ZM137.111 103H130V111H137.111V103ZM114 103H121.111V111H114V103Z" fill="url(#paint2_linear_168_666)"/>
</g>
<g filter="url(#filter6_d_168_666)">
<path fill-rule="evenodd" clip-rule="evenodd" d="M154 135.408L124.506 160H79.9057H78.0943H33.4939L4 135.408V128.223L33.4939 146.223H78.0943H79.9057H124.506L154 128.223V135.408ZM4 127.406L33.4939 144.591H79.9057V144.591H124.506L154 127.406V120.073L124.506 130.813H78.0943V130.813H33.4939L4 120.073V127.406Z" fill="url(#paint3_linear_168_666)"/>
</g>
<g filter="url(#filter7_d_168_666)">
<path fill-rule="evenodd" clip-rule="evenodd" d="M154 24.5921L124.506 0H79.9057H78.0943H33.4939L4 24.5921V31.7771L33.4939 13.7775H78.0943H79.9057H124.506L154 31.7771V24.5921ZM4 32.5941L33.4939 15.4092H79.9057V15.4094H124.506L154 32.5943V39.9274L124.506 29.1869H78.0943V29.1867H33.4939L4 39.9273V32.5941Z" fill="url(#paint4_linear_168_666)"/>
</g>
<g filter="url(#filter8_d_168_666)">
<circle cx="130" cy="46" r="10" fill="#1D4CB3"/>
<path d="M123.687 52V40.8H125.831L130.599 48.704H129.463L134.151 40.8H136.279L136.311 52H133.879L133.863 44.528H134.311L130.567 50.816H129.399L125.575 44.528H126.119V52H123.687Z" fill="white"/>
</g>
<g filter="url(#filter9_d_168_666)">
<circle cx="73" cy="69" r="10" fill="#F25022"/>
<path d="M69.4999 75V63.8H72.0919V72.888H77.7079V75H69.4999Z" fill="white"/>
</g>
<g filter="url(#filter10_d_168_666)">
<ellipse cx="73" cy="107.583" rx="17" ry="2.58333" fill="#FFB902"/>
<path fill-rule="evenodd" clip-rule="evenodd" d="M56 107.584H56V122.417C56 123.844 63.6112 125.001 73 125.001C82.3888 125.001 90 123.844 90 122.417V107.584C89.9975 109.01 82.3873 110.167 73 110.167C63.6127 110.167 56.0025 109.01 56 107.584Z" fill="url(#paint5_linear_168_666)"/>
</g>
<defs>
<filter id="filter0_d_168_666" x="72" y="94" width="25" height="33.768" filterUnits="userSpaceOnUse" color-interpolation-filters="sRGB">
<feFlood flood-opacity="0" result="BackgroundImageFix"/>
<feColorMatrix in="SourceAlpha" type="matrix" values="0 0 0 0 0 0 0 0 0 0 0 0 0 0 0 0 0 0 127 0" result="hardAlpha"/>
<feOffset dy="4"/>
<feGaussianBlur stdDeviation="2"/>
<feComposite in2="hardAlpha" operator="out"/>
<feColorMatrix type="matrix" values="0 0 0 0 0 0 0 0 0 0 0 0 0 0 0 0 0 0 0.25 0"/>
<feBlend mode="normal" in2="BackgroundImageFix" result="effect1_dropShadow_168_666"/>
<feBlend mode="normal" in="SourceGraphic" in2="effect1_dropShadow_168_666" result="shape"/>
</filter>
<filter id="filter1_d_168_666" x="79" y="36" width="28" height="28" filterUnits="userSpaceOnUse" color-interpolation-filters="sRGB">
<feFlood flood-opacity="0" result="BackgroundImageFix"/>
<feColorMatrix in="SourceAlpha" type="matrix" values="0 0 0 0 0 0 0 0 0 0 0 0 0 0 0 0 0 0 127 0" result="hardAlpha"/>
<feOffset dy="4"/>
<feGaussianBlur stdDeviation="2"/>
<feComposite in2="hardAlpha" operator="out"/>
<feColorMatrix type="matrix" values="0 0 0 0 0 0 0 0 0 0 0 0 0 0 0 0 0 0 0.25 0"/>
<feBlend mode="normal" in2="BackgroundImageFix" result="effect1_dropShadow_168_666"/>
<feBlend mode="normal" in="SourceGraphic" in2="effect1_dropShadow_168_666" result="shape"/>
</filter>
<filter id="filter2_d_168_666" x="42" y="82" width="28" height="28" filterUnits="userSpaceOnUse" color-interpolation-filters="sRGB">
<feFlood flood-opacity="0" result="BackgroundImageFix"/>
<feColorMatrix in="SourceAlpha" type="matrix" values="0 0 0 0 0 0 0 0 0 0 0 0 0 0 0 0 0 0 127 0" result="hardAlpha"/>
<feOffset dy="4"/>
<feGaussianBlur stdDeviation="2"/>
<feComposite in2="hardAlpha" operator="out"/>
<feColorMatrix type="matrix" values="0 0 0 0 0 0 0 0 0 0 0 0 0 0 0 0 0 0 0.25 0"/>
<feBlend mode="normal" in2="BackgroundImageFix" result="effect1_dropShadow_168_666"/>
<feBlend mode="normal" in="SourceGraphic" in2="effect1_dropShadow_168_666" result="shape"/>
</filter>
<filter id="filter3_d_168_666" x="15" y="82" width="28" height="28" filterUnits="userSpaceOnUse" color-interpolation-filters="sRGB">
<feFlood flood-opacity="0" result="BackgroundImageFix"/>
<feColorMatrix in="SourceAlpha" type="matrix" values="0 0 0 0 0 0 0 0 0 0 0 0 0 0 0 0 0 0 127 0" result="hardAlpha"/>
<feOffset dy="4"/>
<feGaussianBlur stdDeviation="2"/>
<feComposite in2="hardAlpha" operator="out"/>
<feColorMatrix type="matrix" values="0 0 0 0 0 0 0 0 0 0 0 0 0 0 0 0 0 0 0.25 0"/>
<feBlend mode="normal" in2="BackgroundImageFix" result="effect1_dropShadow_168_666"/>
<feBlend mode="normal" in="SourceGraphic" in2="effect1_dropShadow_168_666" result="shape"/>
</filter>
<filter id="filter4_d_168_666" x="8" y="39" width="48" height="48" filterUnits="userSpaceOnUse" color-interpolation-filters="sRGB">
<feFlood flood-opacity="0" result="BackgroundImageFix"/>
<feColorMatrix in="SourceAlpha" type="matrix" values="0 0 0 0 0 0 0 0 0 0 0 0 0 0 0 0 0 0 127 0" result="hardAlpha"/>
<feOffset dy="4"/>
<feGaussianBlur stdDeviation="2"/>
<feComposite in2="hardAlpha" operator="out"/>
<feColorMatrix type="matrix" values="0 0 0 0 0 0 0 0 0 0 0 0 0 0 0 0 0 0 0.25 0"/>
<feBlend mode="normal" in2="BackgroundImageFix" result="effect1_dropShadow_168_666"/>
<feBlend mode="normal" in="SourceGraphic" in2="effect1_dropShadow_168_666" result="shape"/>
</filter>
<filter id="filter5_d_168_666" x="102" y="79" width="48" height="60" filterUnits="userSpaceOnUse" color-interpolation-filters="sRGB">
<feFlood flood-opacity="0" result="BackgroundImageFix"/>
<feColorMatrix in="SourceAlpha" type="matrix" values="0 0 0 0 0 0 0 0 0 0 0 0 0 0 0 0 0 0 127 0" result="hardAlpha"/>
<feOffset dy="4"/>
<feGaussianBlur stdDeviation="2"/>
<feComposite in2="hardAlpha" operator="out"/>
<feColorMatrix type="matrix" values="0 0 0 0 0 0 0 0 0 0 0 0 0 0 0 0 0 0 0.25 0"/>
<feBlend mode="normal" in2="BackgroundImageFix" result="effect1_dropShadow_168_666"/>
<feBlend mode="normal" in="SourceGraphic" in2="effect1_dropShadow_168_666" result="shape"/>
</filter>
<filter id="filter6_d_168_666" x="0" y="120.073" width="158" height="47.9274" filterUnits="userSpaceOnUse" color-interpolation-filters="sRGB">
<feFlood flood-opacity="0" result="BackgroundImageFix"/>
<feColorMatrix in="SourceAlpha" type="matrix" values="0 0 0 0 0 0 0 0 0 0 0 0 0 0 0 0 0 0 127 0" result="hardAlpha"/>
<feOffset dy="4"/>
<feGaussianBlur stdDeviation="2"/>
<feComposite in2="hardAlpha" operator="out"/>
<feColorMatrix type="matrix" values="0 0 0 0 0 0 0 0 0 0 0 0 0 0 0 0 0 0 0.25 0"/>
<feBlend mode="normal" in2="BackgroundImageFix" result="effect1_dropShadow_168_666"/>
<feBlend mode="normal" in="SourceGraphic" in2="effect1_dropShadow_168_666" result="shape"/>
</filter>
<filter id="filter7_d_168_666" x="0" y="0" width="158" height="47.9274" filterUnits="userSpaceOnUse" color-interpolation-filters="sRGB">
<feFlood flood-opacity="0" result="BackgroundImageFix"/>
<feColorMatrix in="SourceAlpha" type="matrix" values="0 0 0 0 0 0 0 0 0 0 0 0 0 0 0 0 0 0 127 0" result="hardAlpha"/>
<feOffset dy="4"/>
<feGaussianBlur stdDeviation="2"/>
<feComposite in2="hardAlpha" operator="out"/>
<feColorMatrix type="matrix" values="0 0 0 0 0 0 0 0 0 0 0 0 0 0 0 0 0 0 0.25 0"/>
<feBlend mode="normal" in2="BackgroundImageFix" result="effect1_dropShadow_168_666"/>
<feBlend mode="normal" in="SourceGraphic" in2="effect1_dropShadow_168_666" result="shape"/>
</filter>
<filter id="filter8_d_168_666" x="116" y="36" width="28" height="28" filterUnits="userSpaceOnUse" color-interpolation-filters="sRGB">
<feFlood flood-opacity="0" result="BackgroundImageFix"/>
<feColorMatrix in="SourceAlpha" type="matrix" values="0 0 0 0 0 0 0 0 0 0 0 0 0 0 0 0 0 0 127 0" result="hardAlpha"/>
<feOffset dy="4"/>
<feGaussianBlur stdDeviation="2"/>
<feComposite in2="hardAlpha" operator="out"/>
<feColorMatrix type="matrix" values="0 0 0 0 0 0 0 0 0 0 0 0 0 0 0 0 0 0 0.25 0"/>
<feBlend mode="normal" in2="BackgroundImageFix" result="effect1_dropShadow_168_666"/>
<feBlend mode="normal" in="SourceGraphic" in2="effect1_dropShadow_168_666" result="shape"/>
</filter>
<filter id="filter9_d_168_666" x="59" y="59" width="28" height="28" filterUnits="userSpaceOnUse" color-interpolation-filters="sRGB">
<feFlood flood-opacity="0" result="BackgroundImageFix"/>
<feColorMatrix in="SourceAlpha" type="matrix" values="0 0 0 0 0 0 0 0 0 0 0 0 0 0 0 0 0 0 127 0" result="hardAlpha"/>
<feOffset dy="4"/>
<feGaussianBlur stdDeviation="2"/>
<feComposite in2="hardAlpha" operator="out"/>
<feColorMatrix type="matrix" values="0 0 0 0 0 0 0 0 0 0 0 0 0 0 0 0 0 0 0.25 0"/>
<feBlend mode="normal" in2="BackgroundImageFix" result="effect1_dropShadow_168_666"/>
<feBlend mode="normal" in="SourceGraphic" in2="effect1_dropShadow_168_666" result="shape"/>
</filter>
<filter id="filter10_d_168_666" x="52" y="105" width="42" height="28.0006" filterUnits="userSpaceOnUse" color-interpolation-filters="sRGB">
<feFlood flood-opacity="0" result="BackgroundImageFix"/>
<feColorMatrix in="SourceAlpha" type="matrix" values="0 0 0 0 0 0 0 0 0 0 0 0 0 0 0 0 0 0 127 0" result="hardAlpha"/>
<feOffset dy="4"/>
<feGaussianBlur stdDeviation="2"/>
<feComposite in2="hardAlpha" operator="out"/>
<feColorMatrix type="matrix" values="0 0 0 0 0 0 0 0 0 0 0 0 0 0 0 0 0 0 0.25 0"/>
<feBlend mode="normal" in2="BackgroundImageFix" result="effect1_dropShadow_168_666"/>
<feBlend mode="normal" in="SourceGraphic" in2="effect1_dropShadow_168_666" result="shape"/>
</filter>
<linearGradient id="paint0_linear_168_666" x1="76" y1="118.202" x2="97.7447" y2="105.341" gradientUnits="userSpaceOnUse">
<stop offset="0.15" stop-color="#FF2EA4"/>
<stop offset="0.5" stop-color="#F25022"/>
<stop offset="0.85" stop-color="#FDB02F"/>
</linearGradient>
<linearGradient id="paint1_linear_168_666" x1="32" y1="39.4871" x2="32" y2="88.194" gradientUnits="userSpaceOnUse">
<stop offset="0.15" stop-color="#FF00E1"/>
<stop offset="0.5" stop-color="#F25022"/>
<stop offset="0.85" stop-color="#FFB902"/>
</linearGradient>
<linearGradient id="paint2_linear_168_666" x1="126" y1="79" x2="126" y2="131" gradientUnits="userSpaceOnUse">
<stop offset="0.1" stop-color="#0F1742"/>
<stop offset="0.34" stop-color="#1D4CB3"/>
<stop offset="0.67" stop-color="#FF00E1"/>
<stop offset="0.9" stop-color="#F25022"/>
</linearGradient>
<linearGradient id="paint3_linear_168_666" x1="79" y1="160" x2="79" y2="120.073" gradientUnits="userSpaceOnUse">
<stop offset="0.325" stop-color="#0F1742"/>
<stop offset="0.5" stop-color="#1D4CB3"/>
<stop offset="0.85" stop-color="#03BFFE"/>
</linearGradient>
<linearGradient id="paint4_linear_168_666" x1="79" y1="0" x2="79" y2="39.9274" gradientUnits="userSpaceOnUse">
<stop offset="0.325" stop-color="#0F1742"/>
<stop offset="0.5" stop-color="#1D4CB3"/>
<stop offset="0.85" stop-color="#03BFFE"/>
</linearGradient>
<linearGradient id="paint5_linear_168_666" x1="56" y1="123.001" x2="71.6854" y2="97.0248" gradientUnits="userSpaceOnUse">
<stop offset="0.15" stop-color="#FF2EA4"/>
<stop offset="0.5" stop-color="#F25022"/>
<stop offset="0.85" stop-color="#FDB02F"/>
</linearGradient>
</defs>
</svg>
