<svg width="202" height="70" viewBox="0 0 202 70" fill="none" xmlns="http://www.w3.org/2000/svg">
<g filter="url(#filter0_dd_202_2137)">
<rect x="11" y="7" width="180" height="48" rx="24" fill="#FF00E1"/>
</g>
<path d="M41.8983 38V24H47.9583C49.2116 24 50.2916 24.2067 51.1983 24.62C52.1049 25.02 52.8049 25.6 53.2983 26.36C53.7916 27.12 54.0383 28.0267 54.0383 29.08C54.0383 30.12 53.7916 31.02 53.2983 31.78C52.8049 32.54 52.1049 33.1267 51.1983 33.54C50.2916 33.94 49.2116 34.14 47.9583 34.14H43.6983L45.1383 32.68V38H41.8983ZM45.1383 33.04L43.6983 31.5H47.7783C48.7783 31.5 49.5249 31.2867 50.0183 30.86C50.5116 30.4333 50.7583 29.84 50.7583 29.08C50.7583 28.3067 50.5116 27.7067 50.0183 27.28C49.5249 26.8533 48.7783 26.64 47.7783 26.64H43.6983L45.1383 25.1V33.04ZM56.3267 38V23.16H59.4467V38H56.3267ZM68.9423 38V35.9L68.7423 35.44V31.68C68.7423 31.0133 68.5357 30.4933 68.1223 30.12C67.7223 29.7467 67.1023 29.56 66.2623 29.56C65.689 29.56 65.1223 29.6533 64.5623 29.84C64.0157 30.0133 63.549 30.2533 63.1623 30.56L62.0423 28.38C62.629 27.9667 63.3357 27.6467 64.1623 27.42C64.989 27.1933 65.829 27.08 66.6823 27.08C68.3223 27.08 69.5957 27.4667 70.5023 28.24C71.409 29.0133 71.8623 30.22 71.8623 31.86V38H68.9423ZM65.6623 38.16C64.8223 38.16 64.1023 38.02 63.5023 37.74C62.9023 37.4467 62.4423 37.0533 62.1223 36.56C61.8023 36.0667 61.6423 35.5133 61.6423 34.9C61.6423 34.26 61.7957 33.7 62.1023 33.22C62.4223 32.74 62.9223 32.3667 63.6023 32.1C64.2823 31.82 65.169 31.68 66.2623 31.68H69.1223V33.5H66.6023C65.869 33.5 65.3623 33.62 65.0823 33.86C64.8157 34.1 64.6823 34.4 64.6823 34.76C64.6823 35.16 64.8357 35.48 65.1423 35.72C65.4623 35.9467 65.8957 36.06 66.4423 36.06C66.9623 36.06 67.429 35.94 67.8423 35.7C68.2557 35.4467 68.5557 35.08 68.7423 34.6L69.2223 36.04C68.9957 36.7333 68.5823 37.26 67.9823 37.62C67.3823 37.98 66.609 38.16 65.6623 38.16ZM75.8508 42.04C75.2908 42.04 74.7374 41.9533 74.1908 41.78C73.6441 41.6067 73.1974 41.3667 72.8508 41.06L73.9908 38.84C74.2308 39.0533 74.5041 39.22 74.8108 39.34C75.1308 39.46 75.4441 39.52 75.7508 39.52C76.1908 39.52 76.5374 39.4133 76.7908 39.2C77.0574 39 77.2974 38.66 77.5108 38.18L78.0708 36.86L78.3108 36.52L82.1708 27.24H85.1708L80.3108 38.66C79.9641 39.5267 79.5641 40.2067 79.1108 40.7C78.6708 41.1933 78.1774 41.54 77.6308 41.74C77.0974 41.94 76.5041 42.04 75.8508 42.04ZM77.6908 38.42L72.8908 27.24H76.1108L79.8308 36.24L77.6908 38.42ZM91.2109 42.04C90.1976 42.04 89.2176 41.9133 88.2709 41.66C87.3376 41.42 86.5576 41.0533 85.9309 40.56L87.1709 38.32C87.6243 38.6933 88.1976 38.9867 88.8909 39.2C89.5976 39.4267 90.2909 39.54 90.9709 39.54C92.0776 39.54 92.8776 39.2933 93.3709 38.8C93.8776 38.3067 94.1309 37.5733 94.1309 36.6V34.98L94.3309 32.28L94.2909 29.56V27.24H97.2509V36.2C97.2509 38.2 96.7309 39.6733 95.6909 40.62C94.6509 41.5667 93.1576 42.04 91.2109 42.04ZM90.7309 37.48C89.7309 37.48 88.8243 37.2667 88.0109 36.84C87.2109 36.4 86.5643 35.7933 86.0709 35.02C85.5909 34.2333 85.3509 33.32 85.3509 32.28C85.3509 31.2267 85.5909 30.3133 86.0709 29.54C86.5643 28.7533 87.2109 28.1467 88.0109 27.72C88.8243 27.2933 89.7309 27.08 90.7309 27.08C91.6376 27.08 92.4376 27.2667 93.1309 27.64C93.8243 28 94.3643 28.5667 94.7509 29.34C95.1376 30.1 95.3309 31.08 95.3309 32.28C95.3309 33.4667 95.1376 34.4467 94.7509 35.22C94.3643 35.98 93.8243 36.5467 93.1309 36.92C92.4376 37.2933 91.6376 37.48 90.7309 37.48ZM91.3509 34.92C91.8976 34.92 92.3843 34.8133 92.8109 34.6C93.2376 34.3733 93.5709 34.06 93.8109 33.66C94.0509 33.26 94.1709 32.8 94.1709 32.28C94.1709 31.7467 94.0509 31.2867 93.8109 30.9C93.5709 30.5 93.2376 30.1933 92.8109 29.98C92.3843 29.7533 91.8976 29.64 91.3509 29.64C90.8043 29.64 90.3176 29.7533 89.8909 29.98C89.4643 30.1933 89.1243 30.5 88.8709 30.9C88.6309 31.2867 88.5109 31.7467 88.5109 32.28C88.5109 32.8 88.6309 33.26 88.8709 33.66C89.1243 34.06 89.4643 34.3733 89.8909 34.6C90.3176 34.8133 90.8043 34.92 91.3509 34.92ZM100.155 38V27.24H103.135V30.28L102.715 29.4C103.035 28.64 103.548 28.0667 104.255 27.68C104.962 27.28 105.822 27.08 106.835 27.08V29.96C106.702 29.9467 106.582 29.94 106.475 29.94C106.368 29.9267 106.255 29.92 106.135 29.92C105.282 29.92 104.588 30.1667 104.055 30.66C103.535 31.14 103.275 31.8933 103.275 32.92V38H100.155ZM113.732 38.16C112.585 38.16 111.565 37.92 110.672 37.44C109.792 36.96 109.092 36.3067 108.572 35.48C108.065 34.64 107.812 33.6867 107.812 32.62C107.812 31.54 108.065 30.5867 108.572 29.76C109.092 28.92 109.792 28.2667 110.672 27.8C111.565 27.32 112.585 27.08 113.732 27.08C114.865 27.08 115.879 27.32 116.772 27.8C117.665 28.2667 118.365 28.9133 118.872 29.74C119.379 30.5667 119.632 31.5267 119.632 32.62C119.632 33.6867 119.379 34.64 118.872 35.48C118.365 36.3067 117.665 36.96 116.772 37.44C115.879 37.92 114.865 38.16 113.732 38.16ZM113.732 35.6C114.252 35.6 114.719 35.48 115.132 35.24C115.545 35 115.872 34.66 116.112 34.22C116.352 33.7667 116.472 33.2333 116.472 32.62C116.472 31.9933 116.352 31.46 116.112 31.02C115.872 30.58 115.545 30.24 115.132 30C114.719 29.76 114.252 29.64 113.732 29.64C113.212 29.64 112.745 29.76 112.332 30C111.919 30.24 111.585 30.58 111.332 31.02C111.092 31.46 110.972 31.9933 110.972 32.62C110.972 33.2333 111.092 33.7667 111.332 34.22C111.585 34.66 111.919 35 112.332 35.24C112.745 35.48 113.212 35.6 113.732 35.6ZM126.257 38.16C125.364 38.16 124.564 37.9867 123.857 37.64C123.164 37.2933 122.624 36.7667 122.237 36.06C121.851 35.34 121.657 34.4267 121.657 33.32V27.24H124.777V32.86C124.777 33.7533 124.964 34.4133 125.337 34.84C125.724 35.2533 126.264 35.46 126.957 35.46C127.437 35.46 127.864 35.36 128.237 35.16C128.611 34.9467 128.904 34.6267 129.117 34.2C129.331 33.76 129.437 33.2133 129.437 32.56V27.24H132.557V38H129.597V35.04L130.137 35.9C129.777 36.6467 129.244 37.2133 128.537 37.6C127.844 37.9733 127.084 38.16 126.257 38.16ZM141.988 27.08C142.841 27.08 143.601 27.2533 144.268 27.6C144.948 27.9333 145.481 28.4533 145.868 29.16C146.254 29.8533 146.448 30.7467 146.448 31.84V38H143.328V32.32C143.328 31.4533 143.134 30.8133 142.748 30.4C142.374 29.9867 141.841 29.78 141.148 29.78C140.654 29.78 140.208 29.8867 139.808 30.1C139.421 30.3 139.114 30.6133 138.888 31.04C138.674 31.4667 138.568 32.0133 138.568 32.68V38H135.448V27.24H138.428V30.22L137.868 29.32C138.254 28.6 138.808 28.0467 139.528 27.66C140.248 27.2733 141.068 27.08 141.988 27.08ZM153.974 38.16C152.961 38.16 152.047 37.9333 151.234 37.48C150.421 37.0133 149.774 36.3667 149.294 35.54C148.827 34.7133 148.594 33.74 148.594 32.62C148.594 31.4867 148.827 30.5067 149.294 29.68C149.774 28.8533 150.421 28.2133 151.234 27.76C152.047 27.3067 152.961 27.08 153.974 27.08C154.881 27.08 155.674 27.28 156.354 27.68C157.034 28.08 157.561 28.6867 157.934 29.5C158.307 30.3133 158.494 31.3533 158.494 32.62C158.494 33.8733 158.314 34.9133 157.954 35.74C157.594 36.5533 157.074 37.16 156.394 37.56C155.727 37.96 154.921 38.16 153.974 38.16ZM154.514 35.6C155.021 35.6 155.481 35.48 155.894 35.24C156.307 35 156.634 34.66 156.874 34.22C157.127 33.7667 157.254 33.2333 157.254 32.62C157.254 31.9933 157.127 31.46 156.874 31.02C156.634 30.58 156.307 30.24 155.894 30C155.481 29.76 155.021 29.64 154.514 29.64C153.994 29.64 153.527 29.76 153.114 30C152.701 30.24 152.367 30.58 152.114 31.02C151.874 31.46 151.754 31.9933 151.754 32.62C151.754 33.2333 151.874 33.7667 152.114 34.22C152.367 34.66 152.701 35 153.114 35.24C153.527 35.48 153.994 35.6 154.514 35.6ZM157.334 38V35.8L157.394 32.6L157.194 29.42V23.16H160.314V38H157.334Z" fill="black"/>
<defs>
<filter id="filter0_dd_202_2137" x="0" y="0" width="202" height="70" filterUnits="userSpaceOnUse" color-interpolation-filters="sRGB">
<feFlood flood-opacity="0" result="BackgroundImageFix"/>
<feColorMatrix in="SourceAlpha" type="matrix" values="0 0 0 0 0 0 0 0 0 0 0 0 0 0 0 0 0 0 127 0" result="hardAlpha"/>
<feOffset dy="1"/>
<feGaussianBlur stdDeviation="1.5"/>
<feColorMatrix type="matrix" values="0 0 0 0 0 0 0 0 0 0 0 0 0 0 0 0 0 0 0.3 0"/>
<feBlend mode="normal" in2="BackgroundImageFix" result="effect1_dropShadow_202_2137"/>
<feColorMatrix in="SourceAlpha" type="matrix" values="0 0 0 0 0 0 0 0 0 0 0 0 0 0 0 0 0 0 127 0" result="hardAlpha"/>
<feMorphology radius="3" operator="dilate" in="SourceAlpha" result="effect2_dropShadow_202_2137"/>
<feOffset dy="4"/>
<feGaussianBlur stdDeviation="4"/>
<feColorMatrix type="matrix" values="0 0 0 0 0 0 0 0 0 0 0 0 0 0 0 0 0 0 0.15 0"/>
<feBlend mode="normal" in2="effect1_dropShadow_202_2137" result="effect2_dropShadow_202_2137"/>
<feBlend mode="normal" in="SourceGraphic" in2="effect2_dropShadow_202_2137" result="shape"/>
</filter>
</defs>
</svg>
