<svg width="158" height="168" viewBox="0 0 158 168" fill="none" xmlns="http://www.w3.org/2000/svg">
<g filter="url(#filter0_d_188_1826)">
<path fill-rule="evenodd" clip-rule="evenodd" d="M152 24H89V93.0427C84.5 93.4296 81 96.3969 81 100C81 103.603 84.5 106.57 89 106.957V107H90H152C153.105 107 154 106.105 154 105V26C154 24.8954 153.105 24 152 24Z" fill="#EC01D1"/>
<path fill-rule="evenodd" clip-rule="evenodd" d="M150 28L145 24V28H91V88.0427C86.5 88.4296 83 91.3969 83 95C83 98.6031 86.5 101.57 91 101.957V102H92H150V28Z" fill="#6FDBFF"/>
<path d="M81 18C81 16.8954 81.8954 16 83 16H144C145.105 16 146 16.8954 146 18V97C146 98.1046 145.105 99 144 99H81V18Z" fill="#EC01D1"/>
</g>
<g filter="url(#filter1_d_188_1826)">
<path fill-rule="evenodd" clip-rule="evenodd" d="M70.8934 10.036L14.76 38.6374L46.1047 100.155C42.2709 102.543 40.4995 106.775 42.1352 109.986C43.771 113.196 48.2367 114.251 52.4218 112.553L52.4412 112.591L53.3322 112.137L108.575 83.9896C109.559 83.4881 109.95 82.2837 109.449 81.2996L73.5834 10.9101C73.0819 9.92588 71.8776 9.53456 70.8934 10.036Z" fill="#EB4E22"/>
<path fill-rule="evenodd" clip-rule="evenodd" d="M70.9273 14.508L64.6563 13.214L66.4723 16.778L18.358 41.2935L45.6168 94.7919C41.7829 97.1796 40.0115 101.412 41.6473 104.623C43.283 107.833 47.7487 108.888 51.9339 107.19L51.9532 107.228L52.8443 106.774L104.523 80.4425L70.9273 14.508Z" fill="#6FDBFF"/>
<path d="M4.90798 36.9233C4.40652 35.9391 4.79783 34.7348 5.78201 34.2333L60.1334 6.5399C61.1176 6.03843 62.3219 6.42975 62.8234 7.41393L98.6886 77.8034C99.1901 78.7876 98.7988 79.992 97.8146 80.4934L41.6812 109.095L4.90798 36.9233Z" fill="#EB4E22"/>
</g>
<g filter="url(#filter2_d_188_1826)">
<path fill-rule="evenodd" clip-rule="evenodd" d="M124.506 160L154 135.408V128.223L124.506 146.223H79.9057H78.0943H33.4939L4 128.223V135.408L33.4939 160H78.0943H79.9057H124.506ZM33.4939 144.591L4 127.406V120.073L33.4939 130.813H78.0943V130.813H124.506L154 120.073V127.406L124.506 144.591H79.9057V144.591H33.4939ZM154 119.259L124.506 129.481H78.0943V129.481H33.4939L4 119.259V112L33.4939 115.288H79.9057V115.288H124.506L154 112V119.259Z" fill="url(#paint0_linear_188_1826)"/>
</g>
<g filter="url(#filter3_d_188_1826)">
<path fill-rule="evenodd" clip-rule="evenodd" d="M68.6061 7.87879C68.6061 3.52745 54.1435 0 36.303 0C18.4626 0 4 3.52745 4 7.87879V83.5152C4 79.1638 18.4626 75.6364 36.303 75.6364C54.1435 75.6364 68.6061 79.1638 68.6061 83.5152V7.87879Z" fill="#FFB902"/>
<path fill-rule="evenodd" clip-rule="evenodd" d="M7.15152 9.16718C7.1515 9.16386 7.15149 9.16055 7.15149 9.15723C7.15149 4.9701 20.9086 1.57576 37.8788 1.57576C54.849 1.57576 68.606 4.9701 68.606 9.15723L68.6061 81.9293C68.584 77.7468 54.8354 74.3579 37.8788 74.3579C20.9086 74.3579 7.15154 77.7523 7.15152 81.9394V9.16718Z" fill="#FFCA3E"/>
<path fill-rule="evenodd" clip-rule="evenodd" d="M10.303 10.4496C10.303 10.4449 10.303 10.4403 10.303 10.4357C10.303 6.41275 23.3546 3.15152 39.4545 3.15152C55.5544 3.15152 68.606 6.41275 68.606 10.4357L68.6061 10.4357V80.3496C68.5756 76.3331 55.5357 73.0795 39.4546 73.0795C23.3547 73.0795 10.3031 76.3407 10.303 80.3636V10.4496Z" fill="#FFD158"/>
<path fill-rule="evenodd" clip-rule="evenodd" d="M68.6061 11.727C68.6061 11.7227 68.6062 11.7184 68.6062 11.7141C68.6062 7.85539 56.2601 4.72727 41.0304 4.72727C25.8008 4.72727 13.4547 7.85537 13.4546 11.7141H13.4546V78.7753C13.4816 74.9223 25.8173 71.8011 41.0303 71.8011C56.2599 71.8011 68.6059 74.9291 68.6061 78.7878V11.727Z" fill="#FFD974"/>
<path fill-rule="evenodd" clip-rule="evenodd" d="M68.6061 13.0008V77.2121C68.6058 73.5176 56.9653 70.5227 42.6061 70.5227C28.2571 70.5227 16.623 73.5133 16.6061 77.2041V12.9925H16.6061C16.6062 9.29802 28.2467 6.30303 42.6061 6.30303C56.9655 6.30303 68.6061 9.29804 68.6061 12.9926C68.6061 12.9953 68.6061 12.998 68.6061 13.0008Z" fill="#FFDF8A"/>
<path fill-rule="evenodd" clip-rule="evenodd" d="M68.6061 14.271C68.6059 10.7407 57.6709 7.87879 44.1818 7.87879C30.6927 7.87879 19.7576 10.7407 19.7576 14.271C19.7576 14.2727 19.7576 14.2744 19.7576 14.276V75.6363C19.7579 72.106 30.6929 69.2442 44.1818 69.2442C57.6645 69.2442 68.5955 72.1034 68.6061 75.6313V14.271Z" fill="#FFE6A5"/>
<path fill-rule="evenodd" clip-rule="evenodd" d="M22.9091 15.56C22.9091 15.5565 22.9091 15.553 22.9091 15.5495C22.9091 12.1833 33.1387 9.45454 45.7575 9.45454C58.3763 9.45454 68.6059 12.1833 68.606 15.5494H68.6061V74.0506C68.5857 70.6891 58.3639 67.9658 45.7576 67.9658C33.139 67.9658 22.9095 70.6945 22.9091 74.0605H22.9091V15.56Z" fill="#FDE8AF"/>
<path fill-rule="evenodd" clip-rule="evenodd" d="M68.3939 7.87879C68.3939 3.52745 82.8565 0 100.697 0C118.537 0 133 3.52745 133 7.87879V83.5152C133 79.1638 118.537 75.6364 100.697 75.6364C82.8565 75.6364 68.3939 79.1638 68.3939 83.5152V7.87879Z" fill="#FFB902"/>
<path fill-rule="evenodd" clip-rule="evenodd" d="M129.848 9.16718C129.849 9.16386 129.849 9.16055 129.849 9.15723C129.849 4.9701 116.091 1.57576 99.1212 1.57576C82.151 1.57576 68.394 4.9701 68.394 9.15723L68.3939 81.9293C68.416 77.7468 82.1646 74.3579 99.1212 74.3579C116.091 74.3579 129.848 77.7523 129.848 81.9394V9.16718Z" fill="#FFCA3E"/>
<path fill-rule="evenodd" clip-rule="evenodd" d="M126.697 10.4496C126.697 10.4449 126.697 10.4403 126.697 10.4357C126.697 6.41275 113.645 3.15152 97.5455 3.15152C81.4456 3.15152 68.394 6.41275 68.394 10.4357L68.3939 10.4357V80.3496C68.4244 76.3331 81.4643 73.0795 97.5454 73.0795C113.645 73.0795 126.697 76.3407 126.697 80.3636V10.4496Z" fill="#FFD158"/>
<path fill-rule="evenodd" clip-rule="evenodd" d="M68.3939 11.727C68.3939 11.7227 68.3938 11.7184 68.3938 11.7141C68.3938 7.85539 80.7399 4.72727 95.9696 4.72727C111.199 4.72727 123.545 7.85537 123.545 11.7141H123.545V78.7753C123.518 74.9223 111.183 71.8011 95.9697 71.8011C80.7401 71.8011 68.3941 74.9291 68.3939 78.7878V11.727Z" fill="#FFD974"/>
<path fill-rule="evenodd" clip-rule="evenodd" d="M68.3939 13.0008V77.2121C68.3942 73.5176 80.0347 70.5227 94.3939 70.5227C108.743 70.5227 120.377 73.5133 120.394 77.2041V12.9925H120.394C120.394 9.29802 108.753 6.30303 94.3939 6.30303C80.0345 6.30303 68.3939 9.29804 68.3939 12.9926C68.3939 12.9953 68.3939 12.998 68.3939 13.0008Z" fill="#FFDF8A"/>
<path fill-rule="evenodd" clip-rule="evenodd" d="M68.3939 14.271C68.3941 10.7407 79.3291 7.87879 92.8182 7.87879C106.307 7.87879 117.242 10.7407 117.242 14.271C117.242 14.2727 117.242 14.2744 117.242 14.276V75.6363C117.242 72.106 106.307 69.2442 92.8182 69.2442C79.3355 69.2442 68.4045 72.1034 68.3939 75.6313V14.271Z" fill="#FFE6A5"/>
<path fill-rule="evenodd" clip-rule="evenodd" d="M114.091 15.56C114.091 15.5565 114.091 15.553 114.091 15.5495C114.091 12.1833 103.861 9.45454 91.2425 9.45454C78.6237 9.45454 68.3941 12.1833 68.394 15.5494H68.3939V74.0506C68.4143 70.6891 78.6361 67.9658 91.2424 67.9658C103.861 67.9658 114.091 70.6945 114.091 74.0605H114.091V15.56Z" fill="#FDE8AF"/>
<path fill-rule="evenodd" clip-rule="evenodd" d="M68.593 16.5454C68.5683 16.7412 68.5091 16.9346 68.4169 17.1252C68.3219 16.9289 68.1919 16.7355 68.0286 16.5454H68.593ZM64.6667 12.915C60.5559 11.3019 53.6206 10.2424 45.7575 10.2424C33.1387 10.2424 22.9091 12.9712 22.9091 16.3373C22.9091 16.6043 22.9734 16.8673 23.0982 17.1252C24.5468 14.1313 34.1395 11.8182 45.7576 11.8182C53.6206 11.8182 60.5559 12.8777 64.6667 14.4907V12.915Z" fill="#77D2F1"/>
<path fill-rule="evenodd" clip-rule="evenodd" d="M68.593 44.9091C68.5683 45.1048 68.5091 45.2982 68.4169 45.4888C68.3219 45.2925 68.1919 45.0991 68.0286 44.9091H68.593ZM64.6667 41.2786C60.5559 39.6656 53.6206 38.6061 45.7575 38.6061C33.1387 38.6061 22.9091 41.3348 22.9091 44.701C22.9091 44.968 22.9734 45.2309 23.0982 45.4889C24.5468 42.4949 34.1395 40.1818 45.7576 40.1818C53.6206 40.1818 60.5559 41.2413 64.6667 42.8544V41.2786Z" fill="#77D2F1"/>
<path fill-rule="evenodd" clip-rule="evenodd" d="M68.593 57.5151C68.5683 57.7109 68.5091 57.9042 68.4169 58.0949C68.3219 57.8985 68.1919 57.7051 68.0286 57.5151H68.593ZM64.6667 53.8847C60.5559 52.2716 53.6206 51.2121 45.7575 51.2121C33.1387 51.2121 22.9091 53.9409 22.9091 57.307C22.9091 57.574 22.9734 57.837 23.0982 58.0949C24.5468 55.101 34.1395 52.7879 45.7576 52.7879C53.6206 52.7879 60.5559 53.8474 64.6667 55.4604V53.8847Z" fill="#77D2F1"/>
<path fill-rule="evenodd" clip-rule="evenodd" d="M64.6667 17.6422V16.0665C60.5559 14.4534 53.6206 13.3939 45.7576 13.3939C39.6485 13.3939 34.0995 14.0335 30 15.0753V16.651C34.0995 15.6092 39.6486 14.9697 45.7576 14.9697C53.6206 14.9697 60.5559 16.0292 64.6667 17.6422Z" fill="#77D2F1"/>
<path fill-rule="evenodd" clip-rule="evenodd" d="M64.6667 20.7937V19.218C60.5559 17.605 53.6206 16.5454 45.7576 16.5454C39.6485 16.5454 34.0995 17.185 30 18.2268V19.8026C34.0995 18.7608 39.6486 18.1212 45.7576 18.1212C53.6206 18.1212 60.5559 19.1807 64.6667 20.7937Z" fill="#77D2F1"/>
<path fill-rule="evenodd" clip-rule="evenodd" d="M64.6667 23.9452V22.3695C60.5559 20.7565 53.6206 19.697 45.7576 19.697C39.6485 19.697 34.0995 20.3365 30 21.3783V22.9541C34.0995 21.9123 39.6486 21.2727 45.7576 21.2727C53.6206 21.2727 60.5559 22.3322 64.6667 23.9452Z" fill="#77D2F1"/>
<path fill-rule="evenodd" clip-rule="evenodd" d="M64.6667 27.0968V25.521C60.5559 23.908 53.6206 22.8485 45.7576 22.8485C39.6485 22.8485 34.0995 23.488 30 24.5298V26.1056C34.0995 25.0638 39.6486 24.4242 45.7576 24.4242C53.6206 24.4242 60.5559 25.4837 64.6667 27.0968Z" fill="#77D2F1"/>
<path fill-rule="evenodd" clip-rule="evenodd" d="M64.6667 30.2483V28.6725C60.5559 27.0595 53.6206 26 45.7576 26C39.6485 26 34.0995 26.6395 30 27.6813V29.2571C34.0995 28.2153 39.6486 27.5758 45.7576 27.5758C53.6206 27.5758 60.5559 28.6353 64.6667 30.2483Z" fill="#77D2F1"/>
<path fill-rule="evenodd" clip-rule="evenodd" d="M64.6667 33.3998V31.824C60.5559 30.211 53.6206 29.1515 45.7576 29.1515C39.6485 29.1515 34.0995 29.7911 30 30.8328V32.4086C34.0995 31.3668 39.6486 30.7273 45.7576 30.7273C53.6206 30.7273 60.5559 31.7868 64.6667 33.3998Z" fill="#77D2F1"/>
<path fill-rule="evenodd" clip-rule="evenodd" d="M64.6667 36.5513V34.9756C60.5559 33.3625 53.6206 32.303 45.7576 32.303C39.6485 32.303 34.0995 32.9426 30 33.9844V35.5601C34.0995 34.5183 39.6486 33.8788 45.7576 33.8788C53.6206 33.8788 60.5559 34.9383 64.6667 36.5513Z" fill="#77D2F1"/>
<path fill-rule="evenodd" clip-rule="evenodd" d="M64.6667 39.7028V38.1271C60.5559 36.514 53.6206 35.4545 45.7576 35.4545C39.6485 35.4545 34.0995 36.0941 30 37.1359V38.7116C34.0995 37.6698 39.6486 37.0303 45.7576 37.0303C53.6206 37.0303 60.5559 38.0898 64.6667 39.7028Z" fill="#77D2F1"/>
<path fill-rule="evenodd" clip-rule="evenodd" d="M64.6667 46.0059V44.4301C60.5559 42.8171 53.6206 41.7576 45.7576 41.7576C39.6485 41.7576 34.0995 42.3971 30 43.4389V45.0147C34.0995 43.9729 39.6486 43.3333 45.7576 43.3333C53.6206 43.3333 60.5559 44.3928 64.6667 46.0059Z" fill="#77D2F1"/>
<path fill-rule="evenodd" clip-rule="evenodd" d="M64.6667 49.1574V47.5816C60.5559 45.9686 53.6206 44.9091 45.7576 44.9091C39.6485 44.9091 34.0995 45.5486 30 46.5904V48.1662C34.0995 47.1244 39.6486 46.4848 45.7576 46.4848C53.6206 46.4848 60.5559 47.5444 64.6667 49.1574Z" fill="#77D2F1"/>
<path fill-rule="evenodd" clip-rule="evenodd" d="M64.6667 52.3089V50.7331C60.5559 49.1201 53.6206 48.0606 45.7576 48.0606C39.6485 48.0606 34.0995 48.7001 30 49.7419V51.3177C34.0995 50.2759 39.6486 49.6364 45.7576 49.6364C53.6206 49.6364 60.5559 50.6959 64.6667 52.3089Z" fill="#77D2F1"/>
<path fill-rule="evenodd" clip-rule="evenodd" d="M64.6667 58.6119V57.0362C60.5559 55.4231 53.6206 54.3636 45.7576 54.3636C39.6485 54.3636 34.0995 55.0032 30 56.045V57.6207C34.0995 56.5789 39.6486 55.9394 45.7576 55.9394C53.6206 55.9394 60.5559 56.9989 64.6667 58.6119Z" fill="#77D2F1"/>
<path fill-rule="evenodd" clip-rule="evenodd" d="M64.6667 61.7634V60.1877C60.5559 58.5747 53.6206 57.5151 45.7576 57.5151C39.6485 57.5151 34.0995 58.1547 30 59.1965V60.7723C34.0995 59.7305 39.6486 59.0909 45.7576 59.0909C53.6206 59.0909 60.5559 60.1504 64.6667 61.7634Z" fill="#77D2F1"/>
<path fill-rule="evenodd" clip-rule="evenodd" d="M64.6667 64.915V63.3392C60.5559 61.7262 53.6206 60.6667 45.7576 60.6667C39.6485 60.6667 34.0995 61.3062 30 62.348V63.9238C34.0995 62.882 39.6486 62.2424 45.7576 62.2424C53.6206 62.2424 60.5559 63.3019 64.6667 64.915Z" fill="#77D2F1"/>
<path fill-rule="evenodd" clip-rule="evenodd" d="M64.6667 68.0665V66.4907C60.5559 64.8777 53.6206 63.8182 45.7576 63.8182C39.6485 63.8182 34.0995 64.4577 30 65.4995V67.0753C34.0995 66.0335 39.6486 65.3939 45.7576 65.3939C53.6206 65.3939 60.5559 66.4534 64.6667 68.0665Z" fill="#77D2F1"/>
<path fill-rule="evenodd" clip-rule="evenodd" d="M118.229 26.1515C118.205 26.3472 118.145 26.5406 118.053 26.7312C117.958 26.5349 117.828 26.3415 117.665 26.1515H118.229ZM114.303 22.521C110.192 20.908 103.257 19.8485 95.3939 19.8485C82.775 19.8485 72.5454 22.5773 72.5454 25.9434C72.5454 26.2104 72.6098 26.4734 72.7346 26.7313C74.1831 23.7374 83.7759 21.4242 95.3939 21.4242C103.257 21.4242 110.192 22.4838 114.303 24.0968V22.521Z" fill="#77D2F1"/>
<path fill-rule="evenodd" clip-rule="evenodd" d="M118.229 13.5455C118.205 13.7412 118.145 13.9346 118.053 14.1252C117.958 13.9289 117.828 13.7355 117.665 13.5455H118.229ZM114.303 9.91498C110.192 8.30195 103.257 7.24243 95.3939 7.24243C82.775 7.24243 72.5454 9.97122 72.5454 13.3373C72.5454 13.6043 72.6098 13.8673 72.7346 14.1253C74.1831 11.1313 83.7759 8.81818 95.3939 8.81818C103.257 8.81818 110.192 9.8777 114.303 11.4907V9.91498Z" fill="#77D2F1"/>
<path fill-rule="evenodd" clip-rule="evenodd" d="M118.229 45.0606C118.205 45.2563 118.145 45.4497 118.053 45.6403C117.958 45.444 117.828 45.2506 117.665 45.0606H118.229ZM114.303 41.4301C110.192 39.8171 103.257 38.7576 95.3939 38.7576C82.775 38.7576 72.5454 41.4864 72.5454 44.8525C72.5454 45.1195 72.6098 45.3825 72.7346 45.6404C74.1831 42.6464 83.7759 40.3333 95.3939 40.3333C103.257 40.3333 110.192 41.3929 114.303 43.0059V41.4301Z" fill="#77D2F1"/>
<path fill-rule="evenodd" clip-rule="evenodd" d="M118.229 60.8182C118.205 61.0139 118.145 61.2073 118.053 61.3979C117.958 61.2016 117.828 61.0082 117.665 60.8182H118.229ZM114.303 57.1877C110.192 55.5747 103.257 54.5152 95.3939 54.5152C82.775 54.5152 72.5454 57.2439 72.5454 60.6101C72.5454 60.8771 72.6098 61.1401 72.7346 61.398C74.1831 58.404 83.7759 56.0909 95.3939 56.0909C103.257 56.0909 110.192 57.1504 114.303 58.7635V57.1877Z" fill="#77D2F1"/>
<path fill-rule="evenodd" clip-rule="evenodd" d="M114.303 27.2483V25.6725C110.192 24.0595 103.257 23 95.3939 23C89.2849 23 83.7358 23.6395 79.6364 24.6813V26.2571C83.7358 25.2153 89.2849 24.5758 95.394 24.5758C103.257 24.5758 110.192 25.6353 114.303 27.2483Z" fill="#77D2F1"/>
<path fill-rule="evenodd" clip-rule="evenodd" d="M114.303 30.3998V28.8241C110.192 27.211 103.257 26.1515 95.3939 26.1515C89.2849 26.1515 83.7358 26.7911 79.6364 27.8329V29.4086C83.7358 28.3668 89.2849 27.7273 95.394 27.7273C103.257 27.7273 110.192 28.7868 114.303 30.3998Z" fill="#77D2F1"/>
<path fill-rule="evenodd" clip-rule="evenodd" d="M114.303 33.5513V31.9756C110.192 30.3625 103.257 29.303 95.3939 29.303C89.2849 29.303 83.7358 29.9426 79.6364 30.9844V32.5601C83.7358 31.5183 89.2849 30.8788 95.394 30.8788C103.257 30.8788 110.192 31.9383 114.303 33.5513Z" fill="#77D2F1"/>
<path fill-rule="evenodd" clip-rule="evenodd" d="M114.303 36.7028V35.1271C110.192 33.5141 103.257 32.4545 95.3939 32.4545C89.2849 32.4545 83.7358 33.0941 79.6364 34.1359V35.7116C83.7358 34.6698 89.2849 34.0303 95.394 34.0303C103.257 34.0303 110.192 35.0898 114.303 36.7028Z" fill="#77D2F1"/>
<path fill-rule="evenodd" clip-rule="evenodd" d="M114.303 39.8544V38.2786C110.192 36.6656 103.257 35.6061 95.3939 35.6061C89.2849 35.6061 83.7358 36.2456 79.6364 37.2874V38.8632C83.7358 37.8214 89.2849 37.1818 95.394 37.1818C103.257 37.1818 110.192 38.2413 114.303 39.8544Z" fill="#77D2F1"/>
<path fill-rule="evenodd" clip-rule="evenodd" d="M114.303 52.4604V50.8847C110.192 49.2716 103.257 48.2121 95.3939 48.2121C89.2849 48.2121 83.7358 48.8517 79.6364 49.8935V51.4692C83.7358 50.4274 89.2849 49.7879 95.394 49.7879C103.257 49.7879 110.192 50.8474 114.303 52.4604Z" fill="#77D2F1"/>
<path fill-rule="evenodd" clip-rule="evenodd" d="M114.303 46.1574V44.5816C110.192 42.9686 103.257 41.9091 95.3939 41.9091C89.2849 41.9091 83.7358 42.5486 79.6364 43.5904V45.1662C83.7358 44.1244 89.2849 43.4849 95.394 43.4849C103.257 43.4849 110.192 44.5444 114.303 46.1574Z" fill="#77D2F1"/>
<path fill-rule="evenodd" clip-rule="evenodd" d="M114.303 49.3089V47.7331C110.192 46.1201 103.257 45.0606 95.3939 45.0606C89.2849 45.0606 83.7358 45.7002 79.6364 46.7419V48.3177C83.7358 47.2759 89.2849 46.6364 95.394 46.6364C103.257 46.6364 110.192 47.6959 114.303 49.3089Z" fill="#77D2F1"/>
<path fill-rule="evenodd" clip-rule="evenodd" d="M114.303 14.6422V13.0665C110.192 11.4535 103.257 10.3939 95.3939 10.3939C89.2849 10.3939 83.7358 11.0335 79.6364 12.0753V13.6511C83.7358 12.6093 89.2849 11.9697 95.394 11.9697C103.257 11.9697 110.192 13.0292 114.303 14.6422Z" fill="#77D2F1"/>
<path fill-rule="evenodd" clip-rule="evenodd" d="M114.303 17.7937V16.218C110.192 14.605 103.257 13.5455 95.3939 13.5455C89.2849 13.5455 83.7358 14.185 79.6364 15.2268V16.8026C83.7358 15.7608 89.2849 15.1212 95.394 15.1212C103.257 15.1212 110.192 16.1807 114.303 17.7937Z" fill="#77D2F1"/>
<path fill-rule="evenodd" clip-rule="evenodd" d="M114.303 20.9452V19.3695C110.192 17.7565 103.257 16.697 95.3939 16.697C89.2849 16.697 83.7358 17.3365 79.6364 18.3783V19.9541C83.7358 18.9123 89.2849 18.2727 95.394 18.2727C103.257 18.2727 110.192 19.3322 114.303 20.9452Z" fill="#77D2F1"/>
<path fill-rule="evenodd" clip-rule="evenodd" d="M114.303 55.6119V54.0362C110.192 52.4231 103.257 51.3636 95.3939 51.3636C89.2849 51.3636 83.7358 52.0032 79.6364 53.045V54.6207C83.7358 53.5789 89.2849 52.9394 95.394 52.9394C103.257 52.9394 110.192 53.9989 114.303 55.6119Z" fill="#77D2F1"/>
<path fill-rule="evenodd" clip-rule="evenodd" d="M114.303 61.915V60.3392C110.192 58.7262 103.257 57.6667 95.3939 57.6667C89.2849 57.6667 83.7358 58.3062 79.6364 59.348V60.9238C83.7358 59.882 89.2849 59.2424 95.394 59.2424C103.257 59.2424 110.192 60.3019 114.303 61.915Z" fill="#77D2F1"/>
<path fill-rule="evenodd" clip-rule="evenodd" d="M114.303 65.0665V63.4907C110.192 61.8777 103.257 60.8182 95.3939 60.8182C89.2849 60.8182 83.7358 61.4577 79.6364 62.4995V64.0753C83.7358 63.0335 89.2849 62.3939 95.394 62.3939C103.257 62.3939 110.192 63.4535 114.303 65.0665Z" fill="#77D2F1"/>
</g>
<g filter="url(#filter4_d_188_1826)">
<circle cx="80" cy="37" r="18" stroke="#0F1742" stroke-width="4"/>
<line x1="91.829" y1="49.1636" x2="105.971" y2="63.3058" stroke="#0F1742" stroke-width="3"/>
<rect x="102.707" y="65.364" width="8" height="39" transform="rotate(-45 102.707 65.364)" fill="#D1461E" stroke="#0F1742"/>
</g>
<defs>
<filter id="filter0_d_188_1826" x="77" y="16" width="81" height="99" filterUnits="userSpaceOnUse" color-interpolation-filters="sRGB">
<feFlood flood-opacity="0" result="BackgroundImageFix"/>
<feColorMatrix in="SourceAlpha" type="matrix" values="0 0 0 0 0 0 0 0 0 0 0 0 0 0 0 0 0 0 127 0" result="hardAlpha"/>
<feOffset dy="4"/>
<feGaussianBlur stdDeviation="2"/>
<feComposite in2="hardAlpha" operator="out"/>
<feColorMatrix type="matrix" values="0 0 0 0 0 0 0 0 0 0 0 0 0 0 0 0 0 0 0.25 0"/>
<feBlend mode="normal" in2="BackgroundImageFix" result="effect1_dropShadow_188_1826"/>
<feBlend mode="normal" in="SourceGraphic" in2="effect1_dropShadow_188_1826" result="shape"/>
</filter>
<filter id="filter1_d_188_1826" x="0.689575" y="6.32148" width="112.978" height="115.036" filterUnits="userSpaceOnUse" color-interpolation-filters="sRGB">
<feFlood flood-opacity="0" result="BackgroundImageFix"/>
<feColorMatrix in="SourceAlpha" type="matrix" values="0 0 0 0 0 0 0 0 0 0 0 0 0 0 0 0 0 0 127 0" result="hardAlpha"/>
<feOffset dy="4"/>
<feGaussianBlur stdDeviation="2"/>
<feComposite in2="hardAlpha" operator="out"/>
<feColorMatrix type="matrix" values="0 0 0 0 0 0 0 0 0 0 0 0 0 0 0 0 0 0 0.25 0"/>
<feBlend mode="normal" in2="BackgroundImageFix" result="effect1_dropShadow_188_1826"/>
<feBlend mode="normal" in="SourceGraphic" in2="effect1_dropShadow_188_1826" result="shape"/>
</filter>
<filter id="filter2_d_188_1826" x="0" y="112" width="158" height="55.9999" filterUnits="userSpaceOnUse" color-interpolation-filters="sRGB">
<feFlood flood-opacity="0" result="BackgroundImageFix"/>
<feColorMatrix in="SourceAlpha" type="matrix" values="0 0 0 0 0 0 0 0 0 0 0 0 0 0 0 0 0 0 127 0" result="hardAlpha"/>
<feOffset dy="4"/>
<feGaussianBlur stdDeviation="2"/>
<feComposite in2="hardAlpha" operator="out"/>
<feColorMatrix type="matrix" values="0 0 0 0 0 0 0 0 0 0 0 0 0 0 0 0 0 0 0.25 0"/>
<feBlend mode="normal" in2="BackgroundImageFix" result="effect1_dropShadow_188_1826"/>
<feBlend mode="normal" in="SourceGraphic" in2="effect1_dropShadow_188_1826" result="shape"/>
</filter>
<filter id="filter3_d_188_1826" x="0" y="0" width="137" height="91.5152" filterUnits="userSpaceOnUse" color-interpolation-filters="sRGB">
<feFlood flood-opacity="0" result="BackgroundImageFix"/>
<feColorMatrix in="SourceAlpha" type="matrix" values="0 0 0 0 0 0 0 0 0 0 0 0 0 0 0 0 0 0 127 0" result="hardAlpha"/>
<feOffset dy="4"/>
<feGaussianBlur stdDeviation="2"/>
<feComposite in2="hardAlpha" operator="out"/>
<feColorMatrix type="matrix" values="0 0 0 0 0 0 0 0 0 0 0 0 0 0 0 0 0 0 0.25 0"/>
<feBlend mode="normal" in2="BackgroundImageFix" result="effect1_dropShadow_188_1826"/>
<feBlend mode="normal" in="SourceGraphic" in2="effect1_dropShadow_188_1826" result="shape"/>
</filter>
<filter id="filter4_d_188_1826" x="56" y="17" width="84.6482" height="84.6482" filterUnits="userSpaceOnUse" color-interpolation-filters="sRGB">
<feFlood flood-opacity="0" result="BackgroundImageFix"/>
<feColorMatrix in="SourceAlpha" type="matrix" values="0 0 0 0 0 0 0 0 0 0 0 0 0 0 0 0 0 0 127 0" result="hardAlpha"/>
<feOffset dy="4"/>
<feGaussianBlur stdDeviation="2"/>
<feComposite in2="hardAlpha" operator="out"/>
<feColorMatrix type="matrix" values="0 0 0 0 0 0 0 0 0 0 0 0 0 0 0 0 0 0 0.25 0"/>
<feBlend mode="normal" in2="BackgroundImageFix" result="effect1_dropShadow_188_1826"/>
<feBlend mode="normal" in="SourceGraphic" in2="effect1_dropShadow_188_1826" result="shape"/>
</filter>
<linearGradient id="paint0_linear_188_1826" x1="79" y1="160" x2="79" y2="112" gradientUnits="userSpaceOnUse">
<stop offset="0.325" stop-color="#0F1742"/>
<stop offset="0.5" stop-color="#1D4CB3"/>
<stop offset="0.85" stop-color="#03BFFE"/>
</linearGradient>
</defs>
</svg>
