<svg width="158" height="168" viewBox="0 0 158 168" fill="none" xmlns="http://www.w3.org/2000/svg">
<g filter="url(#filter0_d_188_1837)">
<path d="M39 25H119V121H39V25Z" fill="#FFB902"/>
<path fill-rule="evenodd" clip-rule="evenodd" d="M127.696 160L154 128.54L154 80.9661V79.0339V31.4602L127.696 0H120.011L139.264 31.4602L139.264 79.0339V80.9661V128.54L120.011 160H127.696ZM119.138 0L137.519 31.4602L137.519 80.9661H137.518V128.54L119.138 160H111.294L122.782 128.54L122.782 79.0339H122.782L122.782 31.4602L111.294 0H119.138Z" fill="url(#paint0_linear_188_1837)"/>
<path fill-rule="evenodd" clip-rule="evenodd" d="M30.3036 0L4 31.4602L4 79.0339L4 80.9661L4 128.54L30.3036 160H37.9887L18.7364 128.54L18.7364 80.9661V79.0339L18.7364 31.4602L37.9887 0L30.3036 0ZM38.862 160L20.4812 128.54L20.4812 79.0339H20.4815L20.4815 31.4602L38.8624 0L46.7059 0L35.2179 31.4602L35.2179 80.9661H35.2175L35.2175 128.54L46.7056 160H38.862Z" fill="url(#paint1_linear_188_1837)"/>
</g>
<g filter="url(#filter1_d_188_1837)">
<path d="M49.9615 20.7607L89.2853 3.25263L89.2485 12.508L96.1512 18.6737L56.8274 36.1817L57.2498 26.7547L49.9615 20.7607Z" fill="#FF00E1"/>
<path d="M60.6926 28.6739L57.5607 21.6396L58.9073 21.04L65.3125 24.2569L64.6593 24.5477L62.4044 19.4831L64.0122 18.7672L67.1441 25.8015L65.8076 26.3965L59.3923 23.1841L60.0455 22.8933L62.3005 27.958L60.6926 28.6739ZM71.4167 23.9955C70.8004 24.2699 70.204 24.391 69.6277 24.3586C69.0581 24.3232 68.5535 24.1545 68.114 23.8525C67.6715 23.5438 67.3309 23.1215 67.0923 22.5855C66.8507 22.0429 66.7614 21.5087 66.8243 20.983C66.891 20.4476 67.0899 19.9657 67.4209 19.5373C67.749 19.1023 68.1877 18.7624 68.7371 18.5179C69.2663 18.2822 69.7927 18.1843 70.3161 18.2242C70.8433 18.2544 71.3248 18.4253 71.7606 18.737C72.1934 19.042 72.5396 19.4859 72.7991 20.0688C72.8259 20.1291 72.8539 20.2009 72.883 20.2843C72.9091 20.361 72.9337 20.4343 72.9568 20.5043L68.5654 22.4594L68.1583 21.545L71.7257 19.9567L71.2435 20.4965C71.1182 20.2151 70.9524 19.9959 70.7461 19.8389C70.5397 19.682 70.3107 19.5913 70.059 19.5669C69.8044 19.5358 69.543 19.5799 69.2751 19.6992C69.0071 19.8185 68.7961 19.9847 68.6421 20.1977C68.4918 20.4011 68.4075 20.6353 68.389 20.9004C68.3676 21.1588 68.421 21.432 68.5493 21.7201L68.6567 21.9613C68.7879 22.256 68.9679 22.489 69.1966 22.6601C69.429 22.8215 69.6893 22.9103 69.9775 22.9265C70.2693 22.933 70.5761 22.8647 70.8976 22.7215C71.1857 22.5932 71.4175 22.4379 71.5931 22.2553C71.7754 22.0698 71.9183 21.8497 72.0216 21.595L73.2583 22.128C73.1357 22.5197 72.9211 22.8762 72.6146 23.1973C72.305 23.5117 71.9057 23.7778 71.4167 23.9955ZM76.1752 21.7806L71.8186 17.2422L73.2958 16.5845L76.9852 20.5168L76.2818 20.83L75.8985 15.4257L77.225 14.8351L80.9345 18.7585L80.2311 19.0717L79.8277 13.6763L81.2145 13.0589L81.662 19.3377L80.1446 20.0133L76.9313 16.6636L77.3936 16.4578L77.6826 21.1095L76.1752 21.7806ZM86.1265 17.4463C85.6642 17.6521 85.1948 17.7969 84.7184 17.8806C84.2456 17.9546 83.848 17.9631 83.5256 17.9059L83.547 16.5478C83.8635 16.5915 84.2116 16.5891 84.5913 16.5404C84.9747 16.4821 85.3306 16.3798 85.6588 16.2337C86.0206 16.0726 86.2558 15.9157 86.3644 15.763C86.4797 15.6073 86.503 15.4524 86.4344 15.2984C86.3778 15.1711 86.2757 15.1041 86.1283 15.0975C85.9846 15.0812 85.8081 15.0996 85.5989 15.1526C85.3897 15.2056 85.1604 15.2675 84.911 15.3384C84.6683 15.4064 84.4178 15.4657 84.1595 15.5165C83.8982 15.5606 83.645 15.569 83.4 15.5416C83.155 15.5142 82.929 15.4302 82.7219 15.2896C82.5215 15.146 82.3527 14.9202 82.2155 14.612C82.0634 14.2703 82.0263 13.9256 82.1043 13.5778C82.1889 13.2271 82.386 12.8945 82.6956 12.5801C83.0021 12.259 83.4167 11.9821 83.9392 11.7494C84.3077 11.5854 84.7008 11.4585 85.1184 11.3689C85.5361 11.2793 85.9065 11.2548 86.2297 11.2956L86.2037 12.6437C85.8739 12.6059 85.563 12.6199 85.2712 12.6856C84.9831 12.7416 84.7151 12.8248 84.4672 12.9352C84.1188 13.0903 83.8851 13.2505 83.7661 13.4159C83.6471 13.5813 83.6204 13.7377 83.686 13.8851C83.7456 14.019 83.8473 14.0942 83.991 14.1105C84.1415 14.1238 84.3228 14.1073 84.5349 14.061C84.7471 14.0147 84.9745 13.9576 85.2172 13.8896C85.4636 13.812 85.7175 13.7512 85.9788 13.7071C86.2401 13.663 86.49 13.6561 86.7282 13.6865C86.9702 13.7072 87.1948 13.7878 87.4019 13.9284C87.606 14.0623 87.7766 14.2833 87.9138 14.5915C88.063 14.9265 88.0952 15.2693 88.0106 15.6201C87.9229 15.9642 87.721 16.2949 87.4048 16.6123C87.0952 16.9267 86.6691 17.2047 86.1265 17.4463Z" fill="white"/>
</g>
<g filter="url(#filter2_d_188_1837)">
<path d="M45 103.472L101.64 78.2539L101.197 88.1465L108.845 94.4367L52.205 119.654L52.6482 109.762L45 103.472Z" fill="#FF00E1"/>
<path d="M56.2653 112.267L53.1334 105.232L56.1782 103.877C56.808 103.596 57.3969 103.459 57.9449 103.464C58.4899 103.462 58.9714 103.597 59.3893 103.868C59.8072 104.14 60.1339 104.54 60.3696 105.069C60.6022 105.592 60.6796 106.099 60.6018 106.591C60.5209 107.077 60.2975 107.521 59.9314 107.925C59.5653 108.329 59.0674 108.671 58.4377 108.952L56.2972 109.905L56.7031 108.869L57.8932 111.542L56.2653 112.267ZM60.7371 110.276L57.8421 108.506L59.5806 107.732L62.4956 109.493L60.7371 110.276ZM56.7836 109.05L55.7201 108.608L57.7701 107.696C58.2725 107.472 58.6 107.198 58.7524 106.873C58.9018 106.541 58.8915 106.185 58.7215 105.803C58.5485 105.414 58.2904 105.168 57.947 105.064C57.6037 104.96 57.1808 105.02 56.6784 105.244L54.6284 106.156L55.0074 105.06L56.7836 109.05ZM66.2632 107.912C65.6468 108.186 65.0505 108.307 64.4741 108.275C63.9045 108.239 63.3999 108.071 62.9604 107.769C62.518 107.46 62.1774 107.038 61.9388 106.502C61.6972 105.959 61.6079 105.425 61.6708 104.899C61.7375 104.364 61.9363 103.882 62.2674 103.454C62.5955 103.019 63.0342 102.679 63.5835 102.434C64.1128 102.198 64.6391 102.101 65.1626 102.14C65.6898 102.171 66.1713 102.342 66.6071 102.653C67.0399 102.958 67.386 103.402 67.6455 103.985C67.6724 104.045 67.7003 104.117 67.7294 104.201C67.7555 104.277 67.7802 104.351 67.8033 104.421L63.4119 106.376L63.0047 105.461L66.5721 103.873L66.09 104.413C65.9647 104.131 65.7989 103.912 65.5925 103.755C65.3862 103.598 65.1572 103.508 64.9055 103.483C64.6508 103.452 64.3895 103.496 64.1215 103.615C63.8535 103.735 63.6426 103.901 63.4886 104.114C63.3383 104.317 63.2539 104.552 63.2355 104.817C63.2141 105.075 63.2675 105.348 63.3957 105.636L63.5031 105.877C63.6344 106.172 63.8143 106.405 64.043 106.576C64.2755 106.738 64.5357 106.827 64.8239 106.843C65.1158 106.849 65.4225 106.781 65.7441 106.638C66.0322 106.509 66.264 106.354 66.4396 106.172C66.6219 105.986 66.7647 105.766 66.868 105.511L68.1048 106.044C67.9822 106.436 67.7676 106.792 67.461 107.114C67.1515 107.428 66.7522 107.694 66.2632 107.912ZM69.8838 106.203L66.564 98.7471L68.1316 98.0491L71.4514 105.505L69.8838 106.203ZM75.6252 103.744C75.0089 104.018 74.4125 104.139 73.8362 104.107C73.2666 104.071 72.762 103.902 72.3225 103.6C71.88 103.292 71.5395 102.869 71.3008 102.333C71.0592 101.791 70.9699 101.257 71.0329 100.731C71.0995 100.196 71.2984 99.7137 71.6294 99.2853C71.9575 98.8503 72.3962 98.5104 72.9456 98.2658C73.4748 98.0302 74.0012 97.9323 74.5247 97.9722C75.0518 98.0024 75.5333 98.1733 75.9691 98.485C76.4019 98.79 76.7481 99.2339 77.0076 99.8168C77.0344 99.8771 77.0624 99.9489 77.0915 100.032C77.1176 100.109 77.1422 100.182 77.1653 100.252L72.7739 102.207L72.3668 101.293L75.9342 99.7047L75.452 100.244C75.3268 99.9631 75.1609 99.7439 74.9546 99.5869C74.7482 99.4299 74.5192 99.3393 74.2675 99.3148C74.0129 99.2837 73.7515 99.3278 73.4836 99.4472C73.2156 99.5665 73.0046 99.7326 72.8506 99.9457C72.7004 100.149 72.616 100.383 72.5976 100.648C72.5761 100.907 72.6295 101.18 72.7578 101.468L72.8652 101.709C72.9964 102.004 73.1764 102.237 73.4051 102.408C73.6375 102.569 73.8978 102.658 74.186 102.674C74.4778 102.681 74.7846 102.613 75.1061 102.469C75.3942 102.341 75.6261 102.186 75.8017 102.003C75.984 101.818 76.1268 101.598 76.2301 101.343L77.4668 101.876C77.3442 102.268 77.1297 102.624 76.8231 102.945C76.5136 103.26 76.1143 103.526 75.6252 103.744ZM82.4148 100.624L81.945 99.5691L81.7416 99.3827L80.9005 97.4935C80.7514 97.1585 80.5312 96.9435 80.24 96.8484C79.9555 96.7503 79.6022 96.7952 79.1802 96.9831C78.8921 97.1114 78.6283 97.285 78.3886 97.5041C78.1527 97.7135 77.972 97.9385 77.8463 98.179L76.7959 97.3343C76.9982 96.9953 77.2816 96.6765 77.6463 96.3776C78.0109 96.0788 78.4077 95.834 78.8364 95.6431C79.6604 95.2762 80.3867 95.1856 81.0153 95.3714C81.6438 95.5571 82.1415 96.062 82.5084 96.886L83.882 99.971L82.4148 100.624ZM80.8026 101.438C80.3805 101.626 79.9874 101.717 79.6233 101.711C79.2562 101.697 78.9371 101.603 78.666 101.426C78.3948 101.25 78.1906 101.008 78.0534 100.7C77.9103 100.378 77.862 100.062 77.9087 99.7527C77.9621 99.4399 78.1299 99.1405 78.4119 98.8544C78.6909 98.5616 79.1051 98.2929 79.6544 98.0483L81.0914 97.4085L81.4986 98.323L80.2324 98.8867C79.8639 99.0508 79.6362 99.2244 79.5492 99.4076C79.4689 99.5879 79.469 99.7684 79.5496 99.9493C79.639 100.15 79.7877 100.277 79.9954 100.329C80.2069 100.371 80.45 100.331 80.7247 100.209C80.986 100.092 81.1936 99.9278 81.3476 99.7147C81.4986 99.4949 81.5673 99.2436 81.5537 98.9607L82.117 99.5768C82.1582 99.9759 82.0684 100.333 81.8474 100.648C81.6265 100.963 81.2782 101.227 80.8026 101.438ZM87.1554 98.6099C86.6932 98.8157 86.2238 98.9605 85.7473 99.0442C85.2745 99.1182 84.8769 99.1267 84.5545 99.0696L84.5759 97.7114C84.8924 97.7551 85.2405 97.7527 85.6202 97.704C86.0037 97.6457 86.3595 97.5435 86.6878 97.3973C87.0495 97.2362 87.2847 97.0793 87.3933 96.9266C87.5086 96.7709 87.532 96.6161 87.4634 96.462C87.4067 96.3347 87.3047 96.2677 87.1572 96.2611C87.0135 96.2448 86.8371 96.2632 86.6279 96.3162C86.4187 96.3692 86.1894 96.4312 85.94 96.5021C85.6973 96.57 85.4468 96.6293 85.1884 96.6801C84.9271 96.7242 84.674 96.7326 84.429 96.7052C84.184 96.6778 83.958 96.5938 83.7509 96.4532C83.5505 96.3097 83.3817 96.0838 83.2445 95.7756C83.0924 95.4339 83.0553 95.0892 83.1332 94.7415C83.2179 94.3907 83.415 94.0581 83.7245 93.7437C84.0311 93.4226 84.4456 93.1457 84.9682 92.913C85.3366 92.749 85.7297 92.6222 86.1474 92.5325C86.565 92.4429 86.9354 92.4185 87.2586 92.4592L87.2327 93.8073C86.9028 93.7695 86.592 93.7835 86.3001 93.8492C86.012 93.9053 85.744 93.9885 85.4961 94.0988C85.1478 94.2539 84.9141 94.4142 84.795 94.5795C84.676 94.7449 84.6493 94.9013 84.7149 95.0487C84.7746 95.1827 84.8763 95.2578 85.02 95.2741C85.1704 95.2874 85.3517 95.2709 85.5639 95.2246C85.7761 95.1783 86.0035 95.1212 86.2462 95.0533C86.4926 94.9757 86.7465 94.9148 87.0078 94.8707C87.2691 94.8266 87.5189 94.8197 87.7572 94.8501C87.9992 94.8708 88.2237 94.9514 88.4308 95.092C88.6349 95.2259 88.8056 95.447 88.9428 95.7551C89.0919 96.0901 89.1242 96.433 89.0395 96.7837C88.9519 97.1278 88.7499 97.4585 88.4337 97.7759C88.1242 98.0903 87.6981 98.3683 87.1554 98.6099ZM93.3582 95.8483C92.7418 96.1227 92.1455 96.2437 91.5692 96.2113C90.9995 96.176 90.495 96.0073 90.0555 95.7053C89.613 95.3965 89.2724 94.9742 89.0338 94.4383C88.7922 93.8956 88.7029 93.3614 88.7658 92.8357C88.8325 92.3003 89.0313 91.8184 89.3624 91.3901C89.6905 90.955 90.1292 90.6152 90.6785 90.3706C91.2078 90.135 91.7341 90.0371 92.2576 90.077C92.7848 90.1072 93.2663 90.2781 93.7021 90.5898C94.1349 90.8948 94.481 91.3387 94.7405 91.9216C94.7674 91.9818 94.7953 92.0537 94.8244 92.1371C94.8505 92.2137 94.8752 92.2871 94.8983 92.357L90.5069 94.3122L90.0997 93.3978L93.6671 91.8094L93.185 92.3492C93.0597 92.0678 92.8939 91.8487 92.6875 91.6917C92.4812 91.5347 92.2522 91.444 92.0005 91.4196C91.7458 91.3885 91.4845 91.4326 91.2165 91.5519C90.9485 91.6712 90.7376 91.8374 90.5836 92.0505C90.4333 92.2539 90.3489 92.4881 90.3305 92.7532C90.3091 93.0115 90.3625 93.2848 90.4908 93.5728L90.5981 93.814C90.7294 94.1088 90.9093 94.3417 91.138 94.5128C91.3705 94.6743 91.6308 94.7631 91.9189 94.7793C92.2108 94.7858 92.5175 94.7174 92.8391 94.5743C93.1272 94.446 93.359 94.2906 93.5346 94.1081C93.7169 93.9226 93.8597 93.7024 93.9631 93.4477L95.1998 93.9808C95.0772 94.3725 94.8626 94.7289 94.5561 95.0501C94.2465 95.3645 93.8472 95.6306 93.3582 95.8483ZM98.8335 93.4105C98.3712 93.6163 97.9018 93.7611 97.4253 93.8448C96.9526 93.9188 96.555 93.9273 96.2325 93.8702L96.254 92.512C96.5705 92.5557 96.9186 92.5533 97.2983 92.5046C97.6817 92.4463 98.0375 92.3441 98.3658 92.1979C98.7276 92.0368 98.9628 91.88 99.0714 91.7272C99.1867 91.5715 99.21 91.4167 99.1414 91.2626C99.0848 91.1353 98.9827 91.0683 98.8353 91.0617C98.6915 91.0454 98.5151 91.0638 98.3059 91.1168C98.0967 91.1698 97.8674 91.2318 97.618 91.3027C97.3753 91.3706 97.1248 91.4299 96.8665 91.4807C96.6052 91.5248 96.352 91.5332 96.107 91.5058C95.862 91.4784 95.636 91.3944 95.4289 91.2538C95.2285 91.1103 95.0597 90.8844 94.9225 90.5762C94.7704 90.2346 94.7333 89.8898 94.8113 89.5421C94.8959 89.1913 95.093 88.8587 95.4026 88.5443C95.7091 88.2232 96.1237 87.9463 96.6462 87.7136C97.0147 87.5496 97.4077 87.4228 97.8254 87.3331C98.2431 87.2435 98.6135 87.2191 98.9366 87.2598L98.9107 88.6079C98.5808 88.5701 98.27 88.5841 97.9782 88.6498C97.69 88.7059 97.422 88.7891 97.1742 88.8994C96.8258 89.0545 96.5921 89.2148 96.4731 89.3801C96.3541 89.5455 96.3273 89.7019 96.393 89.8493C96.4526 89.9833 96.5543 90.0584 96.698 90.0747C96.8484 90.088 97.0297 90.0715 97.2419 90.0252C97.4541 89.9789 97.6815 89.9218 97.9242 89.8539C98.1706 89.7763 98.4245 89.7154 98.6858 89.6713C98.9471 89.6272 99.1969 89.6203 99.4352 89.6507C99.6772 89.6714 99.9018 89.7521 100.109 89.8926C100.313 90.0265 100.484 90.2476 100.621 90.5557C100.77 90.8907 100.802 91.2336 100.718 91.5843C100.63 91.9284 100.428 92.2591 100.112 92.5765C99.8022 92.8909 99.3761 93.1689 98.8335 93.4105Z" fill="white"/>
</g>
<g filter="url(#filter3_d_188_1837)">
<path d="M38.1672 136.981L115.236 102.668L114.995 112.819L122.699 119.432L45.6311 153.745L45.8717 143.594L38.1672 136.981Z" fill="#FF00E1"/>
<path d="M49.2223 145.406L46.0904 138.372L47.437 137.773L53.8421 140.99L53.189 141.28L50.934 136.216L52.5419 135.5L55.6737 142.534L54.3372 143.129L47.922 139.917L48.5752 139.626L50.8301 144.691L49.2223 145.406ZM59.8358 140.777C59.2597 141.034 58.6935 141.141 58.1372 141.1C57.5877 141.056 57.0898 140.884 56.6436 140.585C56.2012 140.276 55.8606 139.854 55.622 139.318C55.3804 138.775 55.2944 138.24 55.364 137.711C55.4374 137.173 55.643 136.688 55.9807 136.257C56.3222 135.816 56.781 135.467 57.3572 135.21C57.9266 134.957 58.4894 134.851 59.0457 134.892C59.5989 134.927 60.0953 135.095 60.5348 135.397C60.9743 135.699 61.3164 136.125 61.5609 136.674C61.7996 137.21 61.8855 137.746 61.8189 138.281C61.7492 138.81 61.5437 139.295 61.2022 139.736C60.8607 140.177 60.4053 140.524 59.8358 140.777ZM59.2631 139.491C59.5244 139.375 59.732 139.21 59.886 138.997C60.04 138.784 60.1281 138.54 60.1502 138.265C60.1694 137.984 60.1104 137.689 59.9732 137.381C59.833 137.066 59.6534 136.825 59.4344 136.657C59.2154 136.49 58.9752 136.392 58.7138 136.364C58.4524 136.336 58.1911 136.38 57.9298 136.496C57.6686 136.613 57.4609 136.778 57.3069 136.991C57.153 137.204 57.0615 137.449 57.0327 137.727C57.0105 138.002 57.0695 138.296 57.2097 138.611C57.3469 138.919 57.5265 139.161 57.7485 139.335C57.9742 139.499 58.2178 139.595 58.4792 139.623C58.7405 139.652 59.0019 139.607 59.2631 139.491ZM66.0589 138.007C65.4225 138.29 64.8551 138.35 64.3569 138.186C63.8557 138.016 63.4619 137.61 63.1755 136.967L61.0638 132.223L62.6314 131.525L64.7342 136.248C64.8356 136.476 64.975 136.627 65.1522 136.701C65.3265 136.767 65.5175 136.755 65.7252 136.662C65.9731 136.552 66.1543 136.391 66.2688 136.179L67.183 137.097C67.0729 137.282 66.9174 137.456 66.7165 137.618C66.5193 137.77 66.3001 137.899 66.0589 138.007ZM61.3527 135.117L60.8158 133.911L64.5641 132.242L65.101 133.448L61.3527 135.117ZM68.1793 136.966L65.7722 131.56L67.3399 130.862L69.747 136.268L68.1793 136.966ZM66.2205 130.457C65.9324 130.586 65.6607 130.606 65.4052 130.519C65.1498 130.432 64.9669 130.265 64.8565 130.017C64.7461 129.769 64.7441 129.521 64.8504 129.273C64.9568 129.025 65.1539 128.837 65.442 128.709C65.7301 128.58 66.0004 128.556 66.2528 128.637C66.5023 128.71 66.6822 128.871 66.7926 129.119C66.9089 129.38 66.9154 129.638 66.8121 129.893C66.7125 130.138 66.5153 130.326 66.2205 130.457ZM71.3928 135.536L68.932 130.009C68.6606 129.399 68.6252 128.833 68.8259 128.31C69.0237 127.78 69.4575 127.366 70.1274 127.068C70.3552 126.967 70.5834 126.893 70.8119 126.848C71.0472 126.799 71.2609 126.792 71.453 126.827L71.5466 128.146C71.4326 128.125 71.3146 128.121 71.1925 128.135C71.0704 128.149 70.949 128.183 70.8285 128.237C70.6007 128.339 70.453 128.485 70.3853 128.675C70.3214 128.856 70.3476 129.077 70.464 129.339L70.6877 129.841L71.0276 130.496L72.9604 134.838L71.3928 135.536ZM68.7422 131.827L68.2053 130.621L71.9536 128.952L72.4905 130.158L68.7422 131.827ZM75.1913 133.844L72.7842 128.438L74.3519 127.74L76.759 133.146L75.1913 133.844ZM73.2325 127.335C72.9444 127.464 72.6727 127.484 72.4172 127.397C72.1618 127.31 71.9789 127.143 71.8685 126.895C71.7582 126.647 71.7561 126.399 71.8624 126.151C71.9688 125.903 72.1659 125.715 72.454 125.587C72.7421 125.459 73.0124 125.435 73.2648 125.515C73.5143 125.588 73.6942 125.749 73.8046 125.997C73.9209 126.258 73.9274 126.516 73.8241 126.771C73.7245 127.016 73.5273 127.204 73.2325 127.335ZM80.8572 131.418C80.2744 131.678 79.703 131.791 79.143 131.76C78.5801 131.721 78.074 131.549 77.6248 131.244C77.1824 130.935 76.8418 130.513 76.6032 129.977C76.3616 129.434 76.2756 128.898 76.3453 128.37C76.4186 127.831 76.6309 127.343 76.982 126.906C77.3302 126.462 77.7957 126.11 78.3786 125.851C78.948 125.597 79.4974 125.497 80.0269 125.55C80.5533 125.597 81.0155 125.797 81.4133 126.149L80.4882 127.344C80.2342 127.152 79.9731 127.043 79.7051 127.018C79.4437 126.99 79.1891 127.031 78.9412 127.142C78.6732 127.261 78.4589 127.429 78.2982 127.645C78.1375 127.861 78.0427 128.108 78.0139 128.385C77.9917 128.66 78.0507 128.955 78.1909 129.27C78.3311 129.585 78.5107 129.826 78.7297 129.993C78.9555 130.158 79.2024 130.252 79.4704 130.277C79.7385 130.303 80.0065 130.256 80.2745 130.136C80.5224 130.026 80.7248 129.868 80.8818 129.661C81.0424 129.445 81.135 129.175 81.1593 128.851L82.6705 128.973C82.6634 129.498 82.5026 129.975 82.1879 130.404C81.8702 130.827 81.4267 131.164 80.8572 131.418ZM87.462 128.381L86.9922 127.326L86.7888 127.14L85.9477 125.25C85.7986 124.915 85.5784 124.7 85.2872 124.605C85.0027 124.507 84.6494 124.552 84.2274 124.74C83.9393 124.868 83.6755 125.042 83.4358 125.261C83.1999 125.47 83.0192 125.695 82.8935 125.936L81.8431 125.091C82.0454 124.752 82.3288 124.433 82.6935 124.134C83.0581 123.836 83.4549 123.591 83.8836 123.4C84.7076 123.033 85.4339 122.942 86.0625 123.128C86.691 123.314 87.1887 123.819 87.5556 124.643L88.9292 127.728L87.462 128.381ZM85.8498 129.195C85.4277 129.383 85.0346 129.474 84.6705 129.467C84.3034 129.454 83.9843 129.359 83.7132 129.183C83.442 129.007 83.2378 128.765 83.1006 128.457C82.9575 128.135 82.9092 127.819 82.9559 127.509C83.0093 127.197 83.1771 126.897 83.4591 126.611C83.7381 126.318 84.1523 126.05 84.7016 125.805L86.1386 125.165L86.5458 126.08L85.2796 126.644C84.9111 126.808 84.6834 126.981 84.5964 127.164C84.5161 127.345 84.5162 127.525 84.5968 127.706C84.6862 127.907 84.8349 128.034 85.0427 128.086C85.2541 128.128 85.4972 128.088 85.7719 127.966C86.0332 127.849 86.2408 127.685 86.3948 127.472C86.5458 127.252 86.6145 127 86.6009 126.717L87.1642 127.334C87.2054 127.733 87.1156 128.09 86.8946 128.405C86.6737 128.72 86.3254 128.983 85.8498 129.195ZM92.5945 126.192C91.9581 126.476 91.3908 126.536 90.8925 126.372C90.3913 126.202 89.9975 125.795 89.7112 125.152L87.5994 120.409L89.167 119.711L91.2699 124.434C91.3713 124.662 91.5106 124.812 91.6879 124.886C91.8622 124.953 92.0531 124.94 92.2608 124.848C92.5087 124.737 92.6899 124.576 92.8044 124.365L93.7186 125.282C93.6086 125.468 93.453 125.641 93.2521 125.803C93.0549 125.955 92.8357 126.085 92.5945 126.192ZM87.8883 123.303L87.3514 122.097L91.0997 120.428L91.6366 121.634L87.8883 123.303ZM94.715 125.152L92.3079 119.745L93.8755 119.048L96.2826 124.454L94.715 125.152ZM92.7561 118.643C92.4681 118.771 92.1963 118.792 91.9409 118.705C91.6854 118.618 91.5025 118.45 91.3921 118.203C91.2818 117.955 91.2798 117.707 91.3861 117.459C91.4924 117.211 91.6896 117.023 91.9777 116.894C92.2657 116.766 92.536 116.742 92.7885 116.822C93.0379 116.896 93.2179 117.057 93.3282 117.304C93.4446 117.566 93.4511 117.824 93.3477 118.078C93.2481 118.323 93.0509 118.512 92.7561 118.643ZM100.346 122.741C99.7697 122.998 99.2035 123.105 98.6473 123.064C98.0977 123.02 97.5999 122.848 97.1537 122.549C96.7112 122.24 96.3706 121.818 96.132 121.282C95.8904 120.739 95.8044 120.204 95.8741 119.675C95.9474 119.136 96.153 118.652 96.4908 118.22C96.8322 117.779 97.291 117.431 97.8672 117.174C98.4366 116.92 98.9995 116.814 99.5557 116.856C100.109 116.89 100.605 117.059 101.045 117.361C101.484 117.663 101.826 118.088 102.071 118.638C102.31 119.174 102.396 119.709 102.329 120.245C102.259 120.773 102.054 121.258 101.712 121.699C101.371 122.14 100.915 122.488 100.346 122.741ZM99.7732 121.455C100.034 121.339 100.242 121.174 100.396 120.961C100.55 120.748 100.638 120.504 100.66 120.229C100.679 119.948 100.62 119.653 100.483 119.345C100.343 119.03 100.163 118.789 99.9444 118.621C99.7254 118.454 99.4852 118.356 99.2238 118.328C98.9625 118.3 98.7011 118.344 98.4399 118.46C98.1786 118.577 97.971 118.741 97.817 118.954C97.663 119.167 97.5716 119.413 97.5427 119.691C97.5205 119.965 97.5796 120.26 97.7198 120.575C97.857 120.883 98.0366 121.124 98.2586 121.298C98.4843 121.463 98.7278 121.559 98.9892 121.587C99.2506 121.615 99.5119 121.571 99.7732 121.455ZM105.166 113.925C105.594 113.734 106.015 113.651 106.427 113.676C106.844 113.691 107.228 113.833 107.58 114.102C107.93 114.364 108.227 114.769 108.471 115.319L109.849 118.414L108.282 119.112L107.011 116.258C106.817 115.822 106.577 115.544 106.29 115.423C106.01 115.299 105.696 115.314 105.347 115.469C105.1 115.579 104.899 115.733 104.746 115.93C104.596 116.117 104.512 116.343 104.494 116.608C104.482 116.87 104.551 117.168 104.7 117.503L105.89 120.176L104.322 120.874L101.915 115.468L103.413 114.801L104.079 116.299L103.597 115.972C103.63 115.523 103.784 115.122 104.059 114.766C104.334 114.411 104.703 114.13 105.166 113.925ZM113.125 117.052C112.663 117.257 112.193 117.402 111.717 117.486C111.244 117.56 110.846 117.568 110.524 117.511L110.545 116.153C110.862 116.197 111.21 116.194 111.59 116.146C111.973 116.087 112.329 115.985 112.657 115.839C113.019 115.678 113.254 115.521 113.363 115.368C113.478 115.213 113.502 115.058 113.433 114.904C113.376 114.776 113.274 114.709 113.127 114.703C112.983 114.686 112.807 114.705 112.597 114.758C112.388 114.811 112.159 114.873 111.91 114.944C111.667 115.012 111.416 115.071 111.158 115.122C110.897 115.166 110.643 115.174 110.399 115.147C110.154 115.119 109.927 115.035 109.72 114.895C109.52 114.751 109.351 114.525 109.214 114.217C109.062 113.876 109.025 113.531 109.103 113.183C109.187 112.832 109.385 112.5 109.694 112.185C110.001 111.864 110.415 111.587 110.938 111.355C111.306 111.191 111.699 111.064 112.117 110.974C112.535 110.884 112.905 110.86 113.228 110.901L113.202 112.249C112.872 112.211 112.561 112.225 112.27 112.291C111.982 112.347 111.714 112.43 111.466 112.54C111.117 112.696 110.884 112.856 110.765 113.021C110.646 113.186 110.619 113.343 110.684 113.49C110.744 113.624 110.846 113.699 110.99 113.716C111.14 113.729 111.321 113.712 111.533 113.666C111.746 113.62 111.973 113.563 112.216 113.495C112.462 113.417 112.716 113.356 112.977 113.312C113.239 113.268 113.488 113.261 113.727 113.292C113.969 113.312 114.193 113.393 114.4 113.534C114.604 113.668 114.775 113.889 114.912 114.197C115.061 114.532 115.094 114.875 115.009 115.225C114.921 115.569 114.719 115.9 114.403 116.217C114.094 116.532 113.668 116.81 113.125 117.052Z" fill="white"/>
</g>
<g filter="url(#filter4_d_188_1837)">
<path d="M61.5969 66.4745C60.5888 64.7284 57.9123 65.578 58.0959 67.5859C58.1979 68.702 59.2475 69.4816 60.3454 69.2569C61.6028 68.9996 62.2386 67.586 61.5969 66.4745Z" fill="white"/>
<path fill-rule="evenodd" clip-rule="evenodd" d="M93.6653 59.0602H93.6538C93.6558 59.0602 93.6577 59.0602 93.6596 59.0602C93.6615 59.0602 93.6634 59.0602 93.6653 59.0602ZM97.383 55.3368H89.9362V55.3476C89.9362 55.344 89.9362 55.3404 89.9362 55.3368C89.9362 53.2804 91.6032 51.6134 93.6596 51.6134C95.7159 51.6134 97.383 53.2804 97.383 55.3368Z" fill="white"/>
<path fill-rule="evenodd" clip-rule="evenodd" d="M97.383 55.3368C97.383 55.3368 97.383 55.3368 97.383 55.3368C97.383 57.3932 95.7159 59.0602 93.6596 59.0602C91.6032 59.0602 89.9362 57.3932 89.9362 55.3368C89.9362 55.3332 89.9362 55.3296 89.9362 55.326V55.3368H97.383Z" fill="#E9E6E6"/>
<path d="M46 49.3793H65.3617L89.9362 39.3261V55.3367H46V49.3793Z" fill="white"/>
<path d="M46 61.2942H65.3617L89.9362 71.3474V55.3367H46V61.2942Z" fill="#E9E6E6"/>
<path fill-rule="evenodd" clip-rule="evenodd" d="M64.6169 49.1453C64.6169 48.0407 63.7215 47.1453 62.6169 47.1453H50.9786C49.8741 47.1453 48.9786 48.0407 48.9786 49.1453V62.5751C48.9786 63.1015 49.4054 63.5282 49.9318 63.5282C50.3897 63.5282 50.783 63.854 50.8682 64.3039L53.5107 78.2494C53.6896 79.1935 54.5147 79.877 55.4757 79.877H57.7766C58.8812 79.877 59.7766 78.9816 59.7766 77.877V65.5282C59.7766 64.4237 60.672 63.5282 61.7766 63.5282H62.6169C63.7215 63.5282 64.6169 62.6328 64.6169 61.5282V49.1453Z" fill="#F25022"/>
<rect x="89.9362" y="37.4644" width="3.7234" height="35.7447" rx="1.8617" fill="#F25022"/>
<path d="M104.83 53.1027L114.511 48.6346L116 53.1027H104.83Z" fill="white"/>
<path d="M102.227 48.1492L108.377 39.4393L111.901 42.5641L102.227 48.1492Z" fill="white"/>
<path d="M102.227 64.0138L108.377 72.7237L111.901 69.5989L102.227 64.0138Z" fill="white"/>
<path d="M97.6421 66.5106L98.613 77.1286L103.227 76.1843L97.6421 66.5106Z" fill="white"/>
<path d="M97.6421 44.9077L98.613 34.2898L103.227 35.2341L97.6421 44.9077Z" fill="white"/>
<path d="M104.83 58.3155L114.511 62.7836L116 58.3155H104.83Z" fill="white"/>
</g>
<defs>
<filter id="filter0_d_188_1837" x="0" y="0" width="158" height="168" filterUnits="userSpaceOnUse" color-interpolation-filters="sRGB">
<feFlood flood-opacity="0" result="BackgroundImageFix"/>
<feColorMatrix in="SourceAlpha" type="matrix" values="0 0 0 0 0 0 0 0 0 0 0 0 0 0 0 0 0 0 127 0" result="hardAlpha"/>
<feOffset dy="4"/>
<feGaussianBlur stdDeviation="2"/>
<feComposite in2="hardAlpha" operator="out"/>
<feColorMatrix type="matrix" values="0 0 0 0 0 0 0 0 0 0 0 0 0 0 0 0 0 0 0.25 0"/>
<feBlend mode="normal" in2="BackgroundImageFix" result="effect1_dropShadow_188_1837"/>
<feBlend mode="normal" in="SourceGraphic" in2="effect1_dropShadow_188_1837" result="shape"/>
</filter>
<filter id="filter1_d_188_1837" x="45.9615" y="3.25262" width="54.1896" height="40.9291" filterUnits="userSpaceOnUse" color-interpolation-filters="sRGB">
<feFlood flood-opacity="0" result="BackgroundImageFix"/>
<feColorMatrix in="SourceAlpha" type="matrix" values="0 0 0 0 0 0 0 0 0 0 0 0 0 0 0 0 0 0 127 0" result="hardAlpha"/>
<feOffset dy="4"/>
<feGaussianBlur stdDeviation="2"/>
<feComposite in2="hardAlpha" operator="out"/>
<feColorMatrix type="matrix" values="0 0 0 0 0 0 0 0 0 0 0 0 0 0 0 0 0 0 0.25 0"/>
<feBlend mode="normal" in2="BackgroundImageFix" result="effect1_dropShadow_188_1837"/>
<feBlend mode="normal" in="SourceGraphic" in2="effect1_dropShadow_188_1837" result="shape"/>
</filter>
<filter id="filter2_d_188_1837" x="41" y="78.2539" width="71.8448" height="49.4005" filterUnits="userSpaceOnUse" color-interpolation-filters="sRGB">
<feFlood flood-opacity="0" result="BackgroundImageFix"/>
<feColorMatrix in="SourceAlpha" type="matrix" values="0 0 0 0 0 0 0 0 0 0 0 0 0 0 0 0 0 0 127 0" result="hardAlpha"/>
<feOffset dy="4"/>
<feGaussianBlur stdDeviation="2"/>
<feComposite in2="hardAlpha" operator="out"/>
<feColorMatrix type="matrix" values="0 0 0 0 0 0 0 0 0 0 0 0 0 0 0 0 0 0 0.25 0"/>
<feBlend mode="normal" in2="BackgroundImageFix" result="effect1_dropShadow_188_1837"/>
<feBlend mode="normal" in="SourceGraphic" in2="effect1_dropShadow_188_1837" result="shape"/>
</filter>
<filter id="filter3_d_188_1837" x="34.1672" y="102.668" width="92.5322" height="59.0771" filterUnits="userSpaceOnUse" color-interpolation-filters="sRGB">
<feFlood flood-opacity="0" result="BackgroundImageFix"/>
<feColorMatrix in="SourceAlpha" type="matrix" values="0 0 0 0 0 0 0 0 0 0 0 0 0 0 0 0 0 0 127 0" result="hardAlpha"/>
<feOffset dy="4"/>
<feGaussianBlur stdDeviation="2"/>
<feComposite in2="hardAlpha" operator="out"/>
<feColorMatrix type="matrix" values="0 0 0 0 0 0 0 0 0 0 0 0 0 0 0 0 0 0 0.25 0"/>
<feBlend mode="normal" in2="BackgroundImageFix" result="effect1_dropShadow_188_1837"/>
<feBlend mode="normal" in="SourceGraphic" in2="effect1_dropShadow_188_1837" result="shape"/>
</filter>
<filter id="filter4_d_188_1837" x="42" y="34.2899" width="77.9999" height="53.5872" filterUnits="userSpaceOnUse" color-interpolation-filters="sRGB">
<feFlood flood-opacity="0" result="BackgroundImageFix"/>
<feColorMatrix in="SourceAlpha" type="matrix" values="0 0 0 0 0 0 0 0 0 0 0 0 0 0 0 0 0 0 127 0" result="hardAlpha"/>
<feOffset dy="4"/>
<feGaussianBlur stdDeviation="2"/>
<feComposite in2="hardAlpha" operator="out"/>
<feColorMatrix type="matrix" values="0 0 0 0 0 0 0 0 0 0 0 0 0 0 0 0 0 0 0.25 0"/>
<feBlend mode="normal" in2="BackgroundImageFix" result="effect1_dropShadow_188_1837"/>
<feBlend mode="normal" in="SourceGraphic" in2="effect1_dropShadow_188_1837" result="shape"/>
</filter>
<linearGradient id="paint0_linear_188_1837" x1="154" y1="80" x2="111.294" y2="80" gradientUnits="userSpaceOnUse">
<stop offset="0.15" stop-color="#03BFFE"/>
<stop offset="0.5" stop-color="#1D4CB3"/>
<stop offset="0.675" stop-color="#0F1742"/>
</linearGradient>
<linearGradient id="paint1_linear_188_1837" x1="4" y1="80" x2="46.706" y2="80" gradientUnits="userSpaceOnUse">
<stop offset="0.15" stop-color="#03BFFE"/>
<stop offset="0.5" stop-color="#1D4CB3"/>
<stop offset="0.675" stop-color="#0F1742"/>
</linearGradient>
</defs>
</svg>
