<svg width="158" height="168" viewBox="0 0 158 168" fill="none" xmlns="http://www.w3.org/2000/svg">
<g filter="url(#filter0_d_168_628)">
<path fill-rule="evenodd" clip-rule="evenodd" d="M18 62.9672C10.182 62.4526 4 55.9482 4 48C4 39.7157 10.7157 33 19 33C24.7561 33 29.7549 36.2422 32.2699 41H108V63H19H18V62.9672Z" fill="#03BFFE"/>
<path d="M16.64 46.64H23.38V49.16H16.64V46.64ZM16.88 52.4H24.5V55H13.66V41H24.24V43.6H16.88V52.4ZM28.47 55L25.306 47.468H27.56L30.192 53.95H29.072L31.802 47.468H33.902L30.724 55H28.47ZM38.3261 55.112C37.4674 55.112 36.7114 54.944 36.0581 54.608C35.4141 54.272 34.9147 53.8147 34.5601 53.236C34.2054 52.648 34.0281 51.9807 34.0281 51.234C34.0281 50.478 34.2007 49.8107 34.5461 49.232C34.9007 48.644 35.3814 48.1867 35.9881 47.86C36.5947 47.524 37.2807 47.356 38.0461 47.356C38.7834 47.356 39.4461 47.5147 40.0341 47.832C40.6314 48.14 41.1027 48.588 41.4481 49.176C41.7934 49.7547 41.9661 50.45 41.9661 51.262C41.9661 51.346 41.9614 51.444 41.9521 51.556C41.9427 51.6587 41.9334 51.7567 41.9241 51.85H35.8061V50.576H40.7761L39.9361 50.954C39.9361 50.562 39.8567 50.2213 39.6981 49.932C39.5394 49.6427 39.3201 49.4187 39.0401 49.26C38.7601 49.092 38.4334 49.008 38.0601 49.008C37.6867 49.008 37.3554 49.092 37.0661 49.26C36.7861 49.4187 36.5667 49.6473 36.4081 49.946C36.2494 50.2353 36.1701 50.5807 36.1701 50.982V51.318C36.1701 51.7287 36.2587 52.0927 36.4361 52.41C36.6227 52.718 36.8794 52.956 37.2061 53.124C37.5421 53.2827 37.9341 53.362 38.3821 53.362C38.7834 53.362 39.1334 53.3013 39.4321 53.18C39.7401 53.0587 40.0201 52.8767 40.2721 52.634L41.4341 53.894C41.0887 54.286 40.6547 54.5893 40.1321 54.804C39.6094 55.0093 39.0074 55.112 38.3261 55.112ZM47.9981 47.356C48.5954 47.356 49.1274 47.4773 49.5941 47.72C50.0701 47.9533 50.4434 48.3173 50.7141 48.812C50.9848 49.2973 51.1201 49.9227 51.1201 50.688V55H48.9361V51.024C48.9361 50.4173 48.8008 49.9693 48.5301 49.68C48.2688 49.3907 47.8954 49.246 47.4101 49.246C47.0648 49.246 46.7521 49.3207 46.4721 49.47C46.2014 49.61 45.9868 49.8293 45.8281 50.128C45.6788 50.4267 45.6041 50.8093 45.6041 51.276V55H43.4201V47.468H45.5061V49.554L45.1141 48.924C45.3848 48.42 45.7721 48.0327 46.2761 47.762C46.7801 47.4913 47.3541 47.356 47.9981 47.356ZM56.1798 55.112C55.2931 55.112 54.6025 54.888 54.1078 54.44C53.6131 53.9827 53.3658 53.306 53.3658 52.41V45.802H55.5498V52.382C55.5498 52.6993 55.6338 52.9467 55.8018 53.124C55.9698 53.292 56.1985 53.376 56.4878 53.376C56.8331 53.376 57.1271 53.2827 57.3698 53.096L57.9578 54.636C57.7338 54.7947 57.4631 54.916 57.1458 55C56.8378 55.0747 56.5158 55.112 56.1798 55.112ZM52.2038 49.316V47.636H57.4258V49.316H52.2038ZM61.7178 55.112C61.0738 55.112 60.4531 55.0373 59.8558 54.888C59.2678 54.7293 58.8011 54.5333 58.4558 54.3L59.1838 52.732C59.5291 52.9467 59.9351 53.124 60.4018 53.264C60.8778 53.3947 61.3444 53.46 61.8018 53.46C62.3058 53.46 62.6604 53.3993 62.8658 53.278C63.0804 53.1567 63.1878 52.9887 63.1878 52.774C63.1878 52.5967 63.1038 52.466 62.9358 52.382C62.7771 52.2887 62.5624 52.2187 62.2918 52.172C62.0211 52.1253 61.7224 52.0787 61.3958 52.032C61.0784 51.9853 60.7564 51.9247 60.4298 51.85C60.1031 51.766 59.8044 51.6447 59.5338 51.486C59.2631 51.3273 59.0438 51.1127 58.8758 50.842C58.7171 50.5713 58.6378 50.2213 58.6378 49.792C58.6378 49.316 58.7731 48.896 59.0438 48.532C59.3238 48.168 59.7251 47.8833 60.2478 47.678C60.7704 47.4633 61.3958 47.356 62.1238 47.356C62.6371 47.356 63.1598 47.412 63.6918 47.524C64.2238 47.636 64.6671 47.7993 65.0218 48.014L64.2938 49.568C63.9298 49.3533 63.5611 49.2087 63.1878 49.134C62.8238 49.05 62.4691 49.008 62.1238 49.008C61.6384 49.008 61.2838 49.0733 61.0598 49.204C60.8358 49.3347 60.7238 49.5027 60.7238 49.708C60.7238 49.8947 60.8031 50.0347 60.9618 50.128C61.1298 50.2213 61.3491 50.296 61.6198 50.352C61.8904 50.408 62.1844 50.4593 62.5018 50.506C62.8284 50.5433 63.1551 50.604 63.4818 50.688C63.8084 50.772 64.1024 50.8933 64.3638 51.052C64.6344 51.2013 64.8538 51.4113 65.0218 51.682C65.1898 51.9433 65.2738 52.2887 65.2738 52.718C65.2738 53.1847 65.1338 53.6 64.8538 53.964C64.5738 54.3187 64.1678 54.5987 63.6358 54.804C63.1131 55.0093 62.4738 55.112 61.7178 55.112Z" fill="white"/>
<path fill-rule="evenodd" clip-rule="evenodd" d="M18 29.9672C10.182 29.4526 4 22.9482 4 15C4 6.71573 10.7157 0 19 0C24.7561 0 29.7549 3.2422 32.2699 8H108V30H19H18V29.9672Z" fill="#1D4CB3"/>
<path d="M13.66 22V8H16.34L22.3 17.88H20.88L26.74 8H29.4L29.44 22H26.4L26.38 12.66H26.94L22.26 20.52H20.8L16.02 12.66H16.7V22H13.66ZM35.8476 22.112C34.9889 22.112 34.2329 21.944 33.5796 21.608C32.9356 21.272 32.4362 20.8147 32.0816 20.236C31.7269 19.648 31.5496 18.9807 31.5496 18.234C31.5496 17.478 31.7222 16.8107 32.0676 16.232C32.4222 15.644 32.9029 15.1867 33.5096 14.86C34.1162 14.524 34.8022 14.356 35.5676 14.356C36.3049 14.356 36.9676 14.5147 37.5556 14.832C38.1529 15.14 38.6242 15.588 38.9696 16.176C39.3149 16.7547 39.4876 17.45 39.4876 18.262C39.4876 18.346 39.4829 18.444 39.4736 18.556C39.4642 18.6587 39.4549 18.7567 39.4456 18.85H33.3276V17.576H38.2976L37.4576 17.954C37.4576 17.562 37.3782 17.2213 37.2196 16.932C37.0609 16.6427 36.8416 16.4187 36.5616 16.26C36.2816 16.092 35.9549 16.008 35.5816 16.008C35.2082 16.008 34.8769 16.092 34.5876 16.26C34.3076 16.4187 34.0882 16.6473 33.9296 16.946C33.7709 17.2353 33.6916 17.5807 33.6916 17.982V18.318C33.6916 18.7287 33.7802 19.0927 33.9576 19.41C34.1442 19.718 34.4009 19.956 34.7276 20.124C35.0636 20.2827 35.4556 20.362 35.9036 20.362C36.3049 20.362 36.6549 20.3013 36.9536 20.18C37.2616 20.0587 37.5416 19.8767 37.7936 19.634L38.9556 20.894C38.6102 21.286 38.1762 21.5893 37.6536 21.804C37.1309 22.0093 36.5289 22.112 35.8476 22.112ZM44.0216 22.112C43.1349 22.112 42.4443 21.888 41.9496 21.44C41.4549 20.9827 41.2076 20.306 41.2076 19.41V12.802H43.3916V19.382C43.3916 19.6993 43.4756 19.9467 43.6436 20.124C43.8116 20.292 44.0403 20.376 44.3296 20.376C44.6749 20.376 44.9689 20.2827 45.2116 20.096L45.7996 21.636C45.5756 21.7947 45.3049 21.916 44.9876 22C44.6796 22.0747 44.3576 22.112 44.0216 22.112ZM40.0456 16.316V14.636H45.2676V16.316H40.0456ZM47.0256 22V14.468H49.1116V16.596L48.8176 15.98C49.0416 15.448 49.4009 15.0467 49.8956 14.776C50.3902 14.496 50.9922 14.356 51.7016 14.356V16.372C51.6082 16.3627 51.5242 16.358 51.4496 16.358C51.3749 16.3487 51.2956 16.344 51.2116 16.344C50.6142 16.344 50.1289 16.5167 49.7556 16.862C49.3916 17.198 49.2096 17.7253 49.2096 18.444V22H47.0256ZM53.0139 22V14.468H55.1979V22H53.0139ZM54.1059 13.418C53.7045 13.418 53.3779 13.3013 53.1259 13.068C52.8739 12.8347 52.7479 12.5453 52.7479 12.2C52.7479 11.8547 52.8739 11.5653 53.1259 11.332C53.3779 11.0987 53.7045 10.982 54.1059 10.982C54.5072 10.982 54.8339 11.094 55.0859 11.318C55.3379 11.5327 55.4639 11.8127 55.4639 12.158C55.4639 12.522 55.3379 12.8253 55.0859 13.068C54.8432 13.3013 54.5165 13.418 54.1059 13.418ZM60.8648 22.112C60.0528 22.112 59.3295 21.9487 58.6948 21.622C58.0601 21.286 57.5608 20.824 57.1968 20.236C56.8421 19.648 56.6648 18.9807 56.6648 18.234C56.6648 17.478 56.8421 16.8107 57.1968 16.232C57.5608 15.644 58.0601 15.1867 58.6948 14.86C59.3295 14.524 60.0528 14.356 60.8648 14.356C61.6581 14.356 62.3488 14.524 62.9368 14.86C63.5248 15.1867 63.9588 15.658 64.2388 16.274L62.5448 17.184C62.3488 16.8293 62.1015 16.568 61.8028 16.4C61.5135 16.232 61.1961 16.148 60.8508 16.148C60.4775 16.148 60.1415 16.232 59.8428 16.4C59.5441 16.568 59.3061 16.806 59.1288 17.114C58.9608 17.422 58.8768 17.7953 58.8768 18.234C58.8768 18.6727 58.9608 19.046 59.1288 19.354C59.3061 19.662 59.5441 19.9 59.8428 20.068C60.1415 20.236 60.4775 20.32 60.8508 20.32C61.1961 20.32 61.5135 20.2407 61.8028 20.082C62.1015 19.914 62.3488 19.648 62.5448 19.284L64.2388 20.208C63.9588 20.8147 63.5248 21.286 62.9368 21.622C62.3488 21.9487 61.6581 22.112 60.8648 22.112ZM68.0303 22.112C67.3863 22.112 66.7656 22.0373 66.1683 21.888C65.5803 21.7293 65.1136 21.5333 64.7683 21.3L65.4963 19.732C65.8416 19.9467 66.2476 20.124 66.7143 20.264C67.1903 20.3947 67.6569 20.46 68.1143 20.46C68.6183 20.46 68.9729 20.3993 69.1783 20.278C69.3929 20.1567 69.5003 19.9887 69.5003 19.774C69.5003 19.5967 69.4163 19.466 69.2483 19.382C69.0896 19.2887 68.8749 19.2187 68.6043 19.172C68.3336 19.1253 68.0349 19.0787 67.7083 19.032C67.3909 18.9853 67.0689 18.9247 66.7423 18.85C66.4156 18.766 66.1169 18.6447 65.8463 18.486C65.5756 18.3273 65.3563 18.1127 65.1883 17.842C65.0296 17.5713 64.9503 17.2213 64.9503 16.792C64.9503 16.316 65.0856 15.896 65.3563 15.532C65.6363 15.168 66.0376 14.8833 66.5603 14.678C67.0829 14.4633 67.7083 14.356 68.4363 14.356C68.9496 14.356 69.4723 14.412 70.0043 14.524C70.5363 14.636 70.9796 14.7993 71.3343 15.014L70.6063 16.568C70.2423 16.3533 69.8736 16.2087 69.5003 16.134C69.1363 16.05 68.7816 16.008 68.4363 16.008C67.9509 16.008 67.5963 16.0733 67.3723 16.204C67.1483 16.3347 67.0363 16.5027 67.0363 16.708C67.0363 16.8947 67.1156 17.0347 67.2743 17.128C67.4423 17.2213 67.6616 17.296 67.9323 17.352C68.2029 17.408 68.4969 17.4593 68.8143 17.506C69.1409 17.5433 69.4676 17.604 69.7943 17.688C70.1209 17.772 70.4149 17.8933 70.6763 18.052C70.9469 18.2013 71.1663 18.4113 71.3343 18.682C71.5023 18.9433 71.5863 19.2887 71.5863 19.718C71.5863 20.1847 71.4463 20.6 71.1663 20.964C70.8863 21.3187 70.4803 21.5987 69.9483 21.804C69.4256 22.0093 68.7863 22.112 68.0303 22.112Z" fill="white"/>
<path fill-rule="evenodd" clip-rule="evenodd" d="M18 94.9672C10.182 94.4526 4 87.9482 4 80C4 71.7157 10.7157 65 19 65C24.7561 65 29.7549 68.2422 32.2699 73H108V95H19H18V94.9672Z" fill="#FF00E1"/>
<path d="M13.66 87V73H16.9V84.36H23.92V87H13.66ZM28.6623 87.112C27.8596 87.112 27.1456 86.944 26.5203 86.608C25.9043 86.272 25.4143 85.8147 25.0503 85.236C24.6956 84.648 24.5183 83.9807 24.5183 83.234C24.5183 82.478 24.6956 81.8107 25.0503 81.232C25.4143 80.644 25.9043 80.1867 26.5203 79.86C27.1456 79.524 27.8596 79.356 28.6623 79.356C29.4556 79.356 30.165 79.524 30.7903 79.86C31.4156 80.1867 31.9056 80.6393 32.2603 81.218C32.615 81.7967 32.7923 82.4687 32.7923 83.234C32.7923 83.9807 32.615 84.648 32.2603 85.236C31.9056 85.8147 31.4156 86.272 30.7903 86.608C30.165 86.944 29.4556 87.112 28.6623 87.112ZM28.6623 85.32C29.0263 85.32 29.353 85.236 29.6423 85.068C29.9316 84.9 30.1603 84.662 30.3283 84.354C30.4963 84.0367 30.5803 83.6633 30.5803 83.234C30.5803 82.7953 30.4963 82.422 30.3283 82.114C30.1603 81.806 29.9316 81.568 29.6423 81.4C29.353 81.232 29.0263 81.148 28.6623 81.148C28.2983 81.148 27.9716 81.232 27.6823 81.4C27.393 81.568 27.1596 81.806 26.9823 82.114C26.8143 82.422 26.7303 82.7953 26.7303 83.234C26.7303 83.6633 26.8143 84.0367 26.9823 84.354C27.1596 84.662 27.393 84.9 27.6823 85.068C27.9716 85.236 28.2983 85.32 28.6623 85.32ZM37.7941 89.828C37.0848 89.828 36.3988 89.7393 35.7361 89.562C35.0828 89.394 34.5368 89.1373 34.0981 88.792L34.9661 87.224C35.2835 87.4853 35.6848 87.6907 36.1701 87.84C36.6648 87.9987 37.1501 88.078 37.6261 88.078C38.4008 88.078 38.9608 87.9053 39.3061 87.56C39.6608 87.2147 39.8381 86.7013 39.8381 86.02V84.886L39.9781 82.996L39.9501 81.092V79.468H42.0221V85.74C42.0221 87.14 41.6581 88.1713 40.9301 88.834C40.2021 89.4967 39.1568 89.828 37.7941 89.828ZM37.4581 86.636C36.7581 86.636 36.1235 86.4867 35.5541 86.188C34.9941 85.88 34.5415 85.4553 34.1961 84.914C33.8601 84.3633 33.6921 83.724 33.6921 82.996C33.6921 82.2587 33.8601 81.6193 34.1961 81.078C34.5415 80.5273 34.9941 80.1027 35.5541 79.804C36.1235 79.5053 36.7581 79.356 37.4581 79.356C38.0928 79.356 38.6528 79.4867 39.1381 79.748C39.6235 80 40.0015 80.3967 40.2721 80.938C40.5428 81.47 40.6781 82.156 40.6781 82.996C40.6781 83.8267 40.5428 84.5127 40.2721 85.054C40.0015 85.586 39.6235 85.9827 39.1381 86.244C38.6528 86.5053 38.0928 86.636 37.4581 86.636ZM37.8921 84.844C38.2748 84.844 38.6155 84.7693 38.9141 84.62C39.2128 84.4613 39.4461 84.242 39.6141 83.962C39.7821 83.682 39.8661 83.36 39.8661 82.996C39.8661 82.6227 39.7821 82.3007 39.6141 82.03C39.4461 81.75 39.2128 81.5353 38.9141 81.386C38.6155 81.2273 38.2748 81.148 37.8921 81.148C37.5095 81.148 37.1688 81.2273 36.8701 81.386C36.5715 81.5353 36.3335 81.75 36.1561 82.03C35.9881 82.3007 35.9041 82.6227 35.9041 82.996C35.9041 83.36 35.9881 83.682 36.1561 83.962C36.3335 84.242 36.5715 84.4613 36.8701 84.62C37.1688 84.7693 37.5095 84.844 37.8921 84.844ZM46.5889 87.112C45.9449 87.112 45.3242 87.0373 44.7269 86.888C44.1389 86.7293 43.6722 86.5333 43.3269 86.3L44.0549 84.732C44.4002 84.9467 44.8062 85.124 45.2729 85.264C45.7489 85.3947 46.2155 85.46 46.6729 85.46C47.1769 85.46 47.5315 85.3993 47.7369 85.278C47.9515 85.1567 48.0589 84.9887 48.0589 84.774C48.0589 84.5967 47.9749 84.466 47.8069 84.382C47.6482 84.2887 47.4335 84.2187 47.1629 84.172C46.8922 84.1253 46.5935 84.0787 46.2669 84.032C45.9495 83.9853 45.6275 83.9247 45.3009 83.85C44.9742 83.766 44.6755 83.6447 44.4049 83.486C44.1342 83.3273 43.9149 83.1127 43.7469 82.842C43.5882 82.5713 43.5089 82.2213 43.5089 81.792C43.5089 81.316 43.6442 80.896 43.9149 80.532C44.1949 80.168 44.5962 79.8833 45.1189 79.678C45.6415 79.4633 46.2669 79.356 46.9949 79.356C47.5082 79.356 48.0309 79.412 48.5629 79.524C49.0949 79.636 49.5382 79.7993 49.8929 80.014L49.1649 81.568C48.8009 81.3533 48.4322 81.2087 48.0589 81.134C47.6949 81.05 47.3402 81.008 46.9949 81.008C46.5095 81.008 46.1549 81.0733 45.9309 81.204C45.7069 81.3347 45.5949 81.5027 45.5949 81.708C45.5949 81.8947 45.6742 82.0347 45.8329 82.128C46.0009 82.2213 46.2202 82.296 46.4909 82.352C46.7615 82.408 47.0555 82.4593 47.3729 82.506C47.6995 82.5433 48.0262 82.604 48.3529 82.688C48.6795 82.772 48.9735 82.8933 49.2349 83.052C49.5055 83.2013 49.7249 83.4113 49.8929 83.682C50.0609 83.9433 50.1449 84.2887 50.1449 84.718C50.1449 85.1847 50.0049 85.6 49.7249 85.964C49.4449 86.3187 49.0389 86.5987 48.5069 86.804C47.9842 87.0093 47.3449 87.112 46.5889 87.112Z" fill="white"/>
<path fill-rule="evenodd" clip-rule="evenodd" d="M18 127.967C10.182 127.453 4 120.948 4 113C4 104.716 10.7157 98 19 98C24.7561 98 29.7549 101.242 32.2699 106H108V128H19H18V127.967Z" fill="#F25022"/>
<path d="M16.56 120V108.64H12.08V106H24.28V108.64H19.8V120H16.56ZM25.3713 120V112.468H27.4573V114.596L27.1633 113.98C27.3873 113.448 27.7466 113.047 28.2413 112.776C28.7359 112.496 29.3379 112.356 30.0473 112.356V114.372C29.9539 114.363 29.8699 114.358 29.7953 114.358C29.7206 114.349 29.6413 114.344 29.5573 114.344C28.9599 114.344 28.4746 114.517 28.1013 114.862C27.7373 115.198 27.5553 115.725 27.5553 116.444V120H25.3713ZM35.4737 120V118.53L35.3337 118.208V115.576C35.3337 115.109 35.189 114.745 34.8997 114.484C34.6197 114.223 34.1857 114.092 33.5977 114.092C33.1964 114.092 32.7997 114.157 32.4077 114.288C32.025 114.409 31.6984 114.577 31.4277 114.792L30.6437 113.266C31.0544 112.977 31.549 112.753 32.1277 112.594C32.7064 112.435 33.2944 112.356 33.8917 112.356C35.0397 112.356 35.931 112.627 36.5657 113.168C37.2004 113.709 37.5177 114.554 37.5177 115.702V120H35.4737ZM33.1777 120.112C32.5897 120.112 32.0857 120.014 31.6657 119.818C31.2457 119.613 30.9237 119.337 30.6997 118.992C30.4757 118.647 30.3637 118.259 30.3637 117.83C30.3637 117.382 30.471 116.99 30.6857 116.654C30.9097 116.318 31.2597 116.057 31.7357 115.87C32.2117 115.674 32.8324 115.576 33.5977 115.576H35.5997V116.85H33.8357C33.3224 116.85 32.9677 116.934 32.7717 117.102C32.585 117.27 32.4917 117.48 32.4917 117.732C32.4917 118.012 32.599 118.236 32.8137 118.404C33.0377 118.563 33.341 118.642 33.7237 118.642C34.0877 118.642 34.4144 118.558 34.7037 118.39C34.993 118.213 35.203 117.956 35.3337 117.62L35.6697 118.628C35.511 119.113 35.2217 119.482 34.8017 119.734C34.3817 119.986 33.8404 120.112 33.1777 120.112ZM43.189 120.112C42.377 120.112 41.6537 119.949 41.019 119.622C40.3843 119.286 39.885 118.824 39.521 118.236C39.1663 117.648 38.989 116.981 38.989 116.234C38.989 115.478 39.1663 114.811 39.521 114.232C39.885 113.644 40.3843 113.187 41.019 112.86C41.6537 112.524 42.377 112.356 43.189 112.356C43.9823 112.356 44.673 112.524 45.261 112.86C45.849 113.187 46.283 113.658 46.563 114.274L44.869 115.184C44.673 114.829 44.4257 114.568 44.127 114.4C43.8377 114.232 43.5203 114.148 43.175 114.148C42.8017 114.148 42.4657 114.232 42.167 114.4C41.8683 114.568 41.6303 114.806 41.453 115.114C41.285 115.422 41.201 115.795 41.201 116.234C41.201 116.673 41.285 117.046 41.453 117.354C41.6303 117.662 41.8683 117.9 42.167 118.068C42.4657 118.236 42.8017 118.32 43.175 118.32C43.5203 118.32 43.8377 118.241 44.127 118.082C44.4257 117.914 44.673 117.648 44.869 117.284L46.563 118.208C46.283 118.815 45.849 119.286 45.261 119.622C44.673 119.949 43.9823 120.112 43.189 120.112ZM51.4628 120.112C50.6041 120.112 49.8481 119.944 49.1948 119.608C48.5508 119.272 48.0515 118.815 47.6968 118.236C47.3421 117.648 47.1648 116.981 47.1648 116.234C47.1648 115.478 47.3375 114.811 47.6828 114.232C48.0375 113.644 48.5181 113.187 49.1248 112.86C49.7315 112.524 50.4175 112.356 51.1828 112.356C51.9201 112.356 52.5828 112.515 53.1708 112.832C53.7681 113.14 54.2395 113.588 54.5848 114.176C54.9301 114.755 55.1028 115.45 55.1028 116.262C55.1028 116.346 55.0981 116.444 55.0888 116.556C55.0795 116.659 55.0701 116.757 55.0608 116.85H48.9428V115.576H53.9128L53.0728 115.954C53.0728 115.562 52.9935 115.221 52.8348 114.932C52.6761 114.643 52.4568 114.419 52.1768 114.26C51.8968 114.092 51.5701 114.008 51.1968 114.008C50.8235 114.008 50.4921 114.092 50.2028 114.26C49.9228 114.419 49.7035 114.647 49.5448 114.946C49.3861 115.235 49.3068 115.581 49.3068 115.982V116.318C49.3068 116.729 49.3955 117.093 49.5728 117.41C49.7595 117.718 50.0161 117.956 50.3428 118.124C50.6788 118.283 51.0708 118.362 51.5188 118.362C51.9201 118.362 52.2701 118.301 52.5688 118.18C52.8768 118.059 53.1568 117.877 53.4088 117.634L54.5708 118.894C54.2255 119.286 53.7915 119.589 53.2688 119.804C52.7461 120.009 52.1441 120.112 51.4628 120.112ZM59.0908 120.112C58.4468 120.112 57.8262 120.037 57.2288 119.888C56.6408 119.729 56.1742 119.533 55.8288 119.3L56.5568 117.732C56.9022 117.947 57.3082 118.124 57.7748 118.264C58.2508 118.395 58.7175 118.46 59.1748 118.46C59.6788 118.46 60.0335 118.399 60.2388 118.278C60.4535 118.157 60.5608 117.989 60.5608 117.774C60.5608 117.597 60.4768 117.466 60.3088 117.382C60.1502 117.289 59.9355 117.219 59.6648 117.172C59.3942 117.125 59.0955 117.079 58.7688 117.032C58.4515 116.985 58.1295 116.925 57.8028 116.85C57.4762 116.766 57.1775 116.645 56.9068 116.486C56.6362 116.327 56.4168 116.113 56.2488 115.842C56.0902 115.571 56.0108 115.221 56.0108 114.792C56.0108 114.316 56.1462 113.896 56.4168 113.532C56.6968 113.168 57.0982 112.883 57.6208 112.678C58.1435 112.463 58.7688 112.356 59.4968 112.356C60.0102 112.356 60.5328 112.412 61.0648 112.524C61.5968 112.636 62.0402 112.799 62.3948 113.014L61.6668 114.568C61.3028 114.353 60.9342 114.209 60.5608 114.134C60.1968 114.05 59.8422 114.008 59.4968 114.008C59.0115 114.008 58.6568 114.073 58.4328 114.204C58.2088 114.335 58.0968 114.503 58.0968 114.708C58.0968 114.895 58.1762 115.035 58.3348 115.128C58.5028 115.221 58.7222 115.296 58.9928 115.352C59.2635 115.408 59.5575 115.459 59.8748 115.506C60.2015 115.543 60.5282 115.604 60.8548 115.688C61.1815 115.772 61.4755 115.893 61.7368 116.052C62.0075 116.201 62.2268 116.411 62.3948 116.682C62.5628 116.943 62.6468 117.289 62.6468 117.718C62.6468 118.185 62.5068 118.6 62.2268 118.964C61.9468 119.319 61.5408 119.599 61.0088 119.804C60.4862 120.009 59.8468 120.112 59.0908 120.112Z" fill="white"/>
<path fill-rule="evenodd" clip-rule="evenodd" d="M18 159.967C10.182 159.453 4 152.948 4 145C4 136.716 10.7157 130 19 130C24.7561 130 29.7549 133.242 32.2699 138H108V160H19H18V159.967Z" fill="#FFB902"/>
<path d="M17.64 151.144V140.056H20.736V151.144H17.64ZM13.488 147.064V144.136H24.912V147.064H13.488ZM40.986 146.356C41.5834 146.356 42.1107 146.477 42.568 146.72C43.0347 146.953 43.3987 147.317 43.66 147.812C43.9307 148.297 44.066 148.923 44.066 149.688V154H41.882V150.024C41.882 149.417 41.756 148.969 41.504 148.68C41.252 148.391 40.8974 148.246 40.44 148.246C40.1227 148.246 39.838 148.321 39.586 148.47C39.334 148.61 39.138 148.825 38.998 149.114C38.858 149.403 38.788 149.772 38.788 150.22V154H36.604V150.024C36.604 149.417 36.478 148.969 36.226 148.68C35.9834 148.391 35.6334 148.246 35.176 148.246C34.8587 148.246 34.574 148.321 34.322 148.47C34.07 148.61 33.874 148.825 33.734 149.114C33.594 149.403 33.524 149.772 33.524 150.22V154H31.34V146.468H33.426V148.526L33.034 147.924C33.2954 147.411 33.664 147.023 34.14 146.762C34.6254 146.491 35.176 146.356 35.792 146.356C36.4827 146.356 37.0847 146.533 37.598 146.888C38.1207 147.233 38.466 147.765 38.634 148.484L37.864 148.274C38.116 147.686 38.5174 147.219 39.068 146.874C39.628 146.529 40.2674 146.356 40.986 146.356ZM49.6623 154.112C48.8596 154.112 48.1456 153.944 47.5203 153.608C46.9043 153.272 46.4143 152.815 46.0503 152.236C45.6956 151.648 45.5183 150.981 45.5183 150.234C45.5183 149.478 45.6956 148.811 46.0503 148.232C46.4143 147.644 46.9043 147.187 47.5203 146.86C48.1456 146.524 48.8596 146.356 49.6623 146.356C50.4556 146.356 51.165 146.524 51.7903 146.86C52.4156 147.187 52.9056 147.639 53.2603 148.218C53.615 148.797 53.7923 149.469 53.7923 150.234C53.7923 150.981 53.615 151.648 53.2603 152.236C52.9056 152.815 52.4156 153.272 51.7903 153.608C51.165 153.944 50.4556 154.112 49.6623 154.112ZM49.6623 152.32C50.0263 152.32 50.353 152.236 50.6423 152.068C50.9316 151.9 51.1603 151.662 51.3283 151.354C51.4963 151.037 51.5803 150.663 51.5803 150.234C51.5803 149.795 51.4963 149.422 51.3283 149.114C51.1603 148.806 50.9316 148.568 50.6423 148.4C50.353 148.232 50.0263 148.148 49.6623 148.148C49.2983 148.148 48.9716 148.232 48.6823 148.4C48.393 148.568 48.1596 148.806 47.9823 149.114C47.8143 149.422 47.7303 149.795 47.7303 150.234C47.7303 150.663 47.8143 151.037 47.9823 151.354C48.1596 151.662 48.393 151.9 48.6823 152.068C48.9716 152.236 49.2983 152.32 49.6623 152.32ZM55.2521 154V146.468H57.3381V148.596L57.0441 147.98C57.2681 147.448 57.6275 147.047 58.1221 146.776C58.6168 146.496 59.2188 146.356 59.9281 146.356V148.372C59.8348 148.363 59.7508 148.358 59.6761 148.358C59.6015 148.349 59.5221 148.344 59.4381 148.344C58.8408 148.344 58.3555 148.517 57.9821 148.862C57.6181 149.198 57.4361 149.725 57.4361 150.444V154H55.2521ZM64.9101 154.112C64.0514 154.112 63.2954 153.944 62.6421 153.608C61.9981 153.272 61.4987 152.815 61.1441 152.236C60.7894 151.648 60.6121 150.981 60.6121 150.234C60.6121 149.478 60.7847 148.811 61.1301 148.232C61.4847 147.644 61.9654 147.187 62.5721 146.86C63.1787 146.524 63.8647 146.356 64.6301 146.356C65.3674 146.356 66.0301 146.515 66.6181 146.832C67.2154 147.14 67.6867 147.588 68.0321 148.176C68.3774 148.755 68.5501 149.45 68.5501 150.262C68.5501 150.346 68.5454 150.444 68.5361 150.556C68.5267 150.659 68.5174 150.757 68.5081 150.85H62.3901V149.576H67.3601L66.5201 149.954C66.5201 149.562 66.4407 149.221 66.2821 148.932C66.1234 148.643 65.9041 148.419 65.6241 148.26C65.3441 148.092 65.0174 148.008 64.6441 148.008C64.2707 148.008 63.9394 148.092 63.6501 148.26C63.3701 148.419 63.1507 148.647 62.9921 148.946C62.8334 149.235 62.7541 149.581 62.7541 149.982V150.318C62.7541 150.729 62.8427 151.093 63.0201 151.41C63.2067 151.718 63.4634 151.956 63.7901 152.124C64.1261 152.283 64.5181 152.362 64.9661 152.362C65.3674 152.362 65.7174 152.301 66.0161 152.18C66.3241 152.059 66.6041 151.877 66.8561 151.634L68.0181 152.894C67.6727 153.286 67.2387 153.589 66.7161 153.804C66.1934 154.009 65.5914 154.112 64.9101 154.112ZM74.7949 154.112C74.4216 154.112 74.0996 153.986 73.8289 153.734C73.5676 153.473 73.4369 153.141 73.4369 152.74C73.4369 152.339 73.5676 152.017 73.8289 151.774C74.0996 151.522 74.4216 151.396 74.7949 151.396C75.1776 151.396 75.4996 151.522 75.7609 151.774C76.0223 152.017 76.1529 152.339 76.1529 152.74C76.1529 153.141 76.0223 153.473 75.7609 153.734C75.4996 153.986 75.1776 154.112 74.7949 154.112ZM78.459 154.112C78.0857 154.112 77.7637 153.986 77.493 153.734C77.2317 153.473 77.101 153.141 77.101 152.74C77.101 152.339 77.2317 152.017 77.493 151.774C77.7637 151.522 78.0857 151.396 78.459 151.396C78.8417 151.396 79.1637 151.522 79.425 151.774C79.6863 152.017 79.817 152.339 79.817 152.74C79.817 153.141 79.6863 153.473 79.425 153.734C79.1637 153.986 78.8417 154.112 78.459 154.112ZM82.1231 154.112C81.7497 154.112 81.4277 153.986 81.1571 153.734C80.8957 153.473 80.7651 153.141 80.7651 152.74C80.7651 152.339 80.8957 152.017 81.1571 151.774C81.4277 151.522 81.7497 151.396 82.1231 151.396C82.5057 151.396 82.8277 151.522 83.0891 151.774C83.3504 152.017 83.4811 152.339 83.4811 152.74C83.4811 153.141 83.3504 153.473 83.0891 153.734C82.8277 153.986 82.5057 154.112 82.1231 154.112Z" fill="white"/>
<path fill-rule="evenodd" clip-rule="evenodd" d="M154 128.54L127.768 160H120.104L139.304 128.54V80.9661V79.0339L139.304 31.4602L120.104 0H127.768L154 31.4602V79.0339V80.9661L154 128.54ZM137.564 31.4602L119.233 0H111.411L122.868 31.4602L122.868 79.0339H122.868L122.868 128.54L111.411 160H119.233L137.564 128.54V80.9661H137.564L137.564 31.4602ZM110.543 0L121.447 31.4602L121.447 80.9661H121.447L121.447 128.54L110.543 160H102.8L106.307 128.54L106.307 79.0339H106.307L106.307 31.4602L102.8 0H110.543Z" fill="url(#paint0_linear_168_628)"/>
</g>
<defs>
<filter id="filter0_d_168_628" x="0" y="0" width="158" height="168" filterUnits="userSpaceOnUse" color-interpolation-filters="sRGB">
<feFlood flood-opacity="0" result="BackgroundImageFix"/>
<feColorMatrix in="SourceAlpha" type="matrix" values="0 0 0 0 0 0 0 0 0 0 0 0 0 0 0 0 0 0 127 0" result="hardAlpha"/>
<feOffset dy="4"/>
<feGaussianBlur stdDeviation="2"/>
<feComposite in2="hardAlpha" operator="out"/>
<feColorMatrix type="matrix" values="0 0 0 0 0 0 0 0 0 0 0 0 0 0 0 0 0 0 0.25 0"/>
<feBlend mode="normal" in2="BackgroundImageFix" result="effect1_dropShadow_168_628"/>
<feBlend mode="normal" in="SourceGraphic" in2="effect1_dropShadow_168_628" result="shape"/>
</filter>
<linearGradient id="paint0_linear_168_628" x1="154" y1="80" x2="102.8" y2="80" gradientUnits="userSpaceOnUse">
<stop offset="0.15" stop-color="#03BFFE"/>
<stop offset="0.5" stop-color="#1D4CB3"/>
<stop offset="0.675" stop-color="#0F1742"/>
</linearGradient>
</defs>
</svg>
