<svg width="158" height="168" viewBox="0 0 158 168" fill="none" xmlns="http://www.w3.org/2000/svg">
<g filter="url(#filter0_d_196_2106)">
<path fill-rule="evenodd" clip-rule="evenodd" d="M154 135.408L124.506 160H79.9057H78.0943H33.4939L4 135.408V128.223L33.4939 146.223H78.0943H79.9057H124.506L154 128.223V135.408ZM4 127.406L33.4939 144.591H79.9057V144.591H124.506L154 127.406V120.073L124.506 130.813H78.0943V130.813H33.4939L4 120.073V127.406Z" fill="url(#paint0_linear_196_2106)"/>
</g>
<g filter="url(#filter1_d_196_2106)">
<path fill-rule="evenodd" clip-rule="evenodd" d="M154 24.5921L124.506 0H79.9057H78.0943H33.4939L4 24.5921V31.7771L33.4939 13.7775H78.0943H79.9057H124.506L154 31.7771V24.5921ZM4 32.5941L33.4939 15.4092H79.9057V15.4094H124.506L154 32.5943V39.9274L124.506 29.1869H78.0943V29.1867H33.4939L4 39.9273V32.5941Z" fill="url(#paint1_linear_196_2106)"/>
</g>
<g filter="url(#filter2_d_196_2106)">
<circle cx="79.0034" cy="42.375" r="8.875" fill="white" stroke="#0F1742"/>
<line x1="79.5034" y1="51.75" x2="79.5034" y2="67.375" stroke="#0F1742"/>
<line x1="64" y1="55.9441" x2="94" y2="55.9441" stroke="#0F1742"/>
<line x1="89.8438" y1="82.3959" x2="79.0893" y2="67.0368" stroke="#0F1742"/>
<line y1="-0.5" x2="18.75" y2="-0.5" transform="matrix(0.573576 -0.819152 -0.819152 -0.573576 68.3784 82.1091)" stroke="#0F1742"/>
<path d="M73.5015 92.1016C73.09 92.1016 72.7176 92.0156 72.3843 91.8438C72.0562 91.6719 71.7931 91.4245 71.5952 91.1016C71.4025 90.7734 71.3062 90.3828 71.3062 89.9297V86.75H72.1577V89.8906C72.1577 90.2083 72.2176 90.4688 72.3374 90.6719C72.4572 90.8698 72.6187 91.0182 72.8218 91.1172C73.0249 91.2109 73.2515 91.2578 73.5015 91.2578C73.7515 91.2578 73.978 91.2109 74.1812 91.1172C74.3895 91.0182 74.5509 90.8698 74.6655 90.6719C74.7853 90.4688 74.8452 90.2083 74.8452 89.8906V86.75H75.7046V89.9297C75.7046 90.3828 75.6056 90.7734 75.4077 91.1016C75.215 91.4245 74.952 91.6719 74.6187 91.8438C74.2905 92.0156 73.9181 92.1016 73.5015 92.1016ZM78.0718 92.1172C77.9103 92.1172 77.7463 92.0964 77.5796 92.0547C77.4129 92.0182 77.2619 91.9714 77.1265 91.9141C76.991 91.8568 76.8843 91.8021 76.8062 91.75V90.9922C76.8895 91.0495 76.9989 91.112 77.1343 91.1797C77.2749 91.2422 77.4207 91.2943 77.5718 91.3359C77.7228 91.3776 77.8608 91.3984 77.9858 91.3984C78.215 91.3984 78.3921 91.3516 78.5171 91.2578C78.6473 91.1641 78.7124 91.0417 78.7124 90.8906C78.7124 90.776 78.6655 90.6875 78.5718 90.625C78.478 90.5573 78.3426 90.4922 78.1655 90.4297L77.6265 90.2344C77.3244 90.125 77.1187 89.9818 77.0093 89.8047C76.9051 89.6276 76.853 89.4219 76.853 89.1875C76.853 88.9531 76.9129 88.7474 77.0327 88.5703C77.1525 88.3932 77.3192 88.2526 77.5327 88.1484C77.7515 88.0443 78.0041 87.9922 78.2905 87.9922C78.5249 87.9922 78.7437 88.026 78.9468 88.0938C79.1499 88.1615 79.3009 88.2344 79.3999 88.3125V89.0781C79.2853 88.9948 79.1343 88.9141 78.9468 88.8359C78.7645 88.7578 78.5744 88.7188 78.3765 88.7188C78.1525 88.7188 77.9806 88.7708 77.8608 88.875C77.7463 88.974 77.689 89.0833 77.689 89.2031C77.689 89.2969 77.7228 89.388 77.7905 89.4766C77.8582 89.5651 77.9806 89.638 78.1577 89.6953L78.728 89.8984C79.0041 89.987 79.2098 90.1172 79.3452 90.2891C79.4806 90.4557 79.5483 90.6589 79.5483 90.8984C79.5483 91.1224 79.4832 91.3281 79.353 91.5156C79.2228 91.7031 79.0457 91.8516 78.8218 91.9609C78.603 92.0651 78.353 92.1172 78.0718 92.1172ZM82.2671 92.1172C81.9754 92.1172 81.702 92.0651 81.4468 91.9609C81.1968 91.8568 80.978 91.7109 80.7905 91.5234C80.603 91.3359 80.4572 91.1198 80.353 90.875C80.2489 90.625 80.1968 90.3568 80.1968 90.0703C80.1968 89.6953 80.2801 89.3516 80.4468 89.0391C80.6134 88.7214 80.8426 88.4688 81.1343 88.2812C81.4259 88.0885 81.7567 87.9922 82.1265 87.9922C82.5223 87.9922 82.8556 88.0755 83.1265 88.2422C83.3973 88.4089 83.6004 88.638 83.7358 88.9297C83.8765 89.2161 83.9468 89.5443 83.9468 89.9141V90.3125H80.9233V89.7109H83.189C83.1681 89.4818 83.103 89.2943 82.9937 89.1484C82.8895 89.0026 82.7593 88.8932 82.603 88.8203C82.452 88.7474 82.2905 88.7109 82.1187 88.7109C81.8895 88.7109 81.689 88.7734 81.5171 88.8984C81.3504 89.0182 81.2202 89.1797 81.1265 89.3828C81.0327 89.5859 80.9858 89.8151 80.9858 90.0703C80.9858 90.3099 81.0379 90.5286 81.1421 90.7266C81.2515 90.9245 81.4051 91.0833 81.603 91.2031C81.8009 91.3229 82.0275 91.3828 82.2827 91.3828C82.5692 91.3828 82.8296 91.3177 83.064 91.1875C83.3035 91.0521 83.5015 90.9115 83.6577 90.7656V91.5469C83.5796 91.6302 83.4702 91.7161 83.3296 91.8047C83.189 91.8932 83.0275 91.9661 82.8452 92.0234C82.6629 92.0859 82.4702 92.1172 82.2671 92.1172ZM84.939 92V88.0781H85.7202V92H84.939ZM85.7202 89.7031V88.8438C85.866 88.5938 86.0379 88.3906 86.2358 88.2344C86.439 88.0781 86.6551 88 86.8843 88C87.0353 88 87.1681 88.026 87.2827 88.0781V88.9688C87.2046 88.9219 87.1239 88.8854 87.0405 88.8594C86.9572 88.8333 86.8687 88.8203 86.7749 88.8203C86.5249 88.8203 86.3192 88.9062 86.1577 89.0781C86.0015 89.25 85.8556 89.4583 85.7202 89.7031Z" fill="#0F1742"/>
</g>
<g filter="url(#filter3_d_196_2106)">
<path d="M153.5 97C153.5 100.908 150.964 104.521 146.706 107.183C142.454 109.84 136.549 111.5 130 111.5C123.451 111.5 117.546 109.84 113.294 107.183C109.036 104.521 106.5 100.908 106.5 97C106.5 93.0925 109.036 89.4792 113.294 86.8174C117.546 84.16 123.451 82.5 130 82.5C136.549 82.5 142.454 84.16 146.706 86.8174C150.964 89.4792 153.5 93.0925 153.5 97Z" fill="#FFB902" stroke="#0F1742"/>
<path d="M112.785 95V89.7656H113.637V95H112.785ZM111.887 95V94.2266H114.535V95H111.887ZM111.887 90.5391V89.7656H114.535V90.5391H111.887ZM118.645 95V92.6953C118.645 92.3828 118.574 92.1484 118.434 91.9922C118.293 91.8359 118.085 91.7578 117.809 91.7578C117.616 91.7578 117.426 91.8281 117.238 91.9688C117.056 92.1042 116.895 92.263 116.754 92.4453V91.6719C116.837 91.5677 116.941 91.4635 117.066 91.3594C117.191 91.2552 117.332 91.1693 117.488 91.1016C117.65 91.0286 117.819 90.9922 117.996 90.9922C118.262 90.9922 118.504 91.0521 118.723 91.1719C118.941 91.2865 119.113 91.4635 119.238 91.7031C119.368 91.9427 119.434 92.2422 119.434 92.6016V95H118.645ZM115.973 95V91.0781H116.754V95H115.973ZM122.129 95.1172C121.905 95.1172 121.707 95.0703 121.535 94.9766C121.363 94.8776 121.228 94.7422 121.129 94.5703C121.03 94.3932 120.98 94.1849 120.98 93.9453V91.7734H120.27V91.4531C120.525 91.349 120.736 91.1719 120.902 90.9219C121.074 90.6667 121.223 90.3516 121.348 89.9766H121.762V91.0781H122.996V91.7734H121.762V93.8281C121.762 93.9948 121.811 94.1276 121.91 94.2266C122.014 94.3203 122.152 94.3672 122.324 94.3672C122.48 94.3672 122.618 94.3464 122.738 94.3047C122.863 94.263 122.967 94.2188 123.051 94.1719V94.8438C122.952 94.9323 122.824 95 122.668 95.0469C122.517 95.0938 122.337 95.1172 122.129 95.1172ZM125.918 95.1172C125.626 95.1172 125.353 95.0651 125.098 94.9609C124.848 94.8568 124.629 94.7109 124.441 94.5234C124.254 94.3359 124.108 94.1198 124.004 93.875C123.9 93.625 123.848 93.3568 123.848 93.0703C123.848 92.6953 123.931 92.3516 124.098 92.0391C124.264 91.7214 124.493 91.4688 124.785 91.2812C125.077 91.0885 125.408 90.9922 125.777 90.9922C126.173 90.9922 126.507 91.0755 126.777 91.2422C127.048 91.4089 127.251 91.638 127.387 91.9297C127.527 92.2161 127.598 92.5443 127.598 92.9141V93.3125H124.574V92.7109H126.84C126.819 92.4818 126.754 92.2943 126.645 92.1484C126.54 92.0026 126.41 91.8932 126.254 91.8203C126.103 91.7474 125.941 91.7109 125.77 91.7109C125.54 91.7109 125.34 91.7734 125.168 91.8984C125.001 92.0182 124.871 92.1797 124.777 92.3828C124.684 92.5859 124.637 92.8151 124.637 93.0703C124.637 93.3099 124.689 93.5286 124.793 93.7266C124.902 93.9245 125.056 94.0833 125.254 94.2031C125.452 94.3229 125.678 94.3828 125.934 94.3828C126.22 94.3828 126.48 94.3177 126.715 94.1875C126.954 94.0521 127.152 93.9115 127.309 93.7656V94.5469C127.23 94.6302 127.121 94.7161 126.98 94.8047C126.84 94.8932 126.678 94.9661 126.496 95.0234C126.314 95.0859 126.121 95.1172 125.918 95.1172ZM130.113 96.9922C129.879 96.9922 129.676 96.9661 129.504 96.9141C129.332 96.862 129.181 96.7943 129.051 96.7109C128.921 96.6328 128.801 96.5547 128.691 96.4766V95.6875C128.785 95.7552 128.897 95.8307 129.027 95.9141C129.158 96.0026 129.311 96.0807 129.488 96.1484C129.665 96.2161 129.866 96.25 130.09 96.25C130.335 96.25 130.559 96.2031 130.762 96.1094C130.965 96.0208 131.126 95.888 131.246 95.7109C131.366 95.5391 131.426 95.3359 131.426 95.1016V94.3359C131.301 94.5443 131.124 94.7266 130.895 94.8828C130.671 95.0391 130.41 95.1172 130.113 95.1172C129.79 95.1172 129.491 95.0339 129.215 94.8672C128.944 94.7005 128.725 94.4661 128.559 94.1641C128.397 93.8568 128.316 93.4974 128.316 93.0859C128.316 92.6536 128.397 92.2812 128.559 91.9688C128.725 91.6562 128.949 91.4167 129.23 91.25C129.517 91.0781 129.835 90.9922 130.184 90.9922C130.402 90.9922 130.624 91.0443 130.848 91.1484C131.077 91.2526 131.27 91.3932 131.426 91.5703V91.0781H132.207V94.9141C132.207 95.3672 132.111 95.7474 131.918 96.0547C131.73 96.3672 131.475 96.6016 131.152 96.7578C130.835 96.9141 130.488 96.9922 130.113 96.9922ZM130.277 94.3359C130.491 94.3359 130.684 94.2812 130.855 94.1719C131.027 94.0573 131.165 93.901 131.27 93.7031C131.374 93.5052 131.426 93.276 131.426 93.0156V92.3359C131.27 92.1589 131.103 92.0182 130.926 91.9141C130.754 91.8099 130.556 91.7578 130.332 91.7578C130.082 91.7578 129.866 91.8203 129.684 91.9453C129.507 92.0703 129.368 92.2344 129.27 92.4375C129.176 92.6406 129.129 92.8568 129.129 93.0859C129.129 93.3151 129.176 93.526 129.27 93.7188C129.368 93.9062 129.504 94.0573 129.676 94.1719C129.848 94.2812 130.048 94.3359 130.277 94.3359ZM133.488 95V91.0781H134.27V95H133.488ZM134.27 92.7031V91.8438C134.415 91.5938 134.587 91.3906 134.785 91.2344C134.988 91.0781 135.204 91 135.434 91C135.585 91 135.717 91.026 135.832 91.0781V91.9688C135.754 91.9219 135.673 91.8854 135.59 91.8594C135.507 91.8333 135.418 91.8203 135.324 91.8203C135.074 91.8203 134.868 91.9062 134.707 92.0781C134.551 92.25 134.405 92.4583 134.27 92.7031ZM138.152 95.1172C137.829 95.1172 137.53 95.0339 137.254 94.8672C136.983 94.7005 136.764 94.4661 136.598 94.1641C136.436 93.8568 136.355 93.4974 136.355 93.0859C136.355 92.6536 136.436 92.2812 136.598 91.9688C136.764 91.6562 136.988 91.4167 137.27 91.25C137.556 91.0781 137.874 90.9922 138.223 90.9922C138.441 90.9922 138.663 91.0443 138.887 91.1484C139.116 91.2526 139.309 91.3932 139.465 91.5703V91.0781H140.246V95H139.465V94.3359C139.34 94.5443 139.163 94.7266 138.934 94.8828C138.71 95.0391 138.449 95.1172 138.152 95.1172ZM138.316 94.3438C138.53 94.3438 138.723 94.2891 138.895 94.1797C139.072 94.0651 139.212 93.9089 139.316 93.7109C139.421 93.5078 139.47 93.276 139.465 93.0156V92.3359C139.309 92.1589 139.142 92.0182 138.965 91.9141C138.793 91.8099 138.595 91.7578 138.371 91.7578C138.121 91.7578 137.905 91.8203 137.723 91.9453C137.546 92.0703 137.408 92.2344 137.309 92.4375C137.215 92.6406 137.168 92.8568 137.168 93.0859C137.168 93.3151 137.215 93.526 137.309 93.7188C137.408 93.9115 137.543 94.0651 137.715 94.1797C137.887 94.2891 138.087 94.3438 138.316 94.3438ZM143.09 95.1172C142.866 95.1172 142.668 95.0703 142.496 94.9766C142.324 94.8776 142.189 94.7422 142.09 94.5703C141.991 94.3932 141.941 94.1849 141.941 93.9453V91.7734H141.23V91.4531C141.486 91.349 141.697 91.1719 141.863 90.9219C142.035 90.6667 142.184 90.3516 142.309 89.9766H142.723V91.0781H143.957V91.7734H142.723V93.8281C142.723 93.9948 142.772 94.1276 142.871 94.2266C142.975 94.3203 143.113 94.3672 143.285 94.3672C143.441 94.3672 143.579 94.3464 143.699 94.3047C143.824 94.263 143.928 94.2188 144.012 94.1719V94.8438C143.913 94.9323 143.785 95 143.629 95.0469C143.478 95.0938 143.298 95.1172 143.09 95.1172ZM146.879 95.1172C146.587 95.1172 146.314 95.0651 146.059 94.9609C145.809 94.8568 145.59 94.7109 145.402 94.5234C145.215 94.3359 145.069 94.1198 144.965 93.875C144.861 93.625 144.809 93.3568 144.809 93.0703C144.809 92.6953 144.892 92.3516 145.059 92.0391C145.225 91.7214 145.454 91.4688 145.746 91.2812C146.038 91.0885 146.368 90.9922 146.738 90.9922C147.134 90.9922 147.467 91.0755 147.738 91.2422C148.009 91.4089 148.212 91.638 148.348 91.9297C148.488 92.2161 148.559 92.5443 148.559 92.9141V93.3125H145.535V92.7109H147.801C147.78 92.4818 147.715 92.2943 147.605 92.1484C147.501 92.0026 147.371 91.8932 147.215 91.8203C147.064 91.7474 146.902 91.7109 146.73 91.7109C146.501 91.7109 146.301 91.7734 146.129 91.8984C145.962 92.0182 145.832 92.1797 145.738 92.3828C145.645 92.5859 145.598 92.8151 145.598 93.0703C145.598 93.3099 145.65 93.5286 145.754 93.7266C145.863 93.9245 146.017 94.0833 146.215 94.2031C146.413 94.3229 146.639 94.3828 146.895 94.3828C147.181 94.3828 147.441 94.3177 147.676 94.1875C147.915 94.0521 148.113 93.9115 148.27 93.7656V94.5469C148.191 94.6302 148.082 94.7161 147.941 94.8047C147.801 94.8932 147.639 94.9661 147.457 95.0234C147.275 95.0859 147.082 95.1172 146.879 95.1172ZM123.164 105.086C122.924 105.086 122.693 105.078 122.469 105.062C122.245 105.047 122.026 105.023 121.812 104.992C121.604 104.961 121.393 104.924 121.18 104.883V99.8438C121.503 99.7865 121.82 99.7396 122.133 99.7031C122.451 99.6615 122.786 99.6406 123.141 99.6406C123.719 99.6406 124.214 99.7578 124.625 99.9922C125.036 100.227 125.352 100.547 125.57 100.953C125.794 101.359 125.906 101.823 125.906 102.344C125.906 102.729 125.844 103.089 125.719 103.422C125.599 103.755 125.422 104.047 125.188 104.297C124.953 104.542 124.664 104.734 124.32 104.875C123.982 105.016 123.596 105.086 123.164 105.086ZM123.156 104.281C123.547 104.281 123.88 104.198 124.156 104.031C124.438 103.859 124.654 103.63 124.805 103.344C124.956 103.052 125.031 102.724 125.031 102.359C125.031 101.995 124.956 101.669 124.805 101.383C124.654 101.091 124.438 100.862 124.156 100.695C123.88 100.529 123.547 100.445 123.156 100.445C122.979 100.445 122.792 100.453 122.594 100.469C122.401 100.479 122.214 100.497 122.031 100.523V104.203C122.214 104.224 122.404 104.242 122.602 104.258C122.799 104.273 122.984 104.281 123.156 104.281ZM128.445 105.117C128.122 105.117 127.823 105.034 127.547 104.867C127.276 104.701 127.057 104.466 126.891 104.164C126.729 103.857 126.648 103.497 126.648 103.086C126.648 102.654 126.729 102.281 126.891 101.969C127.057 101.656 127.281 101.417 127.562 101.25C127.849 101.078 128.167 100.992 128.516 100.992C128.734 100.992 128.956 101.044 129.18 101.148C129.409 101.253 129.602 101.393 129.758 101.57V101.078H130.539V105H129.758V104.336C129.633 104.544 129.456 104.727 129.227 104.883C129.003 105.039 128.742 105.117 128.445 105.117ZM128.609 104.344C128.823 104.344 129.016 104.289 129.188 104.18C129.365 104.065 129.505 103.909 129.609 103.711C129.714 103.508 129.763 103.276 129.758 103.016V102.336C129.602 102.159 129.435 102.018 129.258 101.914C129.086 101.81 128.888 101.758 128.664 101.758C128.414 101.758 128.198 101.82 128.016 101.945C127.839 102.07 127.701 102.234 127.602 102.438C127.508 102.641 127.461 102.857 127.461 103.086C127.461 103.315 127.508 103.526 127.602 103.719C127.701 103.911 127.836 104.065 128.008 104.18C128.18 104.289 128.38 104.344 128.609 104.344ZM133.383 105.117C133.159 105.117 132.961 105.07 132.789 104.977C132.617 104.878 132.482 104.742 132.383 104.57C132.284 104.393 132.234 104.185 132.234 103.945V101.773H131.523V101.453C131.779 101.349 131.99 101.172 132.156 100.922C132.328 100.667 132.477 100.352 132.602 99.9766H133.016V101.078H134.25V101.773H133.016V103.828C133.016 103.995 133.065 104.128 133.164 104.227C133.268 104.32 133.406 104.367 133.578 104.367C133.734 104.367 133.872 104.346 133.992 104.305C134.117 104.263 134.221 104.219 134.305 104.172V104.844C134.206 104.932 134.078 105 133.922 105.047C133.771 105.094 133.591 105.117 133.383 105.117ZM136.898 105.117C136.576 105.117 136.276 105.034 136 104.867C135.729 104.701 135.51 104.466 135.344 104.164C135.182 103.857 135.102 103.497 135.102 103.086C135.102 102.654 135.182 102.281 135.344 101.969C135.51 101.656 135.734 101.417 136.016 101.25C136.302 101.078 136.62 100.992 136.969 100.992C137.188 100.992 137.409 101.044 137.633 101.148C137.862 101.253 138.055 101.393 138.211 101.57V101.078H138.992V105H138.211V104.336C138.086 104.544 137.909 104.727 137.68 104.883C137.456 105.039 137.195 105.117 136.898 105.117ZM137.062 104.344C137.276 104.344 137.469 104.289 137.641 104.18C137.818 104.065 137.958 103.909 138.062 103.711C138.167 103.508 138.216 103.276 138.211 103.016V102.336C138.055 102.159 137.888 102.018 137.711 101.914C137.539 101.81 137.341 101.758 137.117 101.758C136.867 101.758 136.651 101.82 136.469 101.945C136.292 102.07 136.154 102.234 136.055 102.438C135.961 102.641 135.914 102.857 135.914 103.086C135.914 103.315 135.961 103.526 136.055 103.719C136.154 103.911 136.289 104.065 136.461 104.18C136.633 104.289 136.833 104.344 137.062 104.344Z" fill="#0F1742"/>
</g>
<g filter="url(#filter4_d_196_2106)">
<path d="M102.5 115C102.5 118.908 99.9645 122.521 95.7056 125.183C91.4537 127.84 85.5487 129.5 79 129.5C72.4513 129.5 66.5463 127.84 62.2944 125.183C58.0355 122.521 55.5 118.908 55.5 115C55.5 111.092 58.0355 107.479 62.2944 104.817C66.5463 102.16 72.4513 100.5 79 100.5C85.5487 100.5 91.4537 102.16 95.7056 104.817C99.9645 107.479 102.5 111.092 102.5 115Z" fill="#FFB902" stroke="#0F1742"/>
<path d="M70.6719 113.117C70.2865 113.117 69.9271 113.049 69.5938 112.914C69.2604 112.773 68.9688 112.581 68.7188 112.336C68.4688 112.086 68.2734 111.794 68.1328 111.461C67.9922 111.128 67.9219 110.768 67.9219 110.383C67.9219 109.997 67.9922 109.638 68.1328 109.305C68.2734 108.971 68.4688 108.682 68.7188 108.438C68.9688 108.188 69.2604 107.995 69.5938 107.859C69.9271 107.719 70.2865 107.648 70.6719 107.648C71.0573 107.648 71.4167 107.719 71.75 107.859C72.0833 107.995 72.375 108.188 72.625 108.438C72.875 108.682 73.0703 108.971 73.2109 109.305C73.3516 109.638 73.4219 109.997 73.4219 110.383C73.4219 110.768 73.3516 111.128 73.2109 111.461C73.0703 111.794 72.875 112.086 72.625 112.336C72.375 112.581 72.0833 112.773 71.75 112.914C71.4167 113.049 71.0573 113.117 70.6719 113.117ZM73.5 114.227C73.2083 114.227 72.8932 114.18 72.5547 114.086C72.2161 113.992 71.8828 113.859 71.5547 113.688C71.2318 113.521 70.9375 113.331 70.6719 113.117L71.1484 112.805C71.4036 112.919 71.6719 113.023 71.9531 113.117C72.2396 113.211 72.5156 113.284 72.7812 113.336C73.0521 113.393 73.2917 113.422 73.5 113.422V114.227ZM70.6719 112.297C71.0312 112.297 71.3516 112.214 71.6328 112.047C71.9193 111.875 72.1432 111.646 72.3047 111.359C72.4661 111.073 72.5469 110.747 72.5469 110.383C72.5469 110.018 72.4661 109.693 72.3047 109.406C72.1432 109.115 71.9193 108.885 71.6328 108.719C71.3516 108.552 71.0312 108.469 70.6719 108.469C70.3125 108.469 69.9922 108.552 69.7109 108.719C69.4297 108.885 69.2057 109.115 69.0391 109.406C68.8776 109.693 68.7969 110.018 68.7969 110.383C68.7969 110.747 68.8776 111.073 69.0391 111.359C69.2057 111.646 69.4297 111.875 69.7109 112.047C69.9922 112.214 70.3125 112.297 70.6719 112.297ZM76.0547 113.086C75.7318 113.086 75.4401 113.018 75.1797 112.883C74.9245 112.747 74.7214 112.555 74.5703 112.305C74.4245 112.055 74.3516 111.755 74.3516 111.406V109.078H75.1562V111.336C75.1562 111.659 75.2448 111.906 75.4219 112.078C75.599 112.245 75.8099 112.328 76.0547 112.328C76.3047 112.328 76.5182 112.245 76.6953 112.078C76.8724 111.906 76.9609 111.659 76.9609 111.336V109.078H77.7656V111.406C77.7656 111.755 77.6901 112.055 77.5391 112.305C77.388 112.555 77.1849 112.747 76.9297 112.883C76.6745 113.018 76.3828 113.086 76.0547 113.086ZM80.7422 113.117C80.4505 113.117 80.1771 113.065 79.9219 112.961C79.6719 112.857 79.4531 112.711 79.2656 112.523C79.0781 112.336 78.9323 112.12 78.8281 111.875C78.724 111.625 78.6719 111.357 78.6719 111.07C78.6719 110.695 78.7552 110.352 78.9219 110.039C79.0885 109.721 79.3177 109.469 79.6094 109.281C79.901 109.089 80.2318 108.992 80.6016 108.992C80.9974 108.992 81.3307 109.076 81.6016 109.242C81.8724 109.409 82.0755 109.638 82.2109 109.93C82.3516 110.216 82.4219 110.544 82.4219 110.914V111.312H79.3984V110.711H81.6641C81.6432 110.482 81.5781 110.294 81.4688 110.148C81.3646 110.003 81.2344 109.893 81.0781 109.82C80.9271 109.747 80.7656 109.711 80.5938 109.711C80.3646 109.711 80.1641 109.773 79.9922 109.898C79.8255 110.018 79.6953 110.18 79.6016 110.383C79.5078 110.586 79.4609 110.815 79.4609 111.07C79.4609 111.31 79.513 111.529 79.6172 111.727C79.7266 111.924 79.8802 112.083 80.0781 112.203C80.276 112.323 80.5026 112.383 80.7578 112.383C81.0443 112.383 81.3047 112.318 81.5391 112.188C81.7786 112.052 81.9766 111.911 82.1328 111.766V112.547C82.0547 112.63 81.9453 112.716 81.8047 112.805C81.6641 112.893 81.5026 112.966 81.3203 113.023C81.138 113.086 80.9453 113.117 80.7422 113.117ZM83.4141 113V109.078H84.1953V113H83.4141ZM84.1953 110.703V109.844C84.3411 109.594 84.513 109.391 84.7109 109.234C84.9141 109.078 85.1302 109 85.3594 109C85.5104 109 85.6432 109.026 85.7578 109.078V109.969C85.6797 109.922 85.599 109.885 85.5156 109.859C85.4323 109.833 85.3438 109.82 85.25 109.82C85 109.82 84.7943 109.906 84.6328 110.078C84.4766 110.25 84.3307 110.458 84.1953 110.703ZM86.5859 114.875L88.0547 112.156L89.4375 109.078H90.3516L87.4844 114.875H86.5859ZM87.7969 112.883L86.0156 109.078H86.9375L88.4375 112.305L87.7969 112.883ZM72.1641 123.086C71.9245 123.086 71.6927 123.078 71.4688 123.062C71.2448 123.047 71.026 123.023 70.8125 122.992C70.6042 122.961 70.3932 122.924 70.1797 122.883V117.844C70.5026 117.786 70.8203 117.74 71.1328 117.703C71.4505 117.661 71.7865 117.641 72.1406 117.641C72.7188 117.641 73.2135 117.758 73.625 117.992C74.0365 118.227 74.3516 118.547 74.5703 118.953C74.7943 119.359 74.9062 119.823 74.9062 120.344C74.9062 120.729 74.8438 121.089 74.7188 121.422C74.599 121.755 74.4219 122.047 74.1875 122.297C73.9531 122.542 73.6641 122.734 73.3203 122.875C72.9818 123.016 72.5964 123.086 72.1641 123.086ZM72.1562 122.281C72.5469 122.281 72.8802 122.198 73.1562 122.031C73.4375 121.859 73.6536 121.63 73.8047 121.344C73.9557 121.052 74.0312 120.724 74.0312 120.359C74.0312 119.995 73.9557 119.669 73.8047 119.383C73.6536 119.091 73.4375 118.862 73.1562 118.695C72.8802 118.529 72.5469 118.445 72.1562 118.445C71.9792 118.445 71.7917 118.453 71.5938 118.469C71.401 118.479 71.2135 118.497 71.0312 118.523V122.203C71.2135 122.224 71.4036 122.242 71.6016 122.258C71.7995 122.273 71.9844 122.281 72.1562 122.281ZM77.4453 123.117C77.1224 123.117 76.8229 123.034 76.5469 122.867C76.276 122.701 76.0573 122.466 75.8906 122.164C75.7292 121.857 75.6484 121.497 75.6484 121.086C75.6484 120.654 75.7292 120.281 75.8906 119.969C76.0573 119.656 76.2812 119.417 76.5625 119.25C76.849 119.078 77.1667 118.992 77.5156 118.992C77.7344 118.992 77.9557 119.044 78.1797 119.148C78.4089 119.253 78.6016 119.393 78.7578 119.57V119.078H79.5391V123H78.7578V122.336C78.6328 122.544 78.4557 122.727 78.2266 122.883C78.0026 123.039 77.7422 123.117 77.4453 123.117ZM77.6094 122.344C77.8229 122.344 78.0156 122.289 78.1875 122.18C78.3646 122.065 78.5052 121.909 78.6094 121.711C78.7135 121.508 78.763 121.276 78.7578 121.016V120.336C78.6016 120.159 78.4349 120.018 78.2578 119.914C78.0859 119.81 77.888 119.758 77.6641 119.758C77.4141 119.758 77.1979 119.82 77.0156 119.945C76.8385 120.07 76.7005 120.234 76.6016 120.438C76.5078 120.641 76.4609 120.857 76.4609 121.086C76.4609 121.315 76.5078 121.526 76.6016 121.719C76.7005 121.911 76.8359 122.065 77.0078 122.18C77.1797 122.289 77.3802 122.344 77.6094 122.344ZM82.3828 123.117C82.1589 123.117 81.9609 123.07 81.7891 122.977C81.6172 122.878 81.4818 122.742 81.3828 122.57C81.2839 122.393 81.2344 122.185 81.2344 121.945V119.773H80.5234V119.453C80.7786 119.349 80.9896 119.172 81.1562 118.922C81.3281 118.667 81.4766 118.352 81.6016 117.977H82.0156V119.078H83.25V119.773H82.0156V121.828C82.0156 121.995 82.0651 122.128 82.1641 122.227C82.2682 122.32 82.4062 122.367 82.5781 122.367C82.7344 122.367 82.8724 122.346 82.9922 122.305C83.1172 122.263 83.2214 122.219 83.3047 122.172V122.844C83.2057 122.932 83.0781 123 82.9219 123.047C82.7708 123.094 82.5911 123.117 82.3828 123.117ZM85.8984 123.117C85.5755 123.117 85.276 123.034 85 122.867C84.7292 122.701 84.5104 122.466 84.3438 122.164C84.1823 121.857 84.1016 121.497 84.1016 121.086C84.1016 120.654 84.1823 120.281 84.3438 119.969C84.5104 119.656 84.7344 119.417 85.0156 119.25C85.3021 119.078 85.6198 118.992 85.9688 118.992C86.1875 118.992 86.4089 119.044 86.6328 119.148C86.862 119.253 87.0547 119.393 87.2109 119.57V119.078H87.9922V123H87.2109V122.336C87.0859 122.544 86.9089 122.727 86.6797 122.883C86.4557 123.039 86.1953 123.117 85.8984 123.117ZM86.0625 122.344C86.276 122.344 86.4688 122.289 86.6406 122.18C86.8177 122.065 86.9583 121.909 87.0625 121.711C87.1667 121.508 87.2161 121.276 87.2109 121.016V120.336C87.0547 120.159 86.888 120.018 86.7109 119.914C86.5391 119.81 86.3411 119.758 86.1172 119.758C85.8672 119.758 85.651 119.82 85.4688 119.945C85.2917 120.07 85.1536 120.234 85.0547 120.438C84.9609 120.641 84.9141 120.857 84.9141 121.086C84.9141 121.315 84.9609 121.526 85.0547 121.719C85.1536 121.911 85.2891 122.065 85.4609 122.18C85.6328 122.289 85.8333 122.344 86.0625 122.344Z" fill="#0F1742"/>
</g>
<g filter="url(#filter5_d_196_2106)">
<path d="M51.5 58C51.5 61.9075 48.9645 65.5208 44.7056 68.1826C40.4537 70.84 34.5487 72.5 28 72.5C21.4513 72.5 15.5463 70.84 11.2944 68.1826C7.03553 65.5208 4.5 61.9075 4.5 58C4.5 54.0925 7.03553 50.4792 11.2944 47.8174C15.5463 45.16 21.4513 43.5 28 43.5C34.5487 43.5 40.4537 45.16 44.7056 47.8174C48.9645 50.4792 51.5 54.0925 51.5 58Z" fill="#FFB902" stroke="#0F1742"/>
<path d="M16.207 56V50.7656H18.3242C18.5586 50.7656 18.7852 50.8099 19.0039 50.8984C19.2279 50.9818 19.431 51.1068 19.6133 51.2734C19.7956 51.4349 19.9388 51.6302 20.043 51.8594C20.1523 52.0885 20.207 52.3464 20.207 52.6328C20.207 53.0026 20.1185 53.3255 19.9414 53.6016C19.7695 53.8776 19.5352 54.0938 19.2383 54.25C18.9414 54.401 18.6159 54.4766 18.2617 54.4766C17.9701 54.4766 17.7096 54.4453 17.4805 54.3828C17.2565 54.3203 17.0794 54.2526 16.9492 54.1797V53.4375C17.0742 53.5052 17.2487 53.5677 17.4727 53.625C17.7018 53.6823 17.9362 53.7109 18.1758 53.7109C18.5404 53.7109 18.8242 53.6172 19.0273 53.4297C19.2305 53.2422 19.332 52.9766 19.332 52.6328C19.332 52.4141 19.2747 52.2266 19.1602 52.0703C19.0508 51.9141 18.9049 51.7917 18.7227 51.7031C18.5404 51.6146 18.3451 51.5703 18.1367 51.5703H17.0586V56H16.207ZM21.207 56V52.0781H21.9883V56H21.207ZM21.9883 53.7031V52.8438C22.1341 52.5938 22.306 52.3906 22.5039 52.2344C22.707 52.0781 22.9232 52 23.1523 52C23.3034 52 23.4362 52.026 23.5508 52.0781V52.9688C23.4727 52.9219 23.3919 52.8854 23.3086 52.8594C23.2253 52.8333 23.1367 52.8203 23.043 52.8203C22.793 52.8203 22.5872 52.9062 22.4258 53.0781C22.2695 53.25 22.1237 53.4583 21.9883 53.7031ZM26.1445 56.1172C25.8529 56.1172 25.582 56.0651 25.332 55.9609C25.082 55.8516 24.8607 55.7031 24.668 55.5156C24.4805 55.3229 24.3346 55.1042 24.2305 54.8594C24.1263 54.6094 24.0742 54.3411 24.0742 54.0547C24.0742 53.7734 24.1263 53.5078 24.2305 53.2578C24.3346 53.0078 24.4805 52.7891 24.668 52.6016C24.8607 52.4141 25.082 52.2656 25.332 52.1562C25.582 52.0469 25.8529 51.9922 26.1445 51.9922C26.4362 51.9922 26.707 52.0469 26.957 52.1562C27.207 52.2656 27.4258 52.4141 27.6133 52.6016C27.806 52.7891 27.9544 53.0078 28.0586 53.2578C28.1628 53.5078 28.2148 53.7734 28.2148 54.0547C28.2148 54.3411 28.1628 54.6094 28.0586 54.8594C27.9544 55.1042 27.806 55.3229 27.6133 55.5156C27.4258 55.7031 27.207 55.8516 26.957 55.9609C26.707 56.0651 26.4362 56.1172 26.1445 56.1172ZM26.1445 55.3594C26.3893 55.3594 26.6055 55.3021 26.793 55.1875C26.9805 55.0729 27.1263 54.9167 27.2305 54.7188C27.3398 54.5208 27.3945 54.2995 27.3945 54.0547C27.3945 53.8047 27.3398 53.5833 27.2305 53.3906C27.1263 53.1927 26.9805 53.0365 26.793 52.9219C26.6055 52.8073 26.3893 52.75 26.1445 52.75C25.9049 52.75 25.6888 52.8073 25.4961 52.9219C25.3086 53.0365 25.1602 53.1927 25.0508 53.3906C24.9466 53.5833 24.8945 53.8047 24.8945 54.0547C24.8945 54.2995 24.9466 54.5208 25.0508 54.7188C25.1602 54.9167 25.3086 55.0729 25.4961 55.1875C25.6888 55.3021 25.9049 55.3594 26.1445 55.3594ZM29.4883 56V51.6406C29.4883 51.3333 29.5482 51.0781 29.668 50.875C29.793 50.6719 29.9544 50.5182 30.1523 50.4141C30.3503 50.3099 30.556 50.2578 30.7695 50.2578C30.9154 50.2578 31.0456 50.276 31.1602 50.3125C31.2799 50.349 31.3815 50.401 31.4648 50.4688V51.1328C31.3867 51.0859 31.293 51.0469 31.1836 51.0156C31.0794 50.9844 30.9701 50.9714 30.8555 50.9766C30.6784 50.9818 30.5352 51.0391 30.4258 51.1484C30.3216 51.2578 30.2695 51.4427 30.2695 51.7031V56H29.4883ZM28.8789 52.7734V52.0781H31.3633V52.7734H28.8789ZM32.9023 51.3047C32.7357 51.3047 32.5951 51.2448 32.4805 51.125C32.3659 51.0052 32.3086 50.8698 32.3086 50.7188C32.3086 50.5625 32.3659 50.4271 32.4805 50.3125C32.5951 50.1927 32.7357 50.1328 32.9023 50.1328C33.0117 50.1328 33.1107 50.1615 33.1992 50.2188C33.2878 50.2708 33.3581 50.3411 33.4102 50.4297C33.4674 50.5182 33.4961 50.6146 33.4961 50.7188C33.4961 50.8177 33.4674 50.9141 33.4102 51.0078C33.3581 51.0964 33.2878 51.1693 33.1992 51.2266C33.1107 51.2786 33.0117 51.3047 32.9023 51.3047ZM32.5977 56V52.0781H33.3789V56H32.5977ZM31.9727 52.7812V52.0781H33.3789V52.7812H31.9727ZM34.6992 56V50.375H35.4805V56H34.6992ZM38.5586 56.1172C38.2669 56.1172 37.9935 56.0651 37.7383 55.9609C37.4883 55.8568 37.2695 55.7109 37.082 55.5234C36.8945 55.3359 36.7487 55.1198 36.6445 54.875C36.5404 54.625 36.4883 54.3568 36.4883 54.0703C36.4883 53.6953 36.5716 53.3516 36.7383 53.0391C36.9049 52.7214 37.1341 52.4688 37.4258 52.2812C37.7174 52.0885 38.0482 51.9922 38.418 51.9922C38.8138 51.9922 39.1471 52.0755 39.418 52.2422C39.6888 52.4089 39.8919 52.638 40.0273 52.9297C40.168 53.2161 40.2383 53.5443 40.2383 53.9141V54.3125H37.2148V53.7109H39.4805C39.4596 53.4818 39.3945 53.2943 39.2852 53.1484C39.181 53.0026 39.0508 52.8932 38.8945 52.8203C38.7435 52.7474 38.582 52.7109 38.4102 52.7109C38.181 52.7109 37.9805 52.7734 37.8086 52.8984C37.6419 53.0182 37.5117 53.1797 37.418 53.3828C37.3242 53.5859 37.2773 53.8151 37.2773 54.0703C37.2773 54.3099 37.3294 54.5286 37.4336 54.7266C37.543 54.9245 37.6966 55.0833 37.8945 55.2031C38.0924 55.3229 38.319 55.3828 38.5742 55.3828C38.8607 55.3828 39.1211 55.3177 39.3555 55.1875C39.5951 55.0521 39.793 54.9115 39.9492 54.7656V55.5469C39.8711 55.6302 39.7617 55.7161 39.6211 55.8047C39.4805 55.8932 39.319 55.9661 39.1367 56.0234C38.9544 56.0859 38.7617 56.1172 38.5586 56.1172ZM21.1641 66.0859C20.9245 66.0859 20.6927 66.0781 20.4688 66.0625C20.2448 66.0469 20.026 66.0234 19.8125 65.9922C19.6042 65.9609 19.3932 65.9245 19.1797 65.8828V60.8438C19.5026 60.7865 19.8203 60.7396 20.1328 60.7031C20.4505 60.6615 20.7865 60.6406 21.1406 60.6406C21.7188 60.6406 22.2135 60.7578 22.625 60.9922C23.0365 61.2266 23.3516 61.5469 23.5703 61.9531C23.7943 62.3594 23.9062 62.8229 23.9062 63.3438C23.9062 63.7292 23.8438 64.0885 23.7188 64.4219C23.599 64.7552 23.4219 65.0469 23.1875 65.2969C22.9531 65.5417 22.6641 65.7344 22.3203 65.875C21.9818 66.0156 21.5964 66.0859 21.1641 66.0859ZM21.1562 65.2812C21.5469 65.2812 21.8802 65.1979 22.1562 65.0312C22.4375 64.8594 22.6536 64.6302 22.8047 64.3438C22.9557 64.0521 23.0312 63.724 23.0312 63.3594C23.0312 62.9948 22.9557 62.6693 22.8047 62.3828C22.6536 62.0911 22.4375 61.862 22.1562 61.6953C21.8802 61.5286 21.5469 61.4453 21.1562 61.4453C20.9792 61.4453 20.7917 61.4531 20.5938 61.4688C20.401 61.4792 20.2135 61.4974 20.0312 61.5234V65.2031C20.2135 65.224 20.4036 65.2422 20.6016 65.2578C20.7995 65.2734 20.9844 65.2812 21.1562 65.2812ZM26.4453 66.1172C26.1224 66.1172 25.8229 66.0339 25.5469 65.8672C25.276 65.7005 25.0573 65.4661 24.8906 65.1641C24.7292 64.8568 24.6484 64.4974 24.6484 64.0859C24.6484 63.6536 24.7292 63.2812 24.8906 62.9688C25.0573 62.6562 25.2812 62.4167 25.5625 62.25C25.849 62.0781 26.1667 61.9922 26.5156 61.9922C26.7344 61.9922 26.9557 62.0443 27.1797 62.1484C27.4089 62.2526 27.6016 62.3932 27.7578 62.5703V62.0781H28.5391V66H27.7578V65.3359C27.6328 65.5443 27.4557 65.7266 27.2266 65.8828C27.0026 66.0391 26.7422 66.1172 26.4453 66.1172ZM26.6094 65.3438C26.8229 65.3438 27.0156 65.2891 27.1875 65.1797C27.3646 65.0651 27.5052 64.9089 27.6094 64.7109C27.7135 64.5078 27.763 64.276 27.7578 64.0156V63.3359C27.6016 63.1589 27.4349 63.0182 27.2578 62.9141C27.0859 62.8099 26.888 62.7578 26.6641 62.7578C26.4141 62.7578 26.1979 62.8203 26.0156 62.9453C25.8385 63.0703 25.7005 63.2344 25.6016 63.4375C25.5078 63.6406 25.4609 63.8568 25.4609 64.0859C25.4609 64.3151 25.5078 64.526 25.6016 64.7188C25.7005 64.9115 25.8359 65.0651 26.0078 65.1797C26.1797 65.2891 26.3802 65.3438 26.6094 65.3438ZM31.3828 66.1172C31.1589 66.1172 30.9609 66.0703 30.7891 65.9766C30.6172 65.8776 30.4818 65.7422 30.3828 65.5703C30.2839 65.3932 30.2344 65.1849 30.2344 64.9453V62.7734H29.5234V62.4531C29.7786 62.349 29.9896 62.1719 30.1562 61.9219C30.3281 61.6667 30.4766 61.3516 30.6016 60.9766H31.0156V62.0781H32.25V62.7734H31.0156V64.8281C31.0156 64.9948 31.0651 65.1276 31.1641 65.2266C31.2682 65.3203 31.4062 65.3672 31.5781 65.3672C31.7344 65.3672 31.8724 65.3464 31.9922 65.3047C32.1172 65.263 32.2214 65.2188 32.3047 65.1719V65.8438C32.2057 65.9323 32.0781 66 31.9219 66.0469C31.7708 66.0938 31.5911 66.1172 31.3828 66.1172ZM34.8984 66.1172C34.5755 66.1172 34.276 66.0339 34 65.8672C33.7292 65.7005 33.5104 65.4661 33.3438 65.1641C33.1823 64.8568 33.1016 64.4974 33.1016 64.0859C33.1016 63.6536 33.1823 63.2812 33.3438 62.9688C33.5104 62.6562 33.7344 62.4167 34.0156 62.25C34.3021 62.0781 34.6198 61.9922 34.9688 61.9922C35.1875 61.9922 35.4089 62.0443 35.6328 62.1484C35.862 62.2526 36.0547 62.3932 36.2109 62.5703V62.0781H36.9922V66H36.2109V65.3359C36.0859 65.5443 35.9089 65.7266 35.6797 65.8828C35.4557 66.0391 35.1953 66.1172 34.8984 66.1172ZM35.0625 65.3438C35.276 65.3438 35.4688 65.2891 35.6406 65.1797C35.8177 65.0651 35.9583 64.9089 36.0625 64.7109C36.1667 64.5078 36.2161 64.276 36.2109 64.0156V63.3359C36.0547 63.1589 35.888 63.0182 35.7109 62.9141C35.5391 62.8099 35.3411 62.7578 35.1172 62.7578C34.8672 62.7578 34.651 62.8203 34.4688 62.9453C34.2917 63.0703 34.1536 63.2344 34.0547 63.4375C33.9609 63.6406 33.9141 63.8568 33.9141 64.0859C33.9141 64.3151 33.9609 64.526 34.0547 64.7188C34.1536 64.9115 34.2891 65.0651 34.4609 65.1797C34.6328 65.2891 34.8333 65.3438 35.0625 65.3438Z" fill="#0F1742"/>
</g>
<g filter="url(#filter6_d_196_2106)">
<path d="M51.5 99C51.5 102.908 48.9645 106.521 44.7056 109.183C40.4537 111.84 34.5487 113.5 28 113.5C21.4513 113.5 15.5463 111.84 11.2944 109.183C7.03553 106.521 4.5 102.908 4.5 99C4.5 95.0925 7.03553 91.4792 11.2944 88.8174C15.5463 86.16 21.4513 84.5 28 84.5C34.5487 84.5 40.4537 86.16 44.7056 88.8174C48.9645 91.4792 51.5 95.0925 51.5 99Z" fill="#FFB902" stroke="#0F1742"/>
<path d="M13.9102 97L16.3398 91.75H16.7695L19.1992 97H18.1836L16.5664 93.1719L14.9258 97H13.9102ZM15.1289 95.8438V95.0938H18.043V95.8438H15.1289ZM19.9258 97V93.0781H20.707V97H19.9258ZM20.707 94.7031V93.8438C20.8529 93.5938 21.0247 93.3906 21.2227 93.2344C21.4258 93.0781 21.6419 93 21.8711 93C22.0221 93 22.1549 93.026 22.2695 93.0781V93.9688C22.1914 93.9219 22.1107 93.8854 22.0273 93.8594C21.944 93.8333 21.8555 93.8203 21.7617 93.8203C21.5117 93.8203 21.306 93.9062 21.1445 94.0781C20.9883 94.25 20.8424 94.4583 20.707 94.7031ZM24.8477 97.1172C24.5508 97.1172 24.2773 97.0651 24.0273 96.9609C23.7773 96.8516 23.5586 96.7005 23.3711 96.5078C23.1888 96.3151 23.0456 96.0964 22.9414 95.8516C22.8424 95.6016 22.793 95.3385 22.793 95.0625C22.793 94.7865 22.8424 94.5234 22.9414 94.2734C23.0456 94.0234 23.1888 93.8047 23.3711 93.6172C23.5586 93.4245 23.7773 93.2734 24.0273 93.1641C24.2773 93.0495 24.5508 92.9922 24.8477 92.9922C25.1341 92.9922 25.3763 93.0391 25.5742 93.1328C25.7773 93.2214 25.9232 93.3073 26.0117 93.3906V94.1406C25.8711 94.0365 25.7096 93.9479 25.5273 93.875C25.3503 93.7969 25.1341 93.7578 24.8789 93.7578C24.6341 93.7578 24.4154 93.8177 24.2227 93.9375C24.0299 94.0573 23.8789 94.2161 23.7695 94.4141C23.6654 94.6068 23.6133 94.8229 23.6133 95.0625C23.6133 95.2969 23.6654 95.513 23.7695 95.7109C23.8737 95.9089 24.0221 96.0677 24.2148 96.1875C24.4076 96.3021 24.6289 96.3594 24.8789 96.3594C25.1341 96.3594 25.3503 96.3229 25.5273 96.25C25.7096 96.1719 25.8711 96.0807 26.0117 95.9766V96.7266C25.9232 96.8099 25.7773 96.8958 25.5742 96.9844C25.3763 97.0729 25.1341 97.1172 24.8477 97.1172ZM29.6758 97L29.668 94.6953C29.668 94.3828 29.5977 94.1484 29.457 93.9922C29.3164 93.8359 29.1081 93.7578 28.832 93.7578C28.6393 93.7578 28.4492 93.8281 28.2617 93.9688C28.0794 94.1042 27.918 94.263 27.7773 94.4453V93.6719C27.8607 93.5677 27.9648 93.4635 28.0898 93.3594C28.2148 93.2552 28.3555 93.1693 28.5117 93.1016C28.6732 93.0286 28.8424 92.9922 29.0195 92.9922C29.2852 92.9922 29.5273 93.0521 29.7461 93.1719C29.9648 93.2865 30.1367 93.4635 30.2617 93.7031C30.3919 93.9427 30.457 94.2422 30.457 94.6016V97H29.6758ZM26.9961 97V91.375H27.7773V97H26.9961ZM32.3398 92.3047C32.1732 92.3047 32.0326 92.2448 31.918 92.125C31.8034 92.0052 31.7461 91.8698 31.7461 91.7188C31.7461 91.5625 31.8034 91.4271 31.918 91.3125C32.0326 91.1927 32.1732 91.1328 32.3398 91.1328C32.4492 91.1328 32.5482 91.1615 32.6367 91.2188C32.7253 91.2708 32.7956 91.3411 32.8477 91.4297C32.9049 91.5182 32.9336 91.6146 32.9336 91.7188C32.9336 91.8177 32.9049 91.9141 32.8477 92.0078C32.7956 92.0964 32.7253 92.1693 32.6367 92.2266C32.5482 92.2786 32.4492 92.3047 32.3398 92.3047ZM32.0352 97V93.0781H32.8164V97H32.0352ZM31.4102 93.7812V93.0781H32.8164V93.7812H31.4102ZM35.3867 97L33.5977 93.0781H34.5195L35.6211 95.7812L36.8086 93.0781H37.7305L35.8789 97H35.3867ZM40.1445 97.1172C39.8529 97.1172 39.5794 97.0651 39.3242 96.9609C39.0742 96.8568 38.8555 96.7109 38.668 96.5234C38.4805 96.3359 38.3346 96.1198 38.2305 95.875C38.1263 95.625 38.0742 95.3568 38.0742 95.0703C38.0742 94.6953 38.1576 94.3516 38.3242 94.0391C38.4909 93.7214 38.7201 93.4688 39.0117 93.2812C39.3034 93.0885 39.6341 92.9922 40.0039 92.9922C40.3997 92.9922 40.7331 93.0755 41.0039 93.2422C41.2747 93.4089 41.4779 93.638 41.6133 93.9297C41.7539 94.2161 41.8242 94.5443 41.8242 94.9141V95.3125H38.8008V94.7109H41.0664C41.0456 94.4818 40.9805 94.2943 40.8711 94.1484C40.7669 94.0026 40.6367 93.8932 40.4805 93.8203C40.3294 93.7474 40.168 93.7109 39.9961 93.7109C39.7669 93.7109 39.5664 93.7734 39.3945 93.8984C39.2279 94.0182 39.0977 94.1797 39.0039 94.3828C38.9102 94.5859 38.8633 94.8151 38.8633 95.0703C38.8633 95.3099 38.9154 95.5286 39.0195 95.7266C39.1289 95.9245 39.2826 96.0833 39.4805 96.2031C39.6784 96.3229 39.9049 96.3828 40.1602 96.3828C40.4466 96.3828 40.707 96.3177 40.9414 96.1875C41.181 96.0521 41.3789 95.9115 41.5352 95.7656V96.5469C41.457 96.6302 41.3477 96.7161 41.207 96.8047C41.0664 96.8932 40.9049 96.9661 40.7227 97.0234C40.5404 97.0859 40.3477 97.1172 40.1445 97.1172ZM21.1641 107.086C20.9245 107.086 20.6927 107.078 20.4688 107.062C20.2448 107.047 20.026 107.023 19.8125 106.992C19.6042 106.961 19.3932 106.924 19.1797 106.883V101.844C19.5026 101.786 19.8203 101.74 20.1328 101.703C20.4505 101.661 20.7865 101.641 21.1406 101.641C21.7188 101.641 22.2135 101.758 22.625 101.992C23.0365 102.227 23.3516 102.547 23.5703 102.953C23.7943 103.359 23.9062 103.823 23.9062 104.344C23.9062 104.729 23.8438 105.089 23.7188 105.422C23.599 105.755 23.4219 106.047 23.1875 106.297C22.9531 106.542 22.6641 106.734 22.3203 106.875C21.9818 107.016 21.5964 107.086 21.1641 107.086ZM21.1562 106.281C21.5469 106.281 21.8802 106.198 22.1562 106.031C22.4375 105.859 22.6536 105.63 22.8047 105.344C22.9557 105.052 23.0312 104.724 23.0312 104.359C23.0312 103.995 22.9557 103.669 22.8047 103.383C22.6536 103.091 22.4375 102.862 22.1562 102.695C21.8802 102.529 21.5469 102.445 21.1562 102.445C20.9792 102.445 20.7917 102.453 20.5938 102.469C20.401 102.479 20.2135 102.497 20.0312 102.523V106.203C20.2135 106.224 20.4036 106.242 20.6016 106.258C20.7995 106.273 20.9844 106.281 21.1562 106.281ZM26.4453 107.117C26.1224 107.117 25.8229 107.034 25.5469 106.867C25.276 106.701 25.0573 106.466 24.8906 106.164C24.7292 105.857 24.6484 105.497 24.6484 105.086C24.6484 104.654 24.7292 104.281 24.8906 103.969C25.0573 103.656 25.2812 103.417 25.5625 103.25C25.849 103.078 26.1667 102.992 26.5156 102.992C26.7344 102.992 26.9557 103.044 27.1797 103.148C27.4089 103.253 27.6016 103.393 27.7578 103.57V103.078H28.5391V107H27.7578V106.336C27.6328 106.544 27.4557 106.727 27.2266 106.883C27.0026 107.039 26.7422 107.117 26.4453 107.117ZM26.6094 106.344C26.8229 106.344 27.0156 106.289 27.1875 106.18C27.3646 106.065 27.5052 105.909 27.6094 105.711C27.7135 105.508 27.763 105.276 27.7578 105.016V104.336C27.6016 104.159 27.4349 104.018 27.2578 103.914C27.0859 103.81 26.888 103.758 26.6641 103.758C26.4141 103.758 26.1979 103.82 26.0156 103.945C25.8385 104.07 25.7005 104.234 25.6016 104.438C25.5078 104.641 25.4609 104.857 25.4609 105.086C25.4609 105.315 25.5078 105.526 25.6016 105.719C25.7005 105.911 25.8359 106.065 26.0078 106.18C26.1797 106.289 26.3802 106.344 26.6094 106.344ZM31.3828 107.117C31.1589 107.117 30.9609 107.07 30.7891 106.977C30.6172 106.878 30.4818 106.742 30.3828 106.57C30.2839 106.393 30.2344 106.185 30.2344 105.945V103.773H29.5234V103.453C29.7786 103.349 29.9896 103.172 30.1562 102.922C30.3281 102.667 30.4766 102.352 30.6016 101.977H31.0156V103.078H32.25V103.773H31.0156V105.828C31.0156 105.995 31.0651 106.128 31.1641 106.227C31.2682 106.32 31.4062 106.367 31.5781 106.367C31.7344 106.367 31.8724 106.346 31.9922 106.305C32.1172 106.263 32.2214 106.219 32.3047 106.172V106.844C32.2057 106.932 32.0781 107 31.9219 107.047C31.7708 107.094 31.5911 107.117 31.3828 107.117ZM34.8984 107.117C34.5755 107.117 34.276 107.034 34 106.867C33.7292 106.701 33.5104 106.466 33.3438 106.164C33.1823 105.857 33.1016 105.497 33.1016 105.086C33.1016 104.654 33.1823 104.281 33.3438 103.969C33.5104 103.656 33.7344 103.417 34.0156 103.25C34.3021 103.078 34.6198 102.992 34.9688 102.992C35.1875 102.992 35.4089 103.044 35.6328 103.148C35.862 103.253 36.0547 103.393 36.2109 103.57V103.078H36.9922V107H36.2109V106.336C36.0859 106.544 35.9089 106.727 35.6797 106.883C35.4557 107.039 35.1953 107.117 34.8984 107.117ZM35.0625 106.344C35.276 106.344 35.4688 106.289 35.6406 106.18C35.8177 106.065 35.9583 105.909 36.0625 105.711C36.1667 105.508 36.2161 105.276 36.2109 105.016V104.336C36.0547 104.159 35.888 104.018 35.7109 103.914C35.5391 103.81 35.3411 103.758 35.1172 103.758C34.8672 103.758 34.651 103.82 34.4688 103.945C34.2917 104.07 34.1536 104.234 34.0547 104.438C33.9609 104.641 33.9141 104.857 33.9141 105.086C33.9141 105.315 33.9609 105.526 34.0547 105.719C34.1536 105.911 34.2891 106.065 34.4609 106.18C34.6328 106.289 34.8333 106.344 35.0625 106.344Z" fill="#0F1742"/>
</g>
<g filter="url(#filter7_d_196_2106)">
<path d="M153.5 58C153.5 61.9075 150.964 65.5208 146.706 68.1826C142.454 70.84 136.549 72.5 130 72.5C123.451 72.5 117.546 70.84 113.294 68.1826C109.036 65.5208 106.5 61.9075 106.5 58C106.5 54.0925 109.036 50.4792 113.294 47.8174C117.546 45.16 123.451 43.5 130 43.5C136.549 43.5 142.454 45.16 146.706 47.8174C150.964 50.4792 153.5 54.0925 153.5 58Z" fill="#FFB902" stroke="#0F1742"/>
<path d="M119.09 56V50.7656H119.941V56H119.09ZM118.191 56V55.2266H120.84V56H118.191ZM118.191 51.5391V50.7656H120.84V51.5391H118.191ZM124.949 56V53.6953C124.949 53.3828 124.879 53.1484 124.738 52.9922C124.598 52.8359 124.389 52.7578 124.113 52.7578C123.921 52.7578 123.73 52.8281 123.543 52.9688C123.361 53.1042 123.199 53.263 123.059 53.4453V52.6719C123.142 52.5677 123.246 52.4635 123.371 52.3594C123.496 52.2552 123.637 52.1693 123.793 52.1016C123.954 52.0286 124.124 51.9922 124.301 51.9922C124.566 51.9922 124.809 52.0521 125.027 52.1719C125.246 52.2865 125.418 52.4635 125.543 52.7031C125.673 52.9427 125.738 53.2422 125.738 53.6016V56H124.949ZM122.277 56V52.0781H123.059V56H122.277ZM128.441 57.9922C128.207 57.9922 128.004 57.9661 127.832 57.9141C127.66 57.862 127.509 57.7943 127.379 57.7109C127.249 57.6328 127.129 57.5547 127.02 57.4766V56.6875C127.113 56.7552 127.225 56.8307 127.355 56.9141C127.486 57.0026 127.639 57.0807 127.816 57.1484C127.993 57.2161 128.194 57.25 128.418 57.25C128.663 57.25 128.887 57.2031 129.09 57.1094C129.293 57.0208 129.454 56.888 129.574 56.7109C129.694 56.5391 129.754 56.3359 129.754 56.1016V55.3359C129.629 55.5443 129.452 55.7266 129.223 55.8828C128.999 56.0391 128.738 56.1172 128.441 56.1172C128.118 56.1172 127.819 56.0339 127.543 55.8672C127.272 55.7005 127.053 55.4661 126.887 55.1641C126.725 54.8568 126.645 54.4974 126.645 54.0859C126.645 53.6536 126.725 53.2812 126.887 52.9688C127.053 52.6562 127.277 52.4167 127.559 52.25C127.845 52.0781 128.163 51.9922 128.512 51.9922C128.73 51.9922 128.952 52.0443 129.176 52.1484C129.405 52.2526 129.598 52.3932 129.754 52.5703V52.0781H130.535V55.9141C130.535 56.3672 130.439 56.7474 130.246 57.0547C130.059 57.3672 129.803 57.6016 129.48 57.7578C129.163 57.9141 128.816 57.9922 128.441 57.9922ZM128.605 55.3359C128.819 55.3359 129.012 55.2812 129.184 55.1719C129.355 55.0573 129.493 54.901 129.598 54.7031C129.702 54.5052 129.754 54.276 129.754 54.0156V53.3359C129.598 53.1589 129.431 53.0182 129.254 52.9141C129.082 52.8099 128.884 52.7578 128.66 52.7578C128.41 52.7578 128.194 52.8203 128.012 52.9453C127.835 53.0703 127.697 53.2344 127.598 53.4375C127.504 53.6406 127.457 53.8568 127.457 54.0859C127.457 54.3151 127.504 54.526 127.598 54.7188C127.697 54.9062 127.832 55.0573 128.004 55.1719C128.176 55.2812 128.376 55.3359 128.605 55.3359ZM133.613 56.1172C133.322 56.1172 133.048 56.0651 132.793 55.9609C132.543 55.8568 132.324 55.7109 132.137 55.5234C131.949 55.3359 131.803 55.1198 131.699 54.875C131.595 54.625 131.543 54.3568 131.543 54.0703C131.543 53.6953 131.626 53.3516 131.793 53.0391C131.96 52.7214 132.189 52.4688 132.48 52.2812C132.772 52.0885 133.103 51.9922 133.473 51.9922C133.868 51.9922 134.202 52.0755 134.473 52.2422C134.743 52.4089 134.947 52.638 135.082 52.9297C135.223 53.2161 135.293 53.5443 135.293 53.9141V54.3125H132.27V53.7109H134.535C134.514 53.4818 134.449 53.2943 134.34 53.1484C134.236 53.0026 134.105 52.8932 133.949 52.8203C133.798 52.7474 133.637 52.7109 133.465 52.7109C133.236 52.7109 133.035 52.7734 132.863 52.8984C132.697 53.0182 132.566 53.1797 132.473 53.3828C132.379 53.5859 132.332 53.8151 132.332 54.0703C132.332 54.3099 132.384 54.5286 132.488 54.7266C132.598 54.9245 132.751 55.0833 132.949 55.2031C133.147 55.3229 133.374 55.3828 133.629 55.3828C133.915 55.3828 134.176 55.3177 134.41 55.1875C134.65 55.0521 134.848 54.9115 135.004 54.7656V55.5469C134.926 55.6302 134.816 55.7161 134.676 55.8047C134.535 55.8932 134.374 55.9661 134.191 56.0234C134.009 56.0859 133.816 56.1172 133.613 56.1172ZM137.277 56.1172C137.116 56.1172 136.952 56.0964 136.785 56.0547C136.618 56.0182 136.467 55.9714 136.332 55.9141C136.197 55.8568 136.09 55.8021 136.012 55.75V54.9922C136.095 55.0495 136.204 55.112 136.34 55.1797C136.48 55.2422 136.626 55.2943 136.777 55.3359C136.928 55.3776 137.066 55.3984 137.191 55.3984C137.421 55.3984 137.598 55.3516 137.723 55.2578C137.853 55.1641 137.918 55.0417 137.918 54.8906C137.918 54.776 137.871 54.6875 137.777 54.625C137.684 54.5573 137.548 54.4922 137.371 54.4297L136.832 54.2344C136.53 54.125 136.324 53.9818 136.215 53.8047C136.111 53.6276 136.059 53.4219 136.059 53.1875C136.059 52.9531 136.118 52.7474 136.238 52.5703C136.358 52.3932 136.525 52.2526 136.738 52.1484C136.957 52.0443 137.21 51.9922 137.496 51.9922C137.73 51.9922 137.949 52.026 138.152 52.0938C138.355 52.1615 138.507 52.2344 138.605 52.3125V53.0781C138.491 52.9948 138.34 52.9141 138.152 52.8359C137.97 52.7578 137.78 52.7188 137.582 52.7188C137.358 52.7188 137.186 52.7708 137.066 52.875C136.952 52.974 136.895 53.0833 136.895 53.2031C136.895 53.2969 136.928 53.388 136.996 53.4766C137.064 53.5651 137.186 53.638 137.363 53.6953L137.934 53.8984C138.21 53.987 138.415 54.1172 138.551 54.2891C138.686 54.4557 138.754 54.6589 138.754 54.8984C138.754 55.1224 138.689 55.3281 138.559 55.5156C138.428 55.7031 138.251 55.8516 138.027 55.9609C137.809 56.0651 137.559 56.1172 137.277 56.1172ZM141.238 56.1172C141.014 56.1172 140.816 56.0703 140.645 55.9766C140.473 55.8776 140.337 55.7422 140.238 55.5703C140.139 55.3932 140.09 55.1849 140.09 54.9453V52.7734H139.379V52.4531C139.634 52.349 139.845 52.1719 140.012 51.9219C140.184 51.6667 140.332 51.3516 140.457 50.9766H140.871V52.0781H142.105V52.7734H140.871V54.8281C140.871 54.9948 140.921 55.1276 141.02 55.2266C141.124 55.3203 141.262 55.3672 141.434 55.3672C141.59 55.3672 141.728 55.3464 141.848 55.3047C141.973 55.263 142.077 55.2188 142.16 55.1719V55.8438C142.061 55.9323 141.934 56 141.777 56.0469C141.626 56.0938 141.447 56.1172 141.238 56.1172ZM123.164 66.0859C122.924 66.0859 122.693 66.0781 122.469 66.0625C122.245 66.0469 122.026 66.0234 121.812 65.9922C121.604 65.9609 121.393 65.9245 121.18 65.8828V60.8438C121.503 60.7865 121.82 60.7396 122.133 60.7031C122.451 60.6615 122.786 60.6406 123.141 60.6406C123.719 60.6406 124.214 60.7578 124.625 60.9922C125.036 61.2266 125.352 61.5469 125.57 61.9531C125.794 62.3594 125.906 62.8229 125.906 63.3438C125.906 63.7292 125.844 64.0885 125.719 64.4219C125.599 64.7552 125.422 65.0469 125.188 65.2969C124.953 65.5417 124.664 65.7344 124.32 65.875C123.982 66.0156 123.596 66.0859 123.164 66.0859ZM123.156 65.2812C123.547 65.2812 123.88 65.1979 124.156 65.0312C124.438 64.8594 124.654 64.6302 124.805 64.3438C124.956 64.0521 125.031 63.724 125.031 63.3594C125.031 62.9948 124.956 62.6693 124.805 62.3828C124.654 62.0911 124.438 61.862 124.156 61.6953C123.88 61.5286 123.547 61.4453 123.156 61.4453C122.979 61.4453 122.792 61.4531 122.594 61.4688C122.401 61.4792 122.214 61.4974 122.031 61.5234V65.2031C122.214 65.224 122.404 65.2422 122.602 65.2578C122.799 65.2734 122.984 65.2812 123.156 65.2812ZM128.445 66.1172C128.122 66.1172 127.823 66.0339 127.547 65.8672C127.276 65.7005 127.057 65.4661 126.891 65.1641C126.729 64.8568 126.648 64.4974 126.648 64.0859C126.648 63.6536 126.729 63.2812 126.891 62.9688C127.057 62.6562 127.281 62.4167 127.562 62.25C127.849 62.0781 128.167 61.9922 128.516 61.9922C128.734 61.9922 128.956 62.0443 129.18 62.1484C129.409 62.2526 129.602 62.3932 129.758 62.5703V62.0781H130.539V66H129.758V65.3359C129.633 65.5443 129.456 65.7266 129.227 65.8828C129.003 66.0391 128.742 66.1172 128.445 66.1172ZM128.609 65.3438C128.823 65.3438 129.016 65.2891 129.188 65.1797C129.365 65.0651 129.505 64.9089 129.609 64.7109C129.714 64.5078 129.763 64.276 129.758 64.0156V63.3359C129.602 63.1589 129.435 63.0182 129.258 62.9141C129.086 62.8099 128.888 62.7578 128.664 62.7578C128.414 62.7578 128.198 62.8203 128.016 62.9453C127.839 63.0703 127.701 63.2344 127.602 63.4375C127.508 63.6406 127.461 63.8568 127.461 64.0859C127.461 64.3151 127.508 64.526 127.602 64.7188C127.701 64.9115 127.836 65.0651 128.008 65.1797C128.18 65.2891 128.38 65.3438 128.609 65.3438ZM133.383 66.1172C133.159 66.1172 132.961 66.0703 132.789 65.9766C132.617 65.8776 132.482 65.7422 132.383 65.5703C132.284 65.3932 132.234 65.1849 132.234 64.9453V62.7734H131.523V62.4531C131.779 62.349 131.99 62.1719 132.156 61.9219C132.328 61.6667 132.477 61.3516 132.602 60.9766H133.016V62.0781H134.25V62.7734H133.016V64.8281C133.016 64.9948 133.065 65.1276 133.164 65.2266C133.268 65.3203 133.406 65.3672 133.578 65.3672C133.734 65.3672 133.872 65.3464 133.992 65.3047C134.117 65.263 134.221 65.2188 134.305 65.1719V65.8438C134.206 65.9323 134.078 66 133.922 66.0469C133.771 66.0938 133.591 66.1172 133.383 66.1172ZM136.898 66.1172C136.576 66.1172 136.276 66.0339 136 65.8672C135.729 65.7005 135.51 65.4661 135.344 65.1641C135.182 64.8568 135.102 64.4974 135.102 64.0859C135.102 63.6536 135.182 63.2812 135.344 62.9688C135.51 62.6562 135.734 62.4167 136.016 62.25C136.302 62.0781 136.62 61.9922 136.969 61.9922C137.188 61.9922 137.409 62.0443 137.633 62.1484C137.862 62.2526 138.055 62.3932 138.211 62.5703V62.0781H138.992V66H138.211V65.3359C138.086 65.5443 137.909 65.7266 137.68 65.8828C137.456 66.0391 137.195 66.1172 136.898 66.1172ZM137.062 65.3438C137.276 65.3438 137.469 65.2891 137.641 65.1797C137.818 65.0651 137.958 64.9089 138.062 64.7109C138.167 64.5078 138.216 64.276 138.211 64.0156V63.3359C138.055 63.1589 137.888 63.0182 137.711 62.9141C137.539 62.8099 137.341 62.7578 137.117 62.7578C136.867 62.7578 136.651 62.8203 136.469 62.9453C136.292 63.0703 136.154 63.2344 136.055 63.4375C135.961 63.6406 135.914 63.8568 135.914 64.0859C135.914 64.3151 135.961 64.526 136.055 64.7188C136.154 64.9115 136.289 65.0651 136.461 65.1797C136.633 65.2891 136.833 65.3438 137.062 65.3438Z" fill="#0F1742"/>
</g>
<defs>
<filter id="filter0_d_196_2106" x="0" y="120.073" width="158" height="47.9274" filterUnits="userSpaceOnUse" color-interpolation-filters="sRGB">
<feFlood flood-opacity="0" result="BackgroundImageFix"/>
<feColorMatrix in="SourceAlpha" type="matrix" values="0 0 0 0 0 0 0 0 0 0 0 0 0 0 0 0 0 0 127 0" result="hardAlpha"/>
<feOffset dy="4"/>
<feGaussianBlur stdDeviation="2"/>
<feComposite in2="hardAlpha" operator="out"/>
<feColorMatrix type="matrix" values="0 0 0 0 0 0 0 0 0 0 0 0 0 0 0 0 0 0 0.25 0"/>
<feBlend mode="normal" in2="BackgroundImageFix" result="effect1_dropShadow_196_2106"/>
<feBlend mode="normal" in="SourceGraphic" in2="effect1_dropShadow_196_2106" result="shape"/>
</filter>
<filter id="filter1_d_196_2106" x="0" y="0" width="158" height="47.9274" filterUnits="userSpaceOnUse" color-interpolation-filters="sRGB">
<feFlood flood-opacity="0" result="BackgroundImageFix"/>
<feColorMatrix in="SourceAlpha" type="matrix" values="0 0 0 0 0 0 0 0 0 0 0 0 0 0 0 0 0 0 127 0" result="hardAlpha"/>
<feOffset dy="4"/>
<feGaussianBlur stdDeviation="2"/>
<feComposite in2="hardAlpha" operator="out"/>
<feColorMatrix type="matrix" values="0 0 0 0 0 0 0 0 0 0 0 0 0 0 0 0 0 0 0.25 0"/>
<feBlend mode="normal" in2="BackgroundImageFix" result="effect1_dropShadow_196_2106"/>
<feBlend mode="normal" in="SourceGraphic" in2="effect1_dropShadow_196_2106" result="shape"/>
</filter>
<filter id="filter2_d_196_2106" x="60" y="33" width="38" height="67.1172" filterUnits="userSpaceOnUse" color-interpolation-filters="sRGB">
<feFlood flood-opacity="0" result="BackgroundImageFix"/>
<feColorMatrix in="SourceAlpha" type="matrix" values="0 0 0 0 0 0 0 0 0 0 0 0 0 0 0 0 0 0 127 0" result="hardAlpha"/>
<feOffset dy="4"/>
<feGaussianBlur stdDeviation="2"/>
<feComposite in2="hardAlpha" operator="out"/>
<feColorMatrix type="matrix" values="0 0 0 0 0 0 0 0 0 0 0 0 0 0 0 0 0 0 0.25 0"/>
<feBlend mode="normal" in2="BackgroundImageFix" result="effect1_dropShadow_196_2106"/>
<feBlend mode="normal" in="SourceGraphic" in2="effect1_dropShadow_196_2106" result="shape"/>
</filter>
<filter id="filter3_d_196_2106" x="102" y="82" width="56" height="38" filterUnits="userSpaceOnUse" color-interpolation-filters="sRGB">
<feFlood flood-opacity="0" result="BackgroundImageFix"/>
<feColorMatrix in="SourceAlpha" type="matrix" values="0 0 0 0 0 0 0 0 0 0 0 0 0 0 0 0 0 0 127 0" result="hardAlpha"/>
<feOffset dy="4"/>
<feGaussianBlur stdDeviation="2"/>
<feComposite in2="hardAlpha" operator="out"/>
<feColorMatrix type="matrix" values="0 0 0 0 0 0 0 0 0 0 0 0 0 0 0 0 0 0 0.25 0"/>
<feBlend mode="normal" in2="BackgroundImageFix" result="effect1_dropShadow_196_2106"/>
<feBlend mode="normal" in="SourceGraphic" in2="effect1_dropShadow_196_2106" result="shape"/>
</filter>
<filter id="filter4_d_196_2106" x="51" y="100" width="56" height="38" filterUnits="userSpaceOnUse" color-interpolation-filters="sRGB">
<feFlood flood-opacity="0" result="BackgroundImageFix"/>
<feColorMatrix in="SourceAlpha" type="matrix" values="0 0 0 0 0 0 0 0 0 0 0 0 0 0 0 0 0 0 127 0" result="hardAlpha"/>
<feOffset dy="4"/>
<feGaussianBlur stdDeviation="2"/>
<feComposite in2="hardAlpha" operator="out"/>
<feColorMatrix type="matrix" values="0 0 0 0 0 0 0 0 0 0 0 0 0 0 0 0 0 0 0.25 0"/>
<feBlend mode="normal" in2="BackgroundImageFix" result="effect1_dropShadow_196_2106"/>
<feBlend mode="normal" in="SourceGraphic" in2="effect1_dropShadow_196_2106" result="shape"/>
</filter>
<filter id="filter5_d_196_2106" x="0" y="43" width="56" height="38" filterUnits="userSpaceOnUse" color-interpolation-filters="sRGB">
<feFlood flood-opacity="0" result="BackgroundImageFix"/>
<feColorMatrix in="SourceAlpha" type="matrix" values="0 0 0 0 0 0 0 0 0 0 0 0 0 0 0 0 0 0 127 0" result="hardAlpha"/>
<feOffset dy="4"/>
<feGaussianBlur stdDeviation="2"/>
<feComposite in2="hardAlpha" operator="out"/>
<feColorMatrix type="matrix" values="0 0 0 0 0 0 0 0 0 0 0 0 0 0 0 0 0 0 0.25 0"/>
<feBlend mode="normal" in2="BackgroundImageFix" result="effect1_dropShadow_196_2106"/>
<feBlend mode="normal" in="SourceGraphic" in2="effect1_dropShadow_196_2106" result="shape"/>
</filter>
<filter id="filter6_d_196_2106" x="0" y="84" width="56" height="38" filterUnits="userSpaceOnUse" color-interpolation-filters="sRGB">
<feFlood flood-opacity="0" result="BackgroundImageFix"/>
<feColorMatrix in="SourceAlpha" type="matrix" values="0 0 0 0 0 0 0 0 0 0 0 0 0 0 0 0 0 0 127 0" result="hardAlpha"/>
<feOffset dy="4"/>
<feGaussianBlur stdDeviation="2"/>
<feComposite in2="hardAlpha" operator="out"/>
<feColorMatrix type="matrix" values="0 0 0 0 0 0 0 0 0 0 0 0 0 0 0 0 0 0 0.25 0"/>
<feBlend mode="normal" in2="BackgroundImageFix" result="effect1_dropShadow_196_2106"/>
<feBlend mode="normal" in="SourceGraphic" in2="effect1_dropShadow_196_2106" result="shape"/>
</filter>
<filter id="filter7_d_196_2106" x="102" y="43" width="56" height="38" filterUnits="userSpaceOnUse" color-interpolation-filters="sRGB">
<feFlood flood-opacity="0" result="BackgroundImageFix"/>
<feColorMatrix in="SourceAlpha" type="matrix" values="0 0 0 0 0 0 0 0 0 0 0 0 0 0 0 0 0 0 127 0" result="hardAlpha"/>
<feOffset dy="4"/>
<feGaussianBlur stdDeviation="2"/>
<feComposite in2="hardAlpha" operator="out"/>
<feColorMatrix type="matrix" values="0 0 0 0 0 0 0 0 0 0 0 0 0 0 0 0 0 0 0.25 0"/>
<feBlend mode="normal" in2="BackgroundImageFix" result="effect1_dropShadow_196_2106"/>
<feBlend mode="normal" in="SourceGraphic" in2="effect1_dropShadow_196_2106" result="shape"/>
</filter>
<linearGradient id="paint0_linear_196_2106" x1="79" y1="160" x2="79" y2="120.073" gradientUnits="userSpaceOnUse">
<stop offset="0.325" stop-color="#0F1742"/>
<stop offset="0.5" stop-color="#1D4CB3"/>
<stop offset="0.85" stop-color="#03BFFE"/>
</linearGradient>
<linearGradient id="paint1_linear_196_2106" x1="79" y1="0" x2="79" y2="39.9274" gradientUnits="userSpaceOnUse">
<stop offset="0.325" stop-color="#0F1742"/>
<stop offset="0.5" stop-color="#1D4CB3"/>
<stop offset="0.85" stop-color="#03BFFE"/>
</linearGradient>
</defs>
</svg>
